<svg width="51" height="51" viewBox="0 0 51 51" fill="none" xmlns="http://www.w3.org/2000/svg">
<g clip-path="url(#clip0_2247_12065)">
<path d="M50.5 9.87188C48.6406 10.6875 46.6594 11.2281 44.5938 11.4906C46.7188 10.2219 48.3406 8.22812 49.1031 5.825C47.1219 7.00625 44.9344 7.84063 42.6031 8.30625C40.7219 6.30313 38.0406 5.0625 35.1156 5.0625C29.4406 5.0625 24.8719 9.66875 24.8719 15.3156C24.8719 16.1281 24.9406 16.9094 25.1094 17.6531C16.5875 17.2375 9.04688 13.1531 3.98125 6.93125C3.09687 8.46563 2.57812 10.2219 2.57812 12.1125C2.57812 15.6625 4.40625 18.8094 7.13125 20.6312C5.48438 20.6 3.86875 20.1219 2.5 19.3688C2.5 19.4 2.5 19.4406 2.5 19.4812C2.5 24.4625 6.05312 28.6 10.7125 29.5531C9.87812 29.7812 8.96875 29.8906 8.025 29.8906C7.36875 29.8906 6.70625 29.8531 6.08437 29.7156C7.4125 33.775 11.1813 36.7594 15.6625 36.8562C12.175 39.5844 7.74688 41.2281 2.95312 41.2281C2.1125 41.2281 1.30625 41.1906 0.5 41.0875C5.04062 44.0156 10.4219 45.6875 16.225 45.6875C35.0875 45.6875 45.4 30.0625 45.4 16.5187C45.4 16.0656 45.3844 15.6281 45.3625 15.1938C47.3969 13.75 49.1063 11.9469 50.5 9.87188Z" fill="#100D26"/>
</g>
<defs>
<clipPath id="clip0_2247_12065">
<rect width="50" height="50" fill="white" transform="translate(0.5 0.375)"/>
</clipPath>
</defs>
</svg>
