<svg width="1920" height="905" viewBox="0 0 1920 905" fill="none" xmlns="http://www.w3.org/2000/svg">
<g clip-path="url(#clip0_2267_7087)">
<g clip-path="url(#clip1_2267_7087)" filter="url(#filter0_dddddd_2267_7087)">
<path d="M1752.74 523.137C1752.74 518.643 1744.85 511.122 1740.14 511.122C1744.85 511.122 1752.74 503.601 1752.74 499.107C1752.74 503.601 1760.62 511.122 1765.33 511.122C1760.62 511.122 1752.74 518.643 1752.74 523.137Z" fill="#FFD83B"/>
<path d="M1752.73 515.854C1752.73 514.085 1749.63 511.122 1747.77 511.122C1749.63 511.122 1752.73 508.159 1752.73 506.39C1752.73 508.159 1755.84 511.122 1757.7 511.122C1755.84 511.122 1752.73 514.084 1752.73 515.854Z" fill="#F3C432"/>
<path d="M1761.52 506.39C1761.52 504.226 1757.72 500.603 1755.45 500.603C1757.72 500.603 1761.52 496.98 1761.52 494.815C1761.52 496.98 1765.31 500.603 1767.58 500.603C1765.31 500.603 1761.52 504.226 1761.52 506.39Z" fill="#FFD83B"/>
<path d="M1743.84 522.705C1743.84 521.59 1741.88 519.724 1740.71 519.724C1741.88 519.724 1743.84 517.859 1743.84 516.744C1743.84 517.859 1745.8 519.724 1746.96 519.724C1745.8 519.725 1743.84 521.591 1743.84 522.705Z" fill="#FFD83B"/>
<path d="M1747.87 501.41C1747.87 499.863 1745.16 497.274 1743.53 497.274C1745.16 497.274 1747.87 494.684 1747.87 493.137C1747.87 494.684 1750.58 497.274 1752.21 497.274C1750.58 497.274 1747.87 499.863 1747.87 501.41Z" fill="#FFD83B"/>
</g>
<g clip-path="url(#clip2_2267_7087)" filter="url(#filter1_dddddd_2267_7087)">
<path d="M51.9617 187.137C51.9617 181.145 41.4489 171.117 35.168 171.117C41.4489 171.117 51.9617 161.089 51.9617 155.098C51.9617 161.089 62.4745 171.117 68.7555 171.117C62.4745 171.117 51.9617 181.145 51.9617 187.137Z" fill="#FFD83B"/>
<path d="M51.9623 177.427C51.9623 175.068 47.8208 171.117 45.3477 171.117C47.8208 171.117 51.9623 167.167 51.9623 164.808C51.9623 167.167 56.1038 171.117 58.577 171.117C56.1025 171.117 51.9623 175.067 51.9623 177.427Z" fill="#F3C432"/>
<path d="M63.6714 164.807C63.6714 161.921 58.6074 157.091 55.582 157.091C58.6074 157.091 63.6714 152.26 63.6714 149.375C63.6714 152.26 68.7354 157.091 71.7608 157.091C68.7354 157.091 63.6714 161.921 63.6714 164.807Z" fill="#FFD83B"/>
<path d="M40.1019 186.561C40.1019 185.075 37.494 182.587 35.9355 182.587C37.494 182.587 40.1019 180.099 40.1019 178.613C40.1019 180.099 42.7098 182.587 44.2683 182.587C42.7098 182.588 40.1019 185.076 40.1019 186.561Z" fill="#FFD83B"/>
<path d="M45.4758 158.168C45.4758 156.105 41.8564 152.653 39.6934 152.653C41.8564 152.653 45.4758 149.2 45.4758 147.137C45.4758 149.2 49.0952 152.653 51.2582 152.653C49.0952 152.653 45.4758 156.105 45.4758 158.168Z" fill="#FFD83B"/>
</g>
<g clip-path="url(#clip3_2267_7087)">
<path d="M594.404 612.137C594.404 629.81 579.385 644.137 560.857 644.137C542.33 644.137 527.311 629.81 527.311 612.137C527.311 594.463 542.33 580.137 560.857 580.137C579.385 580.137 594.404 594.463 594.404 612.137Z" fill="#E7E7E7"/>
<path d="M531.406 612.137C531.406 595.12 545.331 581.208 562.905 580.198C562.227 580.159 561.545 580.137 560.857 580.137C542.33 580.137 527.311 594.463 527.311 612.137C527.311 629.81 542.33 644.137 560.857 644.137C561.545 644.137 562.227 644.115 562.905 644.076C545.331 643.066 531.406 629.154 531.406 612.137Z" fill="#CECECE"/>
<path d="M589.352 629.029C588.053 626.417 585.265 624.611 582.033 624.611C577.561 624.611 573.936 628.069 573.936 632.335C573.936 635.418 575.829 638.078 578.567 639.317C582.935 636.722 586.632 633.196 589.352 629.029Z" fill="#CECECE"/>
<path d="M578.031 632.335C578.031 628.744 580.6 625.726 584.082 624.86C583.427 624.698 582.741 624.611 582.033 624.611C577.561 624.611 573.936 628.069 573.936 632.335C573.936 635.418 575.829 638.078 578.567 639.317C579.268 638.9 579.951 638.457 580.617 637.993C579.026 636.583 578.031 634.57 578.031 632.335Z" fill="#BFBFBF"/>
<path d="M568.811 594.031C568.811 598.297 565.185 601.755 560.713 601.755C556.241 601.755 552.615 598.297 552.615 594.031C552.615 589.765 556.241 586.307 560.713 586.307C565.185 586.307 568.811 589.765 568.811 594.031Z" fill="#CECECE"/>
<path d="M556.71 594.031C556.71 590.44 559.279 587.421 562.76 586.557C562.107 586.394 561.421 586.307 560.713 586.307C556.241 586.307 552.615 589.765 552.615 594.031C552.615 598.297 556.241 601.755 560.713 601.755C561.421 601.755 562.107 601.668 562.76 601.506C559.279 600.641 556.71 597.623 556.71 594.031Z" fill="#BFBFBF"/>
<path d="M593.292 603.945C590.952 595.492 585.077 588.41 577.267 584.223C575.68 586.352 574.748 588.955 574.748 591.765C574.748 598.964 580.866 604.801 588.414 604.801C590.133 604.801 591.777 604.497 593.292 603.945Z" fill="#CECECE"/>
<path d="M578.843 591.765C578.843 589.703 579.346 587.754 580.24 586.021C579.284 585.374 578.292 584.773 577.267 584.223C575.68 586.352 574.748 588.955 574.748 591.765C574.748 598.964 580.866 604.801 588.414 604.801C589.107 604.801 589.787 604.749 590.453 604.654C583.881 603.708 578.843 598.298 578.843 591.765Z" fill="#BFBFBF"/>
<path d="M585.041 613.867C585.041 616 583.228 617.729 580.992 617.729C578.756 617.729 576.943 616 576.943 613.867C576.943 611.734 578.756 610.005 580.992 610.005C583.228 610.005 585.041 611.734 585.041 613.867Z" fill="#CECECE"/>
<path d="M581.038 613.867C581.038 612.447 581.843 611.207 583.04 610.535C582.439 610.199 581.74 610.005 580.992 610.005C578.756 610.005 576.943 611.734 576.943 613.867C576.943 616 578.756 617.729 580.992 617.729C581.74 617.729 582.439 617.535 583.04 617.198C581.843 616.528 581.038 615.287 581.038 613.867Z" fill="#BFBFBF"/>
<path d="M566.351 612.547C566.351 613.829 565.262 614.868 563.919 614.868C562.575 614.868 561.486 613.829 561.486 612.547C561.486 611.266 562.575 610.227 563.919 610.227C565.262 610.227 566.351 611.266 566.351 612.547Z" fill="#BFBFBF"/>
<path d="M567.609 632.335C567.609 633.308 566.783 634.096 565.764 634.096C564.744 634.096 563.918 633.308 563.918 632.335C563.918 631.363 564.744 630.575 565.764 630.575C566.783 630.575 567.609 631.363 567.609 632.335Z" fill="#BFBFBF"/>
</g>
<path d="M1621.73 214.747C1639.43 214.747 1653.78 201.06 1653.78 184.176C1653.78 167.293 1639.43 153.606 1621.73 153.606C1604.03 153.606 1589.68 167.293 1589.68 184.176C1589.68 201.06 1604.03 214.747 1621.73 214.747Z" fill="#FFD0A1"/>
<path d="M1594.84 167.547C1596.02 165.809 1597.38 164.191 1598.9 162.718C1600.49 163.567 1608.26 164.211 1613.47 163.397C1615.56 163.068 1619.51 162.698 1623.06 160.131C1626.34 157.759 1630.21 155.597 1631.77 155.143C1633.41 155.661 1635.01 156.305 1636.55 157.07C1632.37 163.225 1625.86 167.605 1618.38 169.295C1608.93 171.417 1606.46 168.571 1602.13 167.922C1598.39 167.362 1595.97 168.266 1594.84 167.547Z" fill="#FFF2D9"/>
<path d="M1589.96 188.182C1589.42 184.356 1589.65 180.468 1590.64 176.726C1592.97 178.753 1599.04 176.062 1602.87 176.691C1610.68 177.979 1616.92 178.883 1621.83 177.395C1628.79 175.283 1632.18 170.324 1636.5 168.99C1641.56 167.422 1644.99 166.474 1645.66 163.842C1647.67 165.986 1649.35 168.39 1650.64 170.983C1641.35 186.334 1597.45 193.07 1589.96 188.182Z" fill="#FF7F52"/>
<path d="M1653.38 189.01L1653.38 189.015C1651.11 191.677 1649.92 191.627 1647.3 193.904C1644.68 196.182 1642.3 200.102 1635.6 202.389C1629.82 204.361 1625.95 202.604 1618.72 202.993C1610.04 203.462 1603.86 205.47 1597.08 203.717C1595.59 202.012 1594.3 200.156 1593.23 198.184C1597.57 199.887 1603.83 199.917 1611.29 198.983C1616.42 198.352 1621.31 196.487 1625.49 193.565C1633.02 188.536 1639.06 190.134 1643.47 188.971C1650.22 187.188 1652.84 183.447 1653.72 182.344C1653.87 184.571 1653.75 186.807 1653.38 189.01Z" fill="#FF7F52"/>
<path d="M1590.64 176.726C1591.51 173.468 1592.92 170.367 1594.84 167.547C1595.97 168.266 1598.39 167.363 1602.13 167.922C1606.46 168.571 1608.93 171.417 1618.38 169.295C1625.86 167.605 1632.37 163.225 1636.54 157.07C1639.99 158.783 1643.08 161.075 1645.66 163.837V163.842C1644.99 166.474 1641.56 167.422 1636.5 168.99C1632.18 170.324 1628.79 175.283 1621.83 177.395C1616.92 178.883 1610.68 177.979 1602.87 176.691C1599.03 176.062 1592.97 178.753 1590.64 176.726Z" fill="#F74B4B"/>
<path d="M1653.38 189.016C1652.68 193.182 1651.08 197.164 1648.68 200.711C1648.68 200.712 1648.68 200.714 1648.68 200.715C1648.68 200.716 1648.68 200.716 1648.68 200.716C1638.59 207.737 1621.72 213.63 1607.79 211.702C1607.79 211.697 1607.79 211.697 1607.78 211.697C1603.66 209.798 1600.01 207.077 1597.08 203.717C1603.86 205.47 1610.05 203.463 1618.72 202.993C1625.96 202.604 1629.82 204.362 1635.6 202.389C1642.3 200.102 1644.68 196.182 1647.3 193.905C1649.92 191.627 1651.11 191.677 1653.38 189.016Z" fill="#F9E5C7"/>
<path d="M1593.23 198.184C1592.19 196.24 1591.37 194.196 1590.77 192.087C1590.41 190.804 1590.14 189.499 1589.96 188.182C1597.45 193.07 1641.35 186.334 1650.64 170.983C1652.42 174.546 1653.47 178.404 1653.72 182.344C1652.84 183.447 1650.22 187.188 1643.47 188.971C1639.06 190.134 1633.02 188.536 1625.49 193.565C1621.31 196.487 1616.42 198.352 1611.29 198.983C1603.83 199.917 1597.57 199.887 1593.23 198.184Z" fill="#F9E5C7"/>
<path d="M1639.49 194.638C1639.97 196.345 1637.57 198.853 1634.33 199.682C1631.09 200.511 1628.08 199.796 1627.6 198.088C1627.12 196.381 1629.35 193.771 1632.58 192.945C1636.58 191.92 1639.01 192.931 1639.49 194.638Z" fill="#FFE2BB"/>
<path d="M1634.95 196.978C1635.67 196.738 1636.12 196.184 1635.95 195.74C1635.79 195.297 1635.08 195.133 1634.36 195.374C1633.65 195.614 1633.2 196.168 1633.36 196.612C1633.52 197.055 1634.24 197.219 1634.95 196.978Z" fill="#FF6F48"/>
<g clip-path="url(#clip4_2267_7087)">
<path d="M499.594 761.374C499.594 766.803 499.277 772.166 498.653 777.442C497.225 789.625 494.19 801.353 489.746 812.412C482.284 830.995 470.87 847.711 456.48 861.624C452.135 865.829 447.516 869.777 442.648 873.441C417.158 892.665 384.946 904.137 349.931 904.137C337.681 904.137 325.775 902.734 314.378 900.088C309.922 899.047 305.538 897.822 301.243 896.419C288.027 892.084 275.653 886.035 264.41 878.548C259.695 875.403 255.176 872.013 250.874 868.392C239.304 858.64 229.318 847.198 221.364 834.479C218.926 830.609 216.687 826.612 214.65 822.508C205.424 803.974 200.268 783.251 200.268 761.374C200.268 758.364 200.366 755.373 200.56 752.413C205.405 677.743 270.437 618.611 349.931 618.611C388.605 618.611 423.86 632.61 450.422 655.585C465.157 668.322 477.221 683.838 485.71 701.254V701.261C489.014 708.033 491.776 715.092 493.941 722.393C497.624 734.787 499.594 747.856 499.594 761.374Z" fill="#9BF2E5"/>
<path d="M499.594 761.374C499.594 766.803 499.275 772.166 498.656 777.442C497.228 789.627 494.188 801.351 489.747 812.41C468.216 866.049 413.732 904.137 349.931 904.137C345.811 904.137 341.727 903.974 337.691 903.663C396.173 899.168 445.165 862.597 465.308 812.412C469.75 801.353 472.787 789.627 474.215 777.442C474.834 772.166 475.156 766.805 475.156 761.374C475.156 747.856 473.186 734.789 469.5 722.398C467.336 715.094 464.576 708.035 461.272 701.261V701.254C452.781 683.838 440.716 668.324 425.979 655.585C402.244 635.052 371.562 621.69 337.699 619.085C341.734 618.774 345.811 618.611 349.933 618.611C388.608 618.611 423.86 632.607 450.42 655.585C465.157 668.324 477.222 683.838 485.713 701.254V701.261C489.017 708.035 491.777 715.094 493.941 722.398C497.626 734.789 499.594 747.856 499.594 761.374Z" fill="#2DE0C7"/>
<path d="M499.593 761.374C499.593 766.803 499.274 772.166 498.655 777.442C497.228 789.627 494.187 801.351 489.746 812.41C480.904 817.874 470.498 822.962 458.237 827.352C442.71 832.92 424.229 837.374 402.221 840.043C323.904 849.56 288.548 857.983 264.407 878.546C259.692 875.405 255.174 872.016 250.876 868.395C239.302 858.642 229.317 847.203 221.363 834.481C245.986 807.118 279.516 797.718 368.456 786.915C421.655 780.451 454.273 763.587 474.26 745.709C483.023 737.866 489.362 729.836 493.94 722.396C497.626 734.789 499.593 747.856 499.593 761.374Z" fill="#FDA736"/>
<path d="M499.593 761.374C499.593 766.803 499.274 772.166 498.655 777.441C497.227 789.627 494.187 801.35 489.746 812.41C480.904 817.873 470.497 822.961 458.236 827.351C460.885 822.531 463.244 817.544 465.305 812.41C469.746 801.35 472.787 789.625 474.214 777.441C474.833 772.166 475.152 766.803 475.152 761.374C475.152 756.08 474.852 750.854 474.26 745.711C483.025 737.868 489.362 729.836 493.94 722.397C497.626 734.789 499.593 747.856 499.593 761.374Z" fill="#FD8F07"/>
<path d="M485.71 701.254V701.261C482.123 708.058 477.012 715.623 469.728 723.188C451.331 742.304 419.066 761.443 362.542 768.309C268.628 779.719 239.237 789.49 214.645 822.508C205.426 803.978 200.268 783.251 200.268 761.374C200.268 758.364 200.366 755.373 200.56 752.411C223.633 734.085 257.672 726.241 330.219 717.433C389.541 710.23 422.137 689.517 440.025 669.48C444.262 664.747 447.674 660.05 450.419 655.585C465.157 668.325 477.221 683.838 485.71 701.254Z" fill="#2DE0C7"/>
<path d="M485.711 701.254V701.261C482.124 708.058 477.013 715.623 469.728 723.188C469.656 722.92 469.579 722.659 469.5 722.398C467.333 715.094 464.577 708.036 461.27 701.261V701.254C455.663 689.748 448.495 679.073 440.025 669.48C444.263 664.747 447.675 660.05 450.42 655.585C465.157 668.325 477.222 683.838 485.711 701.254Z" fill="#00C2CC"/>
<path d="M499.593 761.374C499.593 766.803 499.274 772.166 498.655 777.441C491.317 784.413 482.046 791.3 470.32 797.482C451.885 807.217 427.394 815.23 394.867 819.18C305.862 829.99 274.808 839.333 250.876 868.394C235.774 855.669 223.383 840.073 214.645 822.508C239.236 789.49 268.627 779.716 362.542 768.309C419.065 761.442 451.331 742.308 469.727 723.187C477.019 715.618 482.123 708.053 485.71 701.253C494.619 719.523 499.593 739.896 499.593 761.374Z" fill="#00C4CE"/>
<path d="M499.594 761.374C499.594 766.803 499.275 772.166 498.656 777.441C491.319 784.413 482.047 791.3 470.321 797.482C472.102 790.971 473.414 784.276 474.215 777.441C474.835 772.166 475.154 766.803 475.154 761.374C475.154 748.142 473.27 735.341 469.729 723.187C477.02 715.616 482.124 708.053 485.711 701.253C494.62 719.523 499.594 739.896 499.594 761.374Z" fill="#00A6CC"/>
<path d="M456.481 861.627C452.138 865.829 447.519 869.777 442.648 873.439C438.998 874.02 435.294 874.529 431.541 874.986C424.95 875.79 418.704 876.575 412.777 877.36H412.758C361.566 884.128 333.936 890.495 314.378 900.088C309.925 899.044 305.539 897.82 301.246 896.419C301.38 896.309 301.527 896.215 301.676 896.126C327.64 880.676 365.988 873.522 427.315 866.005C428.299 865.881 429.292 865.758 430.295 865.641C438.754 864.609 446.972 863.279 454.736 861.679C455.326 861.556 455.914 861.544 456.481 861.627Z" fill="#FEF5E3"/>
<path d="M391.717 665.06C391.717 654.971 375.3 646.791 355.049 646.791C334.8 646.791 318.383 654.971 318.383 665.06C318.383 675.149 334.8 683.327 355.049 683.327C375.3 683.327 391.717 675.149 391.717 665.06Z" fill="#FEF5E3"/>
<path d="M391.716 665.058C391.716 675.148 375.297 683.328 355.051 683.328C337.175 683.328 322.296 676.958 319.047 668.528C325.705 671.939 335.025 674.06 345.333 674.06C365.582 674.06 382.001 665.88 382.001 655.791C382.001 654.603 381.773 653.445 381.336 652.319C387.76 655.617 391.716 660.108 391.716 665.058Z" fill="#FFE5C0"/>
<path d="M456.481 861.627C452.138 865.829 447.519 869.777 442.648 873.439C438.998 874.02 435.294 874.529 431.541 874.986C424.95 875.79 418.704 876.575 412.777 877.36C417.874 873.86 422.728 870.07 427.316 866.005C428.299 865.881 429.293 865.758 430.296 865.641C438.754 864.609 446.972 863.279 454.736 861.679C455.327 861.556 455.915 861.544 456.481 861.627Z" fill="#FFE5C0"/>
</g>
<g clip-path="url(#clip5_2267_7087)">
<path d="M1605.77 149.659C1605.77 150.751 1605.54 151.833 1605.1 152.839C1604.85 153.414 1604.52 153.96 1604.14 154.464C1603.89 154.797 1603.61 155.11 1603.31 155.401C1602.1 156.584 1600.54 157.389 1598.84 157.713C1597.14 158.037 1595.38 157.863 1593.78 157.215L1593.78 157.214C1592.23 156.583 1590.9 155.53 1589.97 154.187C1589.04 152.844 1588.55 151.269 1588.55 149.659C1588.55 149.195 1588.59 148.732 1588.67 148.274C1588.9 147.016 1589.43 145.826 1590.23 144.797C1591.02 143.768 1592.05 142.929 1593.24 142.344C1594.46 141.753 1595.8 141.445 1597.16 141.447C1598.05 141.446 1598.94 141.578 1599.79 141.838C1600.43 142.034 1601.05 142.302 1601.62 142.637C1602.48 143.133 1603.24 143.766 1603.87 144.508C1604.63 145.414 1605.19 146.465 1605.49 147.592V147.595C1605.66 148.189 1605.75 148.798 1605.77 149.412C1605.77 149.494 1605.77 149.577 1605.77 149.659Z" fill="#FF6F64"/>
<path d="M1599.79 141.838C1599.53 142.21 1598.77 142.239 1598.27 142.559C1596.77 143.511 1594.8 142.731 1594.53 141.838C1596.24 141.316 1598.08 141.316 1599.79 141.838Z" fill="#FFD0A1"/>
<path d="M1596.96 146.213C1596.76 146.469 1594.93 146.642 1593.96 147.284C1592.9 147.984 1593.02 148.935 1592.26 149.233C1591.84 149.397 1590.73 149.365 1590.69 148.709C1590.64 148.052 1590.36 147.847 1589.98 147.79C1589.61 147.733 1589.03 147.943 1588.67 148.277L1588.67 148.275C1588.87 147.175 1589.3 146.125 1589.94 145.189C1590.57 144.254 1591.4 143.452 1592.38 142.832C1591.81 144.438 1593.45 145.216 1594.32 144.831C1595.19 144.446 1595.36 145.109 1595.73 145.209C1596.11 145.309 1596.67 144.985 1596.96 145.061C1597.25 145.138 1597.15 145.956 1596.96 146.213Z" fill="#F74B4B"/>
<path d="M1604.86 145.986C1603.63 146.773 1602.82 146.878 1601.53 147.481C1601.19 147.641 1599.13 148.107 1598.46 147.853C1598.21 147.755 1597.7 147.533 1597.93 146.943C1598.08 146.553 1598.98 146.465 1599.4 146.303C1599.9 146.103 1600.07 144.811 1601.67 145.169C1602.65 145.389 1603.46 144.784 1603.86 144.509C1604.25 144.965 1604.59 145.461 1604.86 145.986Z" fill="#F74B4B"/>
<path d="M1605.77 149.659C1605.77 150.752 1605.54 151.833 1605.1 152.84C1604.96 152.835 1604.82 152.801 1604.69 152.74C1604.56 152.678 1604.45 152.59 1604.36 152.483C1604.02 152.063 1604.14 151.199 1604.38 150.686C1604.62 150.174 1603.66 148.705 1603.63 148.216C1603.59 147.388 1604.32 147.393 1605.49 147.593V147.595C1605.66 148.189 1605.75 148.798 1605.77 149.412C1605.77 149.494 1605.77 149.577 1605.77 149.659Z" fill="#F74B4B"/>
<path d="M1604.14 154.464C1603.89 154.797 1603.61 155.111 1603.31 155.402C1602.9 155.391 1602.25 155.511 1601.61 155.23C1600.97 154.949 1599.64 154.956 1599.17 155.412C1598.69 155.869 1598.4 156.418 1597.56 156.346C1596.73 156.274 1596.25 156.018 1595.49 156.688C1594.72 157.358 1594.63 157.511 1593.78 157.216L1593.78 157.214C1592.62 156.741 1591.58 156.03 1590.74 155.133C1589.9 154.236 1589.28 153.173 1588.91 152.021C1589.11 151.584 1589.28 151.36 1589.73 151.392C1590.44 151.441 1590.36 152.119 1590.81 152.685C1591.19 153.146 1591.61 153.552 1592.42 153.552C1593.07 153.552 1593.76 150.963 1594.63 151.785C1596.08 153.153 1596.97 152.74 1597.47 152.84C1597.98 152.94 1599.03 153.48 1599.42 153.808C1599.81 154.135 1599.81 154.579 1600.81 154.122C1601.81 153.665 1603.45 152.96 1604.14 154.464Z" fill="#F74B4B"/>
<path d="M1600.29 150.754C1599.38 151.946 1598.41 150.685 1598.76 149.989C1598.81 149.914 1598.86 149.848 1598.93 149.796C1599 149.743 1599.08 149.704 1599.17 149.681C1599.26 149.658 1599.35 149.652 1599.44 149.663C1599.52 149.674 1599.61 149.702 1599.69 149.745C1600.18 150.017 1600.53 150.442 1600.29 150.754Z" fill="#F74B4B"/>
<path d="M1601.55 149.043C1601.64 148.573 1602.49 148.444 1602.61 149.043C1602.73 149.642 1602.28 149.748 1601.85 149.598C1601.73 149.56 1601.64 149.482 1601.58 149.378C1601.52 149.275 1601.51 149.155 1601.55 149.043Z" fill="#F74B4B"/>
<path d="M1601.41 151.702C1601.49 151.336 1602.15 151.236 1602.24 151.702C1602.34 152.168 1601.98 152.251 1601.65 152.134C1601.56 152.105 1601.48 152.043 1601.44 151.963C1601.4 151.883 1601.39 151.789 1601.41 151.702Z" fill="#F74B4B"/>
</g>
<g clip-path="url(#clip6_2267_7087)">
<path d="M1897.15 668.947C1892.27 665.87 1884.51 666.763 1883.38 669.872C1882.86 671.282 1884.57 674.399 1881.53 675.578C1878.48 676.757 1877.09 674.56 1875.57 674.41C1874.05 674.26 1865.95 676.17 1864.8 676.517C1862.75 677.136 1859.7 680.81 1862.06 684.587C1863.11 686.27 1865.73 691.401 1866.65 695.307C1867.56 699.213 1872.73 703.892 1874.64 704.646C1878.24 706.066 1883 707.617 1887.05 707.894C1891.11 708.17 1891 705.411 1894.63 707.676C1898.25 709.941 1899.46 712.25 1902.42 710.389C1905.38 708.527 1906.52 705.642 1906.06 702.886C1905.78 701.219 1907.69 700.334 1909.33 699.235C1913.2 696.631 1915.22 692.029 1910.25 683.43C1905.27 674.832 1901.05 675.336 1899.65 673.211C1898.24 671.086 1898.22 669.62 1897.15 668.947Z" fill="#524B70"/>
<path d="M1893.06 675.277C1894.13 675.88 1894.3 677.472 1893.29 678.37C1892.28 679.269 1889.62 679.282 1888.69 678.003C1887.76 676.724 1889.83 673.467 1893.06 675.277Z" fill="#493B5E"/>
<path d="M1901.63 684.125C1902.44 684.467 1902.75 685.397 1901.83 686.847C1900.91 688.298 1898.74 686.956 1898.4 685.903C1898.06 684.851 1899.97 683.425 1901.63 684.125Z" fill="#493B5E"/>
<path d="M1871.07 685.489C1869.76 686.257 1868.34 684.424 1868.3 683.65C1868.24 682.456 1869.62 681.478 1870.8 681.415C1871.98 681.352 1873.73 683.941 1871.07 685.489Z" fill="#493B5E"/>
<path d="M1884.04 686.044C1884.77 686.582 1884.48 687.763 1883.52 688.263C1882.56 688.762 1881.58 688.612 1880.9 687.227C1880.22 685.842 1882.51 684.916 1884.04 686.044Z" fill="#493B5E"/>
<path d="M1907.09 693.93C1907.82 694.468 1907.52 695.649 1906.57 696.149C1905.61 696.648 1904.89 696.956 1904.21 695.571C1903.54 694.186 1905.55 692.802 1907.09 693.93Z" fill="#493B5E"/>
<path d="M1897.29 705.647C1896.77 704.92 1897.44 703.884 1898.51 703.69C1899.58 703.497 1900.24 703.074 1900.43 704.591C1900.63 706.107 1898.39 707.171 1897.29 705.647Z" fill="#493B5E"/>
<path d="M1895.08 694.258C1895.8 695.833 1894.01 696.771 1892.97 696.89C1891.92 697.009 1890.04 698.118 1889.33 695.118C1888.62 692.117 1893.7 691.219 1895.08 694.258Z" fill="#493B5E"/>
<path d="M1875.44 698.221C1875.14 700.233 1877.56 701.554 1878.66 700.827C1879.76 700.1 1880.79 698.23 1878.96 696.929C1877.13 695.629 1875.63 696.944 1875.44 698.221Z" fill="#493B5E"/>
<path d="M1890.13 679.577C1889.31 679.451 1888.58 679.029 1888.08 678.399C1887.47 677.552 1887.72 676.179 1888.66 675.205C1889.59 674.257 1891.29 673.649 1893.32 674.785C1893.66 674.98 1893.94 675.248 1894.15 675.568C1894.36 675.887 1894.49 676.249 1894.53 676.625C1894.57 677.037 1894.52 677.454 1894.37 677.843C1894.22 678.232 1893.98 678.583 1893.67 678.868C1893 679.463 1891.79 679.769 1890.59 679.647C1890.43 679.63 1890.28 679.606 1890.13 679.577ZM1891.62 675.454C1891.26 675.375 1890.89 675.388 1890.53 675.493C1890.18 675.597 1889.87 675.789 1889.62 676.049C1889.06 676.624 1888.92 677.377 1889.15 677.693C1889.35 677.91 1889.59 678.087 1889.86 678.211C1890.13 678.335 1890.43 678.404 1890.73 678.413C1891.44 678.52 1892.18 678.358 1892.78 677.961C1892.95 677.808 1893.07 677.62 1893.15 677.412C1893.23 677.204 1893.26 676.981 1893.23 676.761C1893.22 676.577 1893.16 676.4 1893.06 676.242C1892.96 676.085 1892.82 675.952 1892.66 675.854C1892.34 675.667 1891.99 675.531 1891.62 675.454Z" fill="#473049"/>
<path d="M1900.15 688.099C1899.6 687.983 1899.1 687.743 1898.68 687.401C1898.25 687.058 1897.92 686.623 1897.71 686.132C1897.62 685.77 1897.64 685.391 1897.78 685.042C1897.91 684.692 1898.15 684.386 1898.46 684.163C1898.91 683.773 1899.46 683.514 1900.06 683.414C1900.65 683.315 1901.27 683.381 1901.83 683.603C1902.08 683.703 1902.3 683.852 1902.48 684.041C1902.66 684.23 1902.8 684.454 1902.88 684.698C1903.04 685.184 1903.08 686.015 1902.32 687.21C1902.13 687.534 1901.83 687.796 1901.48 687.96C1901.13 688.124 1900.73 688.183 1900.35 688.13C1900.28 688.123 1900.21 688.112 1900.15 688.099ZM1900.97 684.635C1900.68 684.586 1900.38 684.601 1900.09 684.679C1899.81 684.758 1899.54 684.896 1899.32 685.086C1899.21 685.161 1899.11 685.262 1899.05 685.38C1898.99 685.498 1898.95 685.629 1898.95 685.762C1899.1 686.054 1899.32 686.308 1899.59 686.505C1899.86 686.703 1900.17 686.837 1900.5 686.899C1900.64 686.925 1900.79 686.906 1900.91 686.847C1901.04 686.788 1901.14 686.69 1901.21 686.57C1901.59 685.956 1901.75 685.411 1901.64 685.074C1901.61 684.997 1901.57 684.927 1901.51 684.868C1901.45 684.81 1901.38 684.764 1901.3 684.736C1901.2 684.691 1901.09 684.657 1900.97 684.635Z" fill="#473049"/>
<path d="M1869.95 686.297C1869.74 686.254 1869.53 686.182 1869.34 686.085C1868.88 685.841 1868.48 685.502 1868.18 685.094C1867.88 684.685 1867.67 684.217 1867.58 683.723C1867.5 682.172 1869.16 680.921 1870.7 680.838C1871.59 680.791 1872.56 681.592 1872.91 682.662C1873.34 683.97 1872.75 685.24 1871.34 686.061C1870.93 686.308 1870.43 686.393 1869.95 686.297ZM1870.83 682.083C1870.81 682.079 1870.79 682.077 1870.77 682.078C1869.88 682.126 1868.84 682.867 1868.88 683.664C1869.04 684.221 1869.42 684.697 1869.95 684.99C1870.05 685.059 1870.18 685.098 1870.3 685.1C1870.43 685.103 1870.56 685.07 1870.67 685.005C1871.56 684.484 1871.92 683.784 1871.67 683.034C1871.62 682.824 1871.51 682.629 1871.37 682.464C1871.22 682.299 1871.03 682.168 1870.83 682.081L1870.83 682.083Z" fill="#473049"/>
<path d="M1882.08 689.146C1882 689.131 1881.93 689.113 1881.86 689.09C1881.49 688.952 1881.16 688.741 1880.88 688.473C1880.6 688.204 1880.39 687.884 1880.25 687.531C1880.06 687.188 1880.02 686.795 1880.11 686.421C1880.2 686.047 1880.43 685.715 1880.75 685.485C1881.28 685.125 1881.92 684.941 1882.58 684.961C1883.23 684.981 1883.86 685.204 1884.37 685.596C1884.6 685.767 1884.78 685.991 1884.89 686.247C1885.01 686.503 1885.05 686.782 1885.02 687.059C1884.98 687.433 1884.85 687.792 1884.63 688.104C1884.41 688.416 1884.11 688.672 1883.76 688.849C1883.26 689.138 1882.66 689.243 1882.08 689.146ZM1882.8 686.237C1882.59 686.188 1882.37 686.182 1882.15 686.219C1881.94 686.256 1881.74 686.336 1881.56 686.453C1881.46 686.51 1881.4 686.6 1881.37 686.704C1881.34 686.808 1881.36 686.917 1881.42 687.008C1881.57 687.4 1881.87 687.723 1882.26 687.913C1882.59 687.972 1882.93 687.905 1883.2 687.727C1883.48 687.549 1883.67 687.275 1883.73 686.964C1883.74 686.892 1883.73 686.819 1883.71 686.752C1883.68 686.685 1883.63 686.625 1883.58 686.579C1883.35 686.41 1883.08 686.293 1882.8 686.237Z" fill="#473049"/>
<path d="M1904.99 697.205C1904.94 697.194 1904.88 697.179 1904.82 697.162C1904.53 697.045 1904.26 696.87 1904.04 696.649C1903.83 696.427 1903.66 696.164 1903.55 695.876C1903.35 695.466 1903.31 695.002 1903.42 694.563C1903.54 694.125 1903.81 693.738 1904.2 693.47C1904.65 693.122 1905.22 692.934 1905.81 692.937C1906.39 692.939 1906.96 693.132 1907.41 693.484C1907.64 693.655 1907.82 693.879 1907.94 694.135C1908.05 694.391 1908.1 694.67 1908.07 694.946C1908.03 695.32 1907.89 695.679 1907.67 695.992C1907.45 696.304 1907.16 696.56 1906.81 696.737C1906.29 697.006 1905.66 697.336 1904.99 697.205ZM1906.04 694.204C1905.86 694.169 1905.68 694.171 1905.5 694.211C1905.32 694.251 1905.15 694.328 1905.01 694.437C1904.86 694.536 1904.75 694.681 1904.7 694.848C1904.65 695.015 1904.66 695.193 1904.73 695.353C1904.98 695.859 1905.16 695.963 1905.23 695.984C1905.43 696.045 1905.9 695.797 1906.19 695.649C1906.35 695.571 1906.48 695.458 1906.58 695.318C1906.69 695.179 1906.75 695.018 1906.78 694.849C1906.79 694.778 1906.78 694.705 1906.75 694.638C1906.73 694.57 1906.68 694.511 1906.62 694.465C1906.45 694.337 1906.25 694.248 1906.04 694.205L1906.04 694.204Z" fill="#473049"/>
<path d="M1898.17 707.008C1897.56 706.882 1897.03 706.534 1896.69 706.039C1896.53 705.809 1896.43 705.543 1896.4 705.266C1896.38 704.989 1896.42 704.71 1896.54 704.456C1896.7 704.112 1896.95 703.81 1897.26 703.578C1897.57 703.346 1897.93 703.19 1898.32 703.124C1898.47 703.097 1898.61 703.065 1898.74 703.035C1899.27 702.915 1899.82 702.79 1900.32 703.118C1900.53 703.299 1900.7 703.521 1900.82 703.769C1900.94 704.017 1901.01 704.285 1901.01 704.558C1901.07 705.059 1900.94 705.562 1900.66 705.988C1900.38 706.413 1899.95 706.735 1899.45 706.902C1899.04 707.053 1898.6 707.09 1898.17 707.008ZM1899.58 704.148C1899.4 704.164 1899.22 704.195 1899.04 704.242C1898.89 704.275 1898.73 704.312 1898.56 704.342C1898.39 704.37 1898.22 704.437 1898.08 704.54C1897.94 704.642 1897.82 704.776 1897.74 704.93C1897.71 704.994 1897.69 705.066 1897.7 705.138C1897.7 705.21 1897.72 705.28 1897.77 705.34C1897.89 705.538 1898.08 705.687 1898.3 705.761C1898.53 705.835 1898.78 705.828 1899 705.742C1899.22 705.671 1899.41 705.531 1899.55 705.344C1899.68 705.157 1899.74 704.934 1899.72 704.709C1899.71 704.515 1899.66 704.325 1899.58 704.147L1899.58 704.148Z" fill="#473049"/>
<path d="M1890.76 697.762C1890.52 697.715 1890.29 697.628 1890.07 697.505C1889.41 697.116 1888.96 696.38 1888.69 695.255C1888.34 693.743 1889.14 692.444 1890.75 691.945C1891.69 691.641 1892.72 691.684 1893.63 692.067C1894.55 692.449 1895.27 693.144 1895.68 694.014C1895.83 694.327 1895.91 694.672 1895.89 695.019C1895.88 695.366 1895.78 695.705 1895.6 696.006C1895.31 696.418 1894.93 696.765 1894.49 697.024C1894.05 697.283 1893.56 697.447 1893.04 697.506C1892.87 697.533 1892.7 697.569 1892.53 697.614C1891.96 697.79 1891.35 697.841 1890.76 697.762ZM1892.6 693.051C1892.12 692.956 1891.62 692.981 1891.15 693.123C1890.95 693.17 1890.75 693.256 1890.58 693.375C1890.41 693.494 1890.26 693.644 1890.15 693.816C1890.04 693.989 1889.97 694.181 1889.94 694.381C1889.9 694.581 1889.91 694.785 1889.96 694.982C1890.14 695.741 1890.42 696.248 1890.76 696.446C1891.14 696.67 1891.68 696.538 1892.21 696.41C1892.43 696.351 1892.66 696.305 1892.89 696.274C1893.2 696.237 1893.5 696.139 1893.78 695.986C1894.05 695.834 1894.29 695.629 1894.47 695.386C1894.55 695.252 1894.59 695.1 1894.6 694.946C1894.6 694.792 1894.56 694.639 1894.48 694.503C1894.32 694.132 1894.06 693.805 1893.73 693.552C1893.41 693.298 1893.02 693.126 1892.6 693.051Z" fill="#473049"/>
<path d="M1877.39 701.592C1877.03 701.518 1876.68 701.384 1876.37 701.195C1875.82 700.888 1875.38 700.434 1875.1 699.89C1874.82 699.345 1874.71 698.734 1874.79 698.132C1874.86 697.66 1875.06 697.212 1875.36 696.83C1875.66 696.449 1876.06 696.147 1876.51 695.954C1876.99 695.784 1877.5 695.738 1878 695.822C1878.5 695.906 1878.97 696.116 1879.35 696.431C1879.74 696.677 1880.06 697.012 1880.28 697.406C1880.5 697.799 1880.62 698.238 1880.61 698.684C1880.57 699.211 1880.41 699.723 1880.14 700.182C1879.86 700.641 1879.48 701.035 1879.03 701.335C1878.79 701.481 1878.52 701.579 1878.24 701.623C1877.96 701.667 1877.67 701.657 1877.39 701.592ZM1877.74 697.039C1877.5 696.988 1877.24 697.008 1877.01 697.098C1876.76 697.211 1876.55 697.38 1876.39 697.591C1876.22 697.802 1876.12 698.048 1876.08 698.308C1876.04 698.67 1876.1 699.037 1876.28 699.363C1876.45 699.689 1876.72 699.959 1877.05 700.141C1877.22 700.269 1877.43 700.353 1877.64 700.383C1877.86 700.414 1878.08 700.39 1878.29 700.315C1878.58 700.128 1878.82 699.883 1878.99 699.597C1879.17 699.311 1879.28 698.992 1879.31 698.661C1879.31 698.413 1879.24 698.17 1879.11 697.955C1878.98 697.739 1878.8 697.557 1878.57 697.425C1878.33 697.24 1878.04 697.109 1877.74 697.039Z" fill="#473049"/>
</g>
<g clip-path="url(#clip7_2267_7087)" filter="url(#filter2_dddddd_2267_7087)">
<path d="M1578.83 740.487C1578.83 747.557 1572.82 753.288 1565.41 753.288C1558 753.288 1551.99 747.557 1551.99 740.487C1551.99 733.418 1558 727.686 1565.41 727.686C1572.82 727.686 1578.83 733.418 1578.83 740.487Z" fill="#CB7A6F"/>
<path d="M1579.4 779.951C1572.79 782.889 1565.72 784.368 1558.64 784.368C1552.94 784.368 1547.24 783.416 1541.73 781.499C1529.36 777.198 1519.5 768.563 1513.94 757.183C1513.58 756.438 1513.9 755.512 1514.7 755.209C1519.89 753.242 1536.49 774.094 1569.84 766.439C1589.72 761.874 1589.49 742.783 1585.36 734.327C1578.62 720.509 1559.74 721.206 1552.37 732.985C1549.24 737.989 1551.7 748.043 1556.21 749.613C1560.72 751.182 1562.28 750.874 1566.99 749.947C1567.07 749.931 1567.14 749.916 1567.22 749.898C1571.75 749.088 1575.18 745.297 1575.18 740.741C1575.18 735.594 1570.8 731.423 1565.41 731.423C1564.38 731.423 1563.39 731.573 1562.46 731.856C1562.45 731.858 1562.43 731.858 1562.41 731.86C1561.55 731.933 1560.71 731.884 1560.34 731.141C1559.98 730.398 1560.32 729.514 1561.1 729.17C1564.5 727.656 1568.32 727.499 1571.85 728.727C1575.38 729.956 1578.2 732.42 1579.78 735.669C1581.72 739.64 1581.92 744.092 1580.35 748.208C1578.78 752.323 1575.62 755.607 1571.45 757.456C1566.34 759.724 1560.61 759.96 1555.32 758.119C1550.03 756.276 1545.8 752.579 1543.42 747.705C1540.49 741.703 1540.19 734.972 1542.56 728.75C1544.94 722.531 1549.72 717.566 1556.01 714.773C1572.05 707.646 1591.18 714.3 1598.65 729.603C1607.9 748.546 1599.26 771.133 1579.4 779.951Z" fill="#3F22A8"/>
<path d="M1617.54 732.852C1616.71 733.098 1615.84 732.66 1615.58 731.878C1611.91 720.652 1584.09 707.844 1564.86 713.389C1555.5 716.089 1550.72 717.002 1546.18 725.264C1541.64 733.527 1542.01 737.921 1543.55 744.07C1545.35 751.251 1554.45 759.615 1566.38 757.493C1572.38 756.425 1582.36 749.613 1579.14 738.032C1577.91 733.602 1573.78 730.478 1568.52 729.995C1565.81 729.746 1563.87 731.276 1562.41 731.86C1562.38 731.874 1562.34 731.888 1562.31 731.902C1558.43 733.139 1555.64 736.629 1555.64 740.741C1555.64 745.888 1560.02 750.059 1565.41 750.059C1565.93 750.059 1566.45 750.019 1566.95 749.943C1566.96 749.946 1566.98 749.946 1566.99 749.947C1567.84 750.04 1568.68 750.139 1568.94 750.923C1569.2 751.705 1568.74 752.539 1567.92 752.782C1564.33 753.849 1560.52 753.521 1557.2 751.858C1553.87 750.193 1551.42 747.394 1550.3 743.971C1548.93 739.79 1549.36 735.352 1551.49 731.473C1553.62 727.592 1557.21 724.738 1561.59 723.433C1566.97 721.832 1572.68 722.325 1577.67 724.821C1582.67 727.317 1586.34 731.518 1588.02 736.651C1590.09 742.972 1589.45 749.68 1586.23 755.546C1583 761.409 1577.58 765.725 1570.95 767.696C1567.8 768.636 1564.57 769.101 1561.36 769.101C1556.24 769.101 1551.16 767.917 1546.49 765.586C1538.9 761.789 1533.31 755.399 1530.76 747.593C1527.6 737.929 1528.57 727.672 1533.5 718.708C1538.43 709.742 1546.72 703.145 1556.85 700.13C1569.41 696.39 1582.75 697.541 1594.4 703.37C1606.06 709.2 1614.64 719.009 1618.56 730.993C1618.81 731.775 1618.36 732.609 1617.54 732.852Z" fill="#7925A5"/>
<path d="M1561.35 769.101C1556.23 769.101 1551.15 767.918 1546.49 765.586C1538.9 761.789 1533.31 755.398 1530.75 747.593C1527.59 737.93 1528.57 727.672 1533.49 718.707C1538.42 709.743 1546.71 703.145 1556.84 700.129C1569.41 696.39 1582.74 697.541 1594.4 703.37C1606.05 709.199 1614.63 719.009 1618.55 730.993C1618.81 731.775 1618.35 732.608 1617.53 732.852C1616.71 733.097 1615.84 732.66 1615.58 731.878C1611.91 720.651 1603.87 711.461 1592.95 706C1582.03 700.538 1569.54 699.461 1557.77 702.965C1548.43 705.743 1540.79 711.824 1536.25 720.086C1531.71 728.348 1530.81 737.803 1533.73 746.708C1536.03 753.757 1541.08 759.527 1547.93 762.956C1554.79 766.385 1562.63 767.061 1570.02 764.862C1575.85 763.125 1580.63 759.328 1583.47 754.165C1586.3 749.004 1586.86 743.098 1585.04 737.535C1583.61 733.16 1580.48 729.579 1576.22 727.451C1571.97 725.323 1567.1 724.903 1562.51 726.268C1558.92 727.337 1555.99 729.674 1554.24 732.851C1552.49 736.028 1552.15 739.663 1553.27 743.088C1554.14 745.751 1556.05 747.931 1558.64 749.228C1561.23 750.523 1564.19 750.779 1566.99 749.948C1567.81 749.704 1568.68 750.14 1568.94 750.923C1569.19 751.706 1568.73 752.538 1567.91 752.782C1564.33 753.85 1560.52 753.521 1557.19 751.858C1553.87 750.194 1551.42 747.393 1550.3 743.973C1548.93 739.791 1549.35 735.352 1551.48 731.473C1553.62 727.593 1557.2 724.738 1561.59 723.433C1566.97 721.832 1572.68 722.325 1577.67 724.821C1582.66 727.318 1586.34 731.519 1588.01 736.651C1590.08 742.971 1589.45 749.681 1586.22 755.545C1583 761.409 1577.58 765.725 1570.95 767.697C1567.79 768.635 1564.57 769.101 1561.35 769.101Z" fill="#AA27FF"/>
<path d="M1558.64 784.368C1552.94 784.368 1547.24 783.415 1541.73 781.499C1529.37 777.199 1519.5 768.562 1513.94 757.182C1513.58 756.438 1513.92 755.556 1514.7 755.209C1515.48 754.863 1516.4 755.186 1516.76 755.929C1521.97 766.59 1531.21 774.68 1542.8 778.709C1554.38 782.738 1566.91 782.223 1578.09 777.26C1586.96 773.322 1593.68 766.327 1597.03 757.563C1600.38 748.798 1599.96 739.314 1595.83 730.857C1589.08 717.038 1571.81 711.03 1557.33 717.464C1551.79 719.923 1547.58 724.293 1545.49 729.768C1543.4 735.244 1543.67 741.168 1546.24 746.451C1548.27 750.606 1551.87 753.759 1556.39 755.329C1560.9 756.899 1565.79 756.698 1570.14 754.764C1573.55 753.25 1576.14 750.561 1577.43 747.191C1578.71 743.821 1578.55 740.174 1576.96 736.922C1575.73 734.392 1573.53 732.473 1570.79 731.517C1568.04 730.561 1565.06 730.683 1562.41 731.861C1561.63 732.207 1560.71 731.885 1560.34 731.141C1559.98 730.398 1560.32 729.515 1561.1 729.169C1564.5 727.656 1568.32 727.499 1571.85 728.727C1575.38 729.954 1578.2 732.42 1579.78 735.669C1581.72 739.639 1581.92 744.092 1580.35 748.208C1578.78 752.322 1575.62 755.607 1571.45 757.455C1566.35 759.725 1560.62 759.96 1555.32 758.118C1550.03 756.277 1545.8 752.579 1543.42 747.705C1540.49 741.703 1540.19 734.971 1542.57 728.751C1544.94 722.531 1549.72 717.566 1556.01 714.772C1572.05 707.648 1591.18 714.3 1598.65 729.603C1607.9 748.546 1599.26 771.133 1579.4 779.951C1572.79 782.89 1565.72 784.368 1558.64 784.368Z" fill="#6831FF"/>
<path d="M1571.87 740.487C1571.87 743.889 1568.98 746.647 1565.41 746.647C1561.84 746.647 1558.95 743.889 1558.95 740.487C1558.95 737.085 1561.84 734.327 1565.41 734.327C1568.98 734.327 1571.87 737.085 1571.87 740.487Z" fill="#FFF75B"/>
<path d="M1563.2 767.609C1563.2 769.249 1561.8 770.578 1560.08 770.578C1558.36 770.578 1556.97 769.249 1556.97 767.609C1556.97 765.969 1558.36 764.64 1560.08 764.64C1561.8 764.64 1563.2 765.969 1563.2 767.609Z" fill="white"/>
<path d="M1602.48 733.539C1602.48 735.801 1600.56 737.636 1598.18 737.636C1595.81 737.636 1593.89 735.801 1593.89 733.539C1593.89 731.276 1595.81 729.442 1598.18 729.442C1600.56 729.442 1602.48 731.276 1602.48 733.539Z" fill="#FF7AE5"/>
<path d="M1537.73 721.662C1537.73 723.925 1535.81 725.759 1533.44 725.759C1531.07 725.759 1529.14 723.925 1529.14 721.662C1529.14 719.4 1531.07 717.566 1533.44 717.566C1535.81 717.566 1537.73 719.4 1537.73 721.662Z" fill="#FFF75B"/>
<path d="M1603.29 776.645H1602.37V775.77C1602.37 774.95 1601.67 774.286 1600.81 774.286C1599.95 774.286 1599.26 774.95 1599.26 775.77V776.645H1598.34C1597.48 776.645 1596.79 777.309 1596.79 778.129C1596.79 778.95 1597.48 779.614 1598.34 779.614H1599.26V780.488C1599.26 781.309 1599.95 781.973 1600.81 781.973C1601.67 781.973 1602.37 781.309 1602.37 780.488V779.614H1603.29C1604.15 779.614 1604.84 778.95 1604.84 778.129C1604.84 777.309 1604.15 776.645 1603.29 776.645Z" fill="#FFF75B"/>
<path d="M1596.36 711.905H1595.45V711.03C1595.45 710.209 1594.75 709.545 1593.89 709.545C1593.03 709.545 1592.33 710.209 1592.33 711.03V711.905H1591.42C1590.56 711.905 1589.86 712.569 1589.86 713.389C1589.86 714.209 1590.56 714.873 1591.42 714.873H1592.33V715.748C1592.33 716.569 1593.03 717.233 1593.89 717.233C1594.75 717.233 1595.45 716.569 1595.45 715.748V714.873H1596.36C1597.22 714.873 1597.92 714.209 1597.92 713.389C1597.92 712.569 1597.22 711.905 1596.36 711.905Z" fill="white"/>
<path d="M1530.5 707.794C1529.64 707.794 1528.94 707.13 1528.94 706.309V701.591C1528.94 700.77 1529.64 700.106 1530.5 700.106C1531.36 700.106 1532.05 700.77 1532.05 701.591V706.309C1532.05 707.13 1531.36 707.794 1530.5 707.794Z" fill="#FF73B1"/>
<path d="M1532.97 705.435H1528.02C1527.16 705.435 1526.47 704.771 1526.47 703.951C1526.47 703.13 1527.16 702.466 1528.02 702.466H1532.97C1533.83 702.466 1534.53 703.13 1534.53 703.951C1534.53 704.771 1533.83 705.435 1532.97 705.435Z" fill="#FF73B1"/>
<path d="M1531.62 761.974H1530.7V761.1C1530.7 760.28 1530 759.615 1529.15 759.615C1528.29 759.615 1527.59 760.28 1527.59 761.1V761.974H1526.67C1525.81 761.974 1525.12 762.639 1525.12 763.459C1525.12 764.279 1525.81 764.944 1526.67 764.944H1527.59V765.818C1527.59 766.638 1528.29 767.303 1529.15 767.303C1530 767.303 1530.7 766.638 1530.7 765.818V764.944H1531.62C1532.48 764.944 1533.17 764.279 1533.17 763.459C1533.17 762.639 1532.48 761.974 1531.62 761.974Z" fill="white"/>
<path d="M1574.4 749.12C1574.4 750.105 1573.57 750.902 1572.54 750.902C1571.5 750.902 1570.67 750.105 1570.67 749.12C1570.67 748.136 1571.5 747.339 1572.54 747.339C1573.57 747.339 1574.4 748.136 1574.4 749.12Z" fill="white"/>
<path d="M1567.28 718.786C1567.28 719.769 1566.44 720.567 1565.41 720.567C1564.38 720.567 1563.54 719.769 1563.54 718.786C1563.54 717.802 1564.38 717.004 1565.41 717.004C1566.44 717.004 1567.28 717.802 1567.28 718.786Z" fill="white"/>
<path d="M1580.7 770.579C1580.7 771.563 1579.86 772.36 1578.83 772.36C1577.8 772.36 1576.96 771.563 1576.96 770.579C1576.96 769.595 1577.8 768.797 1578.83 768.797C1579.86 768.797 1580.7 769.595 1580.7 770.579Z" fill="white"/>
<path d="M1525.49 737.636C1525.49 738.619 1524.66 739.417 1523.63 739.417C1522.6 739.417 1521.76 738.619 1521.76 737.636C1521.76 736.652 1522.6 735.854 1523.63 735.854C1524.66 735.854 1525.49 736.652 1525.49 737.636Z" fill="#6831FF"/>
<path d="M1611.41 739.417C1611.41 740.401 1610.58 741.199 1609.54 741.199C1608.51 741.199 1607.68 740.401 1607.68 739.417C1607.68 738.433 1608.51 737.636 1609.54 737.636C1610.58 737.636 1611.41 738.433 1611.41 739.417Z" fill="black"/>
</g>
<g opacity="0.8" clip-path="url(#clip8_2267_7087)" filter="url(#filter3_dddddd_2267_7087)">
<path d="M272.37 225.238C274.714 231.234 273.352 238.246 268.295 243.07C263.238 247.895 255.897 249.184 249.611 246.947C253.43 244.086 269.37 228.881 272.37 225.238Z" fill="#FFC96F"/>
<path d="M270.157 227.729C271.723 232.191 270.454 237.523 266.471 241.322C262.489 245.121 256.889 246.322 252.221 244.838C255.2 242.553 267.761 230.57 270.157 227.729Z" fill="#FFB234"/>
<path d="M267.579 230.697C267.702 233.725 266.555 236.781 264.129 239.096C261.713 241.4 258.498 242.504 255.324 242.387C257.402 240.619 265.736 232.67 267.579 230.697Z" fill="#275E87"/>
<path d="M280.815 207.269C283.078 209.428 279.505 216.596 272.38 225.238C269.37 228.881 265.725 232.797 261.63 236.703C257.535 240.609 253.43 244.086 249.611 246.947C240.551 253.744 233.036 257.162 230.774 254.994C228.767 253.08 231.347 247.23 236.916 239.916C238.206 238.226 238.739 236.107 238.36 234.056C237.398 228.822 239.036 223.246 243.274 219.203C247.512 215.16 253.358 213.598 258.845 214.515C261.006 214.877 263.217 214.359 264.988 213.139C272.676 207.816 278.799 205.355 280.815 207.269Z" fill="#FFDCA4"/>
<path d="M277.479 210.453C279.198 212.094 276.27 217.738 270.507 224.73C267.732 228.09 264.292 231.791 260.382 235.512C256.471 239.232 252.601 242.523 249.079 245.17C241.749 250.668 235.832 253.461 234.112 251.82C232.648 250.424 234.542 246.137 238.688 240.59C240.029 238.793 240.469 236.547 239.978 234.398C238.842 229.447 240.285 224.057 244.329 220.199C248.373 216.342 254.024 214.955 259.215 216.049C261.467 216.518 263.832 216.098 265.705 214.818C271.52 210.863 276.015 209.057 277.479 210.453Z" fill="#FFC96F"/>
<path d="M274.14 213.637C275.307 214.75 273.034 218.881 268.632 224.213C266.093 227.299 262.838 230.775 259.132 234.32C255.426 237.865 251.771 240.961 248.536 243.383C242.946 247.582 238.615 249.75 237.448 248.637C236.537 247.767 237.735 245.033 240.417 241.332C241.789 239.428 242.199 237.045 241.564 234.818C240.233 230.121 241.502 224.887 245.372 221.195C249.242 217.504 254.719 216.293 259.644 217.562C261.978 218.168 264.476 217.777 266.472 216.469C270.362 213.91 273.229 212.758 274.14 213.637Z" fill="#FFB234"/>
<path d="M264.139 223.178C265.203 224.193 266.022 225.355 266.596 226.596C264.436 229.037 261.917 231.664 259.132 234.311C256.358 236.957 253.604 239.369 251.045 241.43C249.745 240.883 248.526 240.102 247.462 239.086C246.397 238.07 245.578 236.908 245.004 235.668C243.1 231.547 243.919 226.557 247.462 223.178C251.004 219.799 256.235 219.018 260.555 220.834C261.845 221.381 263.064 222.162 264.139 223.178Z" fill="#275E87"/>
</g>
<g clip-path="url(#clip9_2267_7087)">
<path d="M233.382 766.138L217.551 687.187L158.934 731.274L182.412 760.123L125.402 810.228C124.267 811.224 123.528 812.563 123.308 814.019C123.089 815.474 123.403 816.958 124.198 818.218C124.993 819.478 126.22 820.438 127.671 820.935C129.122 821.432 130.709 821.436 132.162 820.946L217.717 792.162C223.16 790.329 227.734 786.696 230.608 781.921C233.482 777.146 234.467 771.546 233.382 766.138Z" fill="#EF5361"/>
<path d="M69.815 610.112L152.582 625.211L106.364 681.128L76.1214 658.733L23.5942 713.119C22.55 714.2 21.1468 714.904 19.6214 715.112C18.0961 715.32 16.5421 715.02 15.2219 714.262C13.9016 713.504 12.896 712.335 12.3749 710.952C11.8537 709.569 11.8489 708.056 12.3613 706.67L42.5336 625.06C44.4541 619.867 48.2629 615.503 53.2686 612.76C58.2743 610.018 64.145 609.078 69.815 610.112Z" fill="#EF5361"/>
<path d="M253.932 531.957C222.923 541.077 185.228 561.246 149.799 604.38C108.956 654.105 86.8763 682.627 75.043 698.643L140.778 761.347C157.568 750.06 187.468 728.998 239.597 690.038C284.813 656.242 305.96 620.286 315.526 590.708L253.932 531.957Z" fill="#DBE2EB"/>
<path d="M239.605 690.045C187.471 728.995 157.581 750.055 140.781 761.357L128.746 749.877C145.551 738.587 175.456 717.534 227.57 678.567C272.796 644.774 293.935 608.815 303.498 579.247L315.513 590.71C305.971 620.293 284.811 656.235 239.605 690.045Z" fill="#C8CBD2"/>
<path d="M322.486 535.528C322.27 532.889 321.074 530.411 319.113 528.538C317.152 526.666 314.554 525.522 311.788 525.314C288.798 523.883 265.756 527.226 244.252 535.112L312.215 599.941C320.481 579.431 323.985 557.455 322.486 535.528Z" fill="#EF5361"/>
<path d="M312.222 599.931L300.207 588.47C308.298 568.32 311.829 546.764 310.57 525.22C310.983 525.256 311.395 525.292 311.791 525.309C314.555 525.518 317.151 526.661 319.112 528.532C321.073 530.403 322.271 532.879 322.491 535.516C323.979 557.443 320.476 579.418 312.222 599.931Z" fill="#DA2A47"/>
<path d="M82.3312 688.922C74.4709 699.269 69.5469 706.117 66.4972 710.535C65.1072 712.547 64.4888 714.956 64.7467 717.353C65.0046 719.75 66.1229 721.989 67.9123 723.69L114.524 768.153C116.308 769.859 118.655 770.925 121.168 771.17C123.681 771.416 126.205 770.826 128.315 769.5C132.946 766.591 140.12 761.894 150.972 754.396L82.3312 688.922Z" fill="#EF5361"/>
<path d="M150.975 754.389C140.106 761.894 132.934 766.586 128.315 769.486C126.208 770.82 123.68 771.416 121.164 771.171C118.647 770.927 116.298 769.856 114.517 768.143L102.502 756.682C104.287 758.388 106.636 759.454 109.15 759.699C111.665 759.943 114.19 759.352 116.3 758.025C120.919 755.125 128.091 750.433 138.96 742.928L150.975 754.389Z" fill="#DA2A47"/>
<path d="M238.705 648.949C256.6 641.874 265.093 622.301 257.676 605.231C250.258 588.162 229.739 580.06 211.844 587.135C193.95 594.211 185.456 613.784 192.874 630.853C200.291 647.923 220.81 656.025 238.705 648.949Z" fill="#43567C"/>
<path d="M250.026 641.747C246.77 644.855 242.904 647.32 238.648 649.002C234.393 650.684 229.832 651.55 225.226 651.55C220.619 651.55 216.058 650.684 211.803 649.002C207.548 647.32 203.681 644.855 200.425 641.747C199.116 640.491 197.905 639.145 196.803 637.719C203.559 642.384 211.838 644.6 220.152 643.969C228.467 643.337 236.274 639.9 242.172 634.274C248.07 628.648 251.673 621.202 252.335 613.27C252.996 605.339 250.674 597.442 245.783 590.997C247.277 592.049 248.688 593.204 250.006 594.452C256.582 600.722 260.279 609.227 260.283 618.096C260.286 626.965 256.597 635.472 250.026 641.747Z" fill="#384868"/>
</g>
<g filter="url(#filter4_dddddd_2267_7087)">
<path d="M84.5538 746.099C84.5538 746.099 109.492 765.13 94.1723 789.941C78.8528 814.751 57.4767 809.311 57.4767 809.311C57.4767 809.311 64.6029 799.568 63.5308 796.51C63.5308 796.51 37.4048 826.417 6.28906 803.76C6.28906 803.76 19.3534 799.002 22.0828 788.694C24.8122 778.386 30.0414 768.643 36.5723 763.999C34.6919 765.709 32.3214 766.848 29.7616 767.271C27.2018 767.694 24.5678 767.383 22.1938 766.376C24.4316 765.213 26.2521 763.436 27.4195 761.275C28.587 759.115 29.0478 756.669 28.7423 754.256C27.6677 745.759 61.031 723.215 84.5538 746.099Z" fill="#EF5361"/>
</g>
<g filter="url(#filter5_dddddd_2267_7087)">
<path d="M87.4794 748.81C87.4794 748.81 75.8202 734.909 60.6218 743.449C45.4234 751.989 48.7658 763.902 48.7658 763.902C48.7658 763.902 54.7341 759.932 56.6084 760.534C56.6084 760.534 38.2871 775.096 52.1662 792.44C52.1662 792.44 55.0823 785.159 61.3962 783.636C67.7102 782.113 73.6785 779.201 76.5315 775.561C75.4859 776.609 74.7894 777.929 74.5299 779.355C74.2704 780.781 74.4596 782.248 75.0735 783.571C75.7879 782.325 76.8774 781.313 78.2012 780.664C79.525 780.015 81.0223 779.759 82.4999 779.93C87.6862 780.517 101.497 761.917 87.4794 748.81Z" fill="#FFC943"/>
</g>
<g clip-path="url(#clip10_2267_7087)">
<path d="M102.199 55.2257C101.276 62.5551 106.986 70.7863 111.513 70.2231C113.567 69.9677 116.418 66.189 119.685 68.927C122.952 71.665 121.052 74.5353 121.767 76.3387C122.482 78.1421 129.656 86.1592 130.766 87.2456C132.747 89.1908 139.112 90.4564 142.4 85.5584C143.864 83.3764 148.672 77.3752 152.972 74.0241C157.271 70.6729 160.01 62.068 159.813 59.4655C159.44 54.5615 158.542 48.2716 156.483 43.5348C154.423 38.7981 151.064 40.5507 151.724 35.1189C152.384 29.687 154.532 26.954 150.468 24.7158C146.403 22.4776 142.154 22.9108 139.01 25.0625C137.107 26.3642 134.877 24.7335 132.544 23.5374C127.016 20.7041 120.111 21.1542 112.397 31.8646C104.684 42.5749 107.811 47.0393 106.008 49.8832C104.205 52.7271 102.401 53.6222 102.199 55.2257Z" fill="#524B70"/>
<path d="M112.477 56.0938C112.587 54.5217 114.466 53.3967 116.177 53.9999C117.889 54.6031 119.485 57.604 118.45 59.4119C117.415 61.2197 112.146 60.8075 112.477 56.0938Z" fill="#493B5E"/>
<path d="M118.366 41.174C118.309 40.0564 119.282 39.1622 121.625 39.3385C123.968 39.5147 123.588 42.7561 122.487 43.767C121.385 44.7779 118.485 43.4679 118.366 41.174Z" fill="#493B5E"/>
<path d="M138.173 74.8478C139.907 75.8805 138.472 78.5645 137.537 79.0702C136.094 79.8474 134.059 78.8632 133.282 77.5715C132.505 76.2799 134.677 72.7665 138.173 74.8478Z" fill="#493B5E"/>
<path d="M131.174 59.887C131.408 58.7452 133.048 58.3781 134.234 59.1614C135.421 59.9446 135.819 61.1467 134.502 62.73C133.185 64.3133 130.682 62.2836 131.174 59.887Z" fill="#493B5E"/>
<path d="M127.293 29.2081C127.528 28.0662 129.167 27.6992 130.353 28.4825C131.54 29.2657 132.349 29.8975 131.031 31.4797C129.714 33.0619 126.802 31.6072 127.293 29.2081Z" fill="#493B5E"/>
<path d="M147.625 33.3119C147.033 34.3296 145.355 34.1952 144.48 33.1029C143.606 32.0106 142.691 31.5153 144.455 30.3967C146.22 29.2781 148.868 31.1762 147.625 33.3119Z" fill="#493B5E"/>
<path d="M134.815 42.5604C136.345 40.8214 138.567 42.2808 139.333 43.3873C140.098 44.4938 142.593 45.9646 139.291 48.542C135.99 51.1194 131.863 45.9159 134.815 42.5604Z" fill="#493B5E"/>
<path d="M151.376 62.3776C154.047 61.5216 154.253 58.0098 152.697 57.1969C151.142 56.384 148.212 56.3305 147.684 59.1645C147.155 61.9986 149.68 62.9215 151.376 62.3776Z" fill="#493B5E"/>
<path d="M119.547 56.8524C119.873 57.8468 119.784 58.9232 119.297 59.8562C118.612 61.054 116.761 61.5859 114.992 61.0947C113.27 60.6161 111.504 59.0491 111.711 56.0905C111.752 55.5932 111.916 55.1122 112.188 54.6862C112.46 54.2603 112.833 53.9015 113.278 53.6388C113.76 53.3403 114.308 53.1527 114.88 53.0906C115.451 53.0285 116.029 53.0937 116.569 53.281C117.703 53.6803 118.799 54.8627 119.36 56.292C119.431 56.4776 119.495 56.6675 119.547 56.8524ZM113.549 57.6137C113.664 58.0657 113.903 58.4803 114.241 58.8152C114.579 59.1502 115.005 59.3934 115.474 59.52C116.519 59.8099 117.533 59.5158 117.788 59.0701C117.942 58.7206 118.018 58.3443 118.011 57.9651C118.004 57.586 117.915 57.2124 117.748 56.8682C117.455 55.9926 116.818 55.2589 115.972 54.8204C115.682 54.721 115.373 54.6869 115.068 54.7208C114.762 54.7547 114.469 54.8557 114.212 55.0159C113.993 55.141 113.808 55.3134 113.672 55.5191C113.536 55.7248 113.452 55.9582 113.428 56.2004C113.386 56.6746 113.427 57.1522 113.549 57.6137Z" fill="#473049"/>
<path d="M124.176 40.4981C124.354 41.1782 124.356 41.8893 124.182 42.5704C124.009 43.2515 123.665 43.8823 123.18 44.4089C122.785 44.725 122.301 44.9242 121.789 44.9822C121.277 45.0402 120.758 44.9545 120.296 44.7357C119.547 44.4616 118.896 43.9894 118.42 43.3746C117.943 42.7598 117.66 42.0279 117.604 41.2651C117.581 40.9263 117.634 40.5867 117.761 40.2695C117.887 39.9522 118.084 39.6647 118.338 39.4266C118.845 38.9573 119.855 38.4274 121.785 38.5722C122.303 38.5985 122.8 38.773 123.212 39.0729C123.625 39.3728 123.932 39.7842 124.096 40.2535C124.125 40.3309 124.152 40.4146 124.176 40.4981ZM119.39 41.6177C119.503 41.9769 119.7 42.307 119.967 42.5831C120.233 42.8591 120.561 43.074 120.927 43.2115C121.088 43.2972 121.269 43.3434 121.454 43.3462C121.639 43.3489 121.821 43.3079 121.985 43.2271C122.259 42.8878 122.446 42.4923 122.531 42.0721C122.616 41.6518 122.598 41.2184 122.477 40.8062C122.426 40.6344 122.318 40.483 122.169 40.3749C122.021 40.2669 121.839 40.208 121.652 40.2073C120.661 40.1329 119.891 40.277 119.539 40.6031C119.459 40.6784 119.398 40.7697 119.36 40.8704C119.322 40.9711 119.308 41.0787 119.319 41.1852C119.327 41.3313 119.351 41.4763 119.39 41.6177Z" fill="#473049"/>
<path d="M139.843 75.6393C139.915 75.9046 139.948 76.1785 139.941 76.4527C139.91 77.115 139.725 77.7625 139.399 78.3478C139.072 78.9331 138.613 79.4415 138.054 79.8359C136.178 80.8454 133.644 79.7175 132.631 78.0312C132.041 77.0495 132.458 75.4756 133.578 74.4487C134.947 73.193 136.869 73.1014 138.723 74.2053C139.277 74.5276 139.678 75.0414 139.843 75.6393ZM134.097 77.1474C134.103 77.1708 134.113 77.1934 134.125 77.2145C134.708 78.1847 136.247 78.9254 137.211 78.4072C137.806 77.8936 138.169 77.1798 138.223 76.4161C138.247 76.2561 138.22 76.093 138.148 75.9471C138.075 75.8012 137.959 75.6787 137.814 75.5949C136.639 74.8944 135.559 74.9065 134.774 75.628C134.547 75.8151 134.367 76.0493 134.25 76.3128C134.132 76.5763 134.079 76.862 134.095 77.148L134.097 77.1474Z" fill="#473049"/>
<path d="M136.185 60.2622C136.212 60.3558 136.232 60.4507 136.247 60.5465C136.294 61.0432 136.231 61.5437 136.062 62.0158C135.894 62.4879 135.623 62.9212 135.269 63.2877C134.951 63.6959 134.493 63.9844 133.975 64.1027C133.457 64.221 132.911 64.1615 132.434 63.9346C131.671 63.5457 131.062 62.9296 130.699 62.1801C130.337 61.4306 130.241 60.5886 130.426 59.7823C130.502 59.4216 130.673 59.0853 130.922 58.8047C131.171 58.524 131.491 58.3082 131.852 58.1773C132.339 58.0005 132.865 57.9408 133.382 58.0035C133.9 58.0663 134.393 58.2495 134.819 58.5371C135.476 58.9374 135.961 59.5496 136.185 60.2622ZM132.152 61.1749C132.216 61.4423 132.338 61.6939 132.511 61.9131C132.684 62.1324 132.903 62.3143 133.155 62.4472C133.281 62.5204 133.433 62.543 133.577 62.51C133.721 62.4769 133.845 62.3909 133.923 62.2707C134.321 61.8698 134.544 61.3398 134.548 60.7877C134.428 60.3843 134.145 60.0428 133.761 59.8379C133.378 59.633 132.924 59.5815 132.501 59.6946C132.406 59.7234 132.32 59.7756 132.252 59.8458C132.185 59.916 132.138 60.0019 132.115 60.0949C132.041 60.4528 132.054 60.8222 132.152 61.1749Z" fill="#473049"/>
<path d="M132.595 29.6303C132.615 29.7009 132.631 29.7725 132.642 29.8448C132.672 30.2469 132.613 30.6505 132.467 31.0291C132.322 31.4077 132.095 31.7528 131.8 32.0416C131.41 32.5112 130.862 32.8375 130.249 32.965C129.635 33.0925 128.994 33.0132 128.435 32.7408C127.733 32.4306 127.163 31.9008 126.819 31.2392C126.475 30.5775 126.379 29.8237 126.546 29.1027C126.622 28.7421 126.793 28.4059 127.042 28.1253C127.291 27.8447 127.611 27.6288 127.971 27.4979C128.459 27.3212 128.984 27.2616 129.502 27.3244C130.019 27.3871 130.512 27.5702 130.938 27.8577C131.576 28.2783 132.361 28.7951 132.595 29.6303ZM128.251 30.2221C128.313 30.4459 128.426 30.6539 128.582 30.8315C128.738 31.0091 128.932 31.1521 129.152 31.2503C129.363 31.3605 129.608 31.3979 129.845 31.3561C130.082 31.3143 130.297 31.1959 130.453 31.0209C130.935 30.4448 130.954 30.1737 130.94 30.0856C130.898 29.8236 130.311 29.4392 129.958 29.2043C129.767 29.0714 129.546 28.9846 129.312 28.9515C129.079 28.9184 128.84 28.9399 128.617 29.0142C128.522 29.0431 128.436 29.0952 128.368 29.1654C128.3 29.2357 128.253 29.3216 128.231 29.4147C128.173 29.6817 128.18 29.9579 128.252 30.2217L128.251 30.2221Z" fill="#473049"/>
<path d="M148.798 31.5212C149.001 32.2798 148.884 33.0841 148.471 33.7611C148.282 34.0817 148.011 34.3514 147.683 34.545C147.355 34.7386 146.981 34.8498 146.596 34.8682C146.075 34.8926 145.556 34.7945 145.084 34.5825C144.613 34.3704 144.203 34.051 143.891 33.6523C143.769 33.5 143.646 33.3604 143.531 33.2291C143.066 32.6992 142.583 32.151 142.698 31.4003C142.797 31.0518 142.97 30.7265 143.206 30.4449C143.443 30.1633 143.738 29.9316 144.073 29.7642C144.662 29.4064 145.36 29.248 146.055 29.3147C146.75 29.3813 147.401 29.6691 147.903 30.1316C148.334 30.5044 148.644 30.9864 148.798 31.5212ZM144.413 31.6227C144.541 31.8185 144.687 32.0031 144.849 32.1743C144.979 32.3228 145.119 32.4813 145.257 32.6538C145.395 32.8364 145.578 32.9843 145.789 33.0846C146.001 33.185 146.235 33.2349 146.471 33.2301C146.571 33.2306 146.669 33.2062 146.756 33.1592C146.843 33.1122 146.916 33.0443 146.967 32.9622C147.141 32.7099 147.213 32.4061 147.171 32.1069C147.128 31.8077 146.974 31.5332 146.735 31.3343C146.515 31.1237 146.227 30.9891 145.917 30.9519C145.607 30.9147 145.293 30.977 145.025 31.1289C144.792 31.2579 144.585 31.4259 144.414 31.6248L144.413 31.6227Z" fill="#473049"/>
<path d="M141.72 45.3571C141.807 45.659 141.837 45.9731 141.809 46.2849C141.721 47.2648 141.077 48.2109 139.839 49.1778C138.176 50.4765 136.085 50.3359 134.515 48.8186C133.577 47.9346 133.021 46.7477 132.955 45.4919C132.889 44.236 133.319 43.0022 134.159 42.0334C134.455 41.6709 134.839 41.3822 135.277 41.192C135.716 41.0018 136.196 40.9159 136.677 40.9414C137.357 41.0217 138.011 41.2415 138.594 41.5859C139.177 41.9302 139.674 42.3908 140.053 42.9361C140.188 43.1157 140.334 43.2879 140.49 43.4516C141.046 43.9895 141.467 44.6411 141.72 45.3571ZM134.787 46.0722C134.955 46.6719 135.281 47.2203 135.736 47.6647C135.916 47.8697 136.138 48.0386 136.387 48.1618C136.636 48.285 136.909 48.36 137.189 48.3825C137.468 48.405 137.75 48.3745 138.018 48.2929C138.285 48.2112 138.533 48.08 138.747 47.9067C139.582 47.2544 140.048 46.6444 140.092 46.1442C140.143 45.5792 139.657 45.0427 139.186 44.5249C138.98 44.3082 138.789 44.079 138.614 43.8388C138.382 43.507 138.082 43.224 137.731 43.0072C137.381 42.7905 136.987 42.6447 136.575 42.5788C136.361 42.5685 136.148 42.6097 135.955 42.6985C135.762 42.7874 135.596 42.9211 135.471 43.0874C135.109 43.4928 134.857 43.9773 134.737 44.498C134.618 45.0187 134.635 45.5594 134.787 46.0722Z" fill="#473049"/>
<path d="M154.395 58.1703C154.519 58.6252 154.559 59.0973 154.512 59.5653C154.456 60.3659 154.155 61.1332 153.645 61.7716C153.136 62.41 152.441 62.8914 151.647 63.1559C151.02 63.3585 150.349 63.4052 149.697 63.2915C149.046 63.1777 148.436 62.9073 147.925 62.5059C147.432 62.0713 147.071 61.5183 146.879 60.9048C146.687 60.2914 146.671 59.64 146.834 59.0188C146.908 58.4332 147.134 57.8746 147.492 57.3933C147.849 56.912 148.326 56.5232 148.881 56.262C149.557 55.9929 150.288 55.8726 151.02 55.9101C151.751 55.9475 152.465 56.1417 153.107 56.4783C153.43 56.6627 153.711 56.9077 153.933 57.1985C154.154 57.4893 154.311 57.8199 154.395 58.1703ZM148.545 60.4804C148.625 60.7844 148.8 61.0578 149.048 61.2637C149.335 61.4771 149.672 61.6195 150.031 61.6782C150.389 61.7369 150.757 61.7101 151.101 61.6001C151.577 61.4345 151.991 61.1398 152.293 60.7523C152.595 60.3647 152.771 59.9014 152.8 59.4194C152.856 59.1476 152.838 58.8664 152.747 58.6031C152.656 58.3399 152.496 58.1035 152.281 57.9169C151.878 57.7032 151.432 57.5767 150.972 57.5465C150.513 57.5162 150.052 57.583 149.623 57.7419C149.319 57.8962 149.06 58.12 148.869 58.3932C148.677 58.6665 148.56 58.9807 148.527 59.3077C148.445 59.6952 148.451 60.0952 148.545 60.4804Z" fill="#473049"/>
</g>
<g clip-path="url(#clip11_2267_7087)">
<path d="M886.853 743.762C887.477 743.762 888.102 744 888.578 744.477C889.531 745.429 889.531 746.974 888.578 747.926L879.954 756.551C879.002 757.503 877.457 757.503 876.505 756.551C875.552 755.598 875.552 754.054 876.505 753.101L885.129 744.477C885.605 744 886.229 743.762 886.853 743.762Z" fill="#556080"/>
<path d="M873.055 729.963C873.679 729.963 874.303 730.201 874.78 730.677C875.732 731.63 875.732 733.175 874.78 734.127L866.155 742.751C865.202 743.703 863.658 743.703 862.706 742.751C861.753 741.799 861.753 740.254 862.706 739.302L871.33 730.677C871.806 730.201 872.43 729.963 873.055 729.963Z" fill="#556080"/>
<path d="M810.96 787.597L831.658 808.296C832.597 809.235 834.168 809.235 835.107 808.296L883.403 760C884.342 759.06 884.342 757.49 883.403 756.55L862.705 735.852C861.765 734.912 860.195 734.912 859.256 735.852L810.96 784.148C810.007 785.1 810.007 786.645 810.96 787.597Z" fill="#56ACE1"/>
<path d="M819.585 796.222L823.034 799.671L835.108 787.598L845.457 797.946L848.907 794.497L838.558 784.148L847.182 775.524L857.531 785.873L860.981 782.423L850.632 772.074L859.256 763.45L869.605 773.799L873.054 770.349L862.705 760L874.779 747.927L871.33 744.477L859.256 756.551L848.907 746.202L845.457 749.651L855.806 760L847.182 768.625L836.833 758.275L833.383 761.725L843.732 772.074L835.108 780.698L824.759 770.349L821.31 773.799L831.659 784.148L819.585 796.222Z" fill="#298ECC"/>
<path d="M905.826 724.789C906.45 724.789 907.075 725.027 907.551 725.503C908.504 726.456 908.504 728 907.551 728.953L898.927 737.577C897.974 738.529 896.43 738.529 895.478 737.577C894.525 736.624 894.525 735.08 895.478 734.127L904.101 725.503C904.577 725.027 905.202 724.789 905.826 724.789Z" fill="#556080"/>
<path d="M892.027 710.99C892.651 710.99 893.276 711.228 893.752 711.704C894.705 712.657 894.705 714.201 893.752 715.154L885.128 723.778C884.176 724.73 882.631 724.73 881.679 723.778C880.726 722.825 880.726 721.281 881.679 720.328L890.303 711.704C890.779 711.228 891.403 710.99 892.027 710.99Z" fill="#556080"/>
<path d="M886.853 711.705L907.551 732.403C908.503 733.355 910.048 733.355 911 732.403L959.296 684.107C960.235 683.168 960.235 681.597 959.296 680.658L938.598 659.96C937.657 659.02 936.088 659.02 935.148 659.96L886.853 708.255C885.913 709.195 885.913 710.765 886.853 711.705Z" fill="#56ACE1"/>
<path d="M895.477 720.329L898.927 723.779L911.001 711.705L921.35 722.054L924.799 718.604L914.45 708.255L923.075 699.631L933.424 709.98L936.873 706.531L926.524 696.181L935.148 687.557L945.497 697.906L948.947 694.456L938.598 684.107L950.672 672.033L947.222 668.584L935.149 680.658L924.799 670.309L921.35 673.759L931.699 684.108L923.075 692.732L912.725 682.383L909.276 685.832L919.625 696.181L911.001 704.806L900.652 694.457L897.202 697.906L907.551 708.255L895.477 720.329Z" fill="#298ECC"/>
<path d="M864.427 703.08L854.078 713.429L905.822 765.173L916.171 754.824L864.427 703.08Z" fill="#778099"/>
<path d="M886.853 766.899L914.45 794.497C915.389 795.436 916.96 795.436 917.899 794.497L945.496 766.899C946.449 765.947 946.449 764.402 945.496 763.45L917.899 735.852C916.96 734.913 915.389 734.913 914.45 735.852L886.853 763.45C885.9 764.402 885.9 765.947 886.853 766.899Z" fill="#EEEFF2"/>
<path d="M945.496 766.9C946.449 765.947 946.449 764.403 945.496 763.45L917.899 735.853C916.96 734.913 915.389 734.913 914.45 735.853L906.8 743.502L937.847 774.549L945.496 766.9Z" fill="#DDDFE6"/>
<path d="M938.598 756.552L935.148 753.103L904.102 784.149L907.552 787.599L938.598 756.552Z" fill="#99A0B3"/>
<path d="M928.248 746.204L924.799 742.755L893.752 773.801L897.202 777.251L928.248 746.204Z" fill="#99A0B3"/>
<path d="M935.146 753.102L925.721 762.527L929.17 765.977L938.595 756.552L935.146 753.102Z" fill="#8890A6"/>
<path d="M915.375 752.177L918.824 755.626L928.249 746.201L924.8 742.752L915.375 752.177Z" fill="#8890A6"/>
<path d="M866.154 698.916C866.778 698.916 867.403 699.155 867.879 699.631C868.832 700.583 868.832 702.128 867.879 703.08L854.08 716.879C853.128 717.831 851.583 717.831 850.631 716.879C849.678 715.926 849.678 714.382 850.631 713.429L864.43 699.631C864.906 699.155 865.53 698.916 866.154 698.916Z" fill="black"/>
<path d="M839.694 691.778L846.593 712.477C846.86 713.278 847.523 713.885 848.346 714.079C849.168 714.273 850.034 714.028 850.631 713.43L864.43 699.631C865.028 699.033 865.273 698.168 865.079 697.346C864.885 696.523 864.279 695.859 863.477 695.592L842.779 688.693C840.907 688.069 839.071 689.91 839.694 691.778Z" fill="#FFE88F"/>
<path d="M833.02 726.124C833.185 726.927 833.743 727.594 834.505 727.898C847.207 732.969 861.661 729.997 871.329 720.329C880.997 710.661 883.969 696.206 878.898 683.505C878.261 681.908 876.127 681.465 874.908 682.684L833.685 723.908C833.105 724.488 832.855 725.321 833.02 726.124Z" fill="#FFCF1A"/>
<path d="M872.807 686.738C877.876 699.439 874.905 713.894 865.237 723.562C863.627 725.173 861.881 726.593 860.036 727.825C864.184 726.139 868.034 723.624 871.329 720.33C880.997 710.661 883.969 696.207 878.898 683.505C878.261 681.909 876.127 681.466 874.908 682.685L871.934 685.658C872.311 685.915 872.622 686.276 872.807 686.738Z" fill="#FFBE35"/>
</g>
</g>
<defs>
<filter id="filter0_dddddd_2267_7087" x="1677.66" y="432.657" width="152.409" height="150.96" filterUnits="userSpaceOnUse" color-interpolation-filters="sRGB">
<feFlood flood-opacity="0" result="BackgroundImageFix"/>
<feColorMatrix in="SourceAlpha" type="matrix" values="0 0 0 0 0 0 0 0 0 0 0 0 0 0 0 0 0 0 127 0" result="hardAlpha"/>
<feOffset/>
<feGaussianBlur stdDeviation="0.72"/>
<feColorMatrix type="matrix" values="0 0 0 0 0.615686 0 0 0 0 0.623529 0 0 0 0 0.219608 0 0 0 1 0"/>
<feBlend mode="normal" in2="BackgroundImageFix" result="effect1_dropShadow_2267_7087"/>
<feColorMatrix in="SourceAlpha" type="matrix" values="0 0 0 0 0 0 0 0 0 0 0 0 0 0 0 0 0 0 127 0" result="hardAlpha"/>
<feOffset/>
<feGaussianBlur stdDeviation="1.44"/>
<feColorMatrix type="matrix" values="0 0 0 0 0.615686 0 0 0 0 0.623529 0 0 0 0 0.219608 0 0 0 1 0"/>
<feBlend mode="normal" in2="effect1_dropShadow_2267_7087" result="effect2_dropShadow_2267_7087"/>
<feColorMatrix in="SourceAlpha" type="matrix" values="0 0 0 0 0 0 0 0 0 0 0 0 0 0 0 0 0 0 127 0" result="hardAlpha"/>
<feOffset/>
<feGaussianBlur stdDeviation="5.04"/>
<feColorMatrix type="matrix" values="0 0 0 0 0.615686 0 0 0 0 0.623529 0 0 0 0 0.219608 0 0 0 1 0"/>
<feBlend mode="normal" in2="effect2_dropShadow_2267_7087" result="effect3_dropShadow_2267_7087"/>
<feColorMatrix in="SourceAlpha" type="matrix" values="0 0 0 0 0 0 0 0 0 0 0 0 0 0 0 0 0 0 127 0" result="hardAlpha"/>
<feOffset/>
<feGaussianBlur stdDeviation="10.08"/>
<feColorMatrix type="matrix" values="0 0 0 0 0.615686 0 0 0 0 0.623529 0 0 0 0 0.219608 0 0 0 1 0"/>
<feBlend mode="normal" in2="effect3_dropShadow_2267_7087" result="effect4_dropShadow_2267_7087"/>
<feColorMatrix in="SourceAlpha" type="matrix" values="0 0 0 0 0 0 0 0 0 0 0 0 0 0 0 0 0 0 127 0" result="hardAlpha"/>
<feOffset/>
<feGaussianBlur stdDeviation="17.28"/>
<feColorMatrix type="matrix" values="0 0 0 0 0.615686 0 0 0 0 0.623529 0 0 0 0 0.219608 0 0 0 1 0"/>
<feBlend mode="normal" in2="effect4_dropShadow_2267_7087" result="effect5_dropShadow_2267_7087"/>
<feColorMatrix in="SourceAlpha" type="matrix" values="0 0 0 0 0 0 0 0 0 0 0 0 0 0 0 0 0 0 127 0" result="hardAlpha"/>
<feOffset/>
<feGaussianBlur stdDeviation="30.24"/>
<feColorMatrix type="matrix" values="0 0 0 0 0.615686 0 0 0 0 0.623529 0 0 0 0 0.219608 0 0 0 1 0"/>
<feBlend mode="normal" in2="effect5_dropShadow_2267_7087" result="effect6_dropShadow_2267_7087"/>
<feBlend mode="normal" in="SourceGraphic" in2="effect6_dropShadow_2267_7087" result="shape"/>
</filter>
<filter id="filter1_dddddd_2267_7087" x="-48.142" y="66.4967" width="203.214" height="201.28" filterUnits="userSpaceOnUse" color-interpolation-filters="sRGB">
<feFlood flood-opacity="0" result="BackgroundImageFix"/>
<feColorMatrix in="SourceAlpha" type="matrix" values="0 0 0 0 0 0 0 0 0 0 0 0 0 0 0 0 0 0 127 0" result="hardAlpha"/>
<feOffset/>
<feGaussianBlur stdDeviation="0.96"/>
<feColorMatrix type="matrix" values="0 0 0 0 0.615686 0 0 0 0 0.623529 0 0 0 0 0.219608 0 0 0 1 0"/>
<feBlend mode="normal" in2="BackgroundImageFix" result="effect1_dropShadow_2267_7087"/>
<feColorMatrix in="SourceAlpha" type="matrix" values="0 0 0 0 0 0 0 0 0 0 0 0 0 0 0 0 0 0 127 0" result="hardAlpha"/>
<feOffset/>
<feGaussianBlur stdDeviation="1.92"/>
<feColorMatrix type="matrix" values="0 0 0 0 0.615686 0 0 0 0 0.623529 0 0 0 0 0.219608 0 0 0 1 0"/>
<feBlend mode="normal" in2="effect1_dropShadow_2267_7087" result="effect2_dropShadow_2267_7087"/>
<feColorMatrix in="SourceAlpha" type="matrix" values="0 0 0 0 0 0 0 0 0 0 0 0 0 0 0 0 0 0 127 0" result="hardAlpha"/>
<feOffset/>
<feGaussianBlur stdDeviation="6.72"/>
<feColorMatrix type="matrix" values="0 0 0 0 0.615686 0 0 0 0 0.623529 0 0 0 0 0.219608 0 0 0 1 0"/>
<feBlend mode="normal" in2="effect2_dropShadow_2267_7087" result="effect3_dropShadow_2267_7087"/>
<feColorMatrix in="SourceAlpha" type="matrix" values="0 0 0 0 0 0 0 0 0 0 0 0 0 0 0 0 0 0 127 0" result="hardAlpha"/>
<feOffset/>
<feGaussianBlur stdDeviation="13.44"/>
<feColorMatrix type="matrix" values="0 0 0 0 0.615686 0 0 0 0 0.623529 0 0 0 0 0.219608 0 0 0 1 0"/>
<feBlend mode="normal" in2="effect3_dropShadow_2267_7087" result="effect4_dropShadow_2267_7087"/>
<feColorMatrix in="SourceAlpha" type="matrix" values="0 0 0 0 0 0 0 0 0 0 0 0 0 0 0 0 0 0 127 0" result="hardAlpha"/>
<feOffset/>
<feGaussianBlur stdDeviation="23.04"/>
<feColorMatrix type="matrix" values="0 0 0 0 0.615686 0 0 0 0 0.623529 0 0 0 0 0.219608 0 0 0 1 0"/>
<feBlend mode="normal" in2="effect4_dropShadow_2267_7087" result="effect5_dropShadow_2267_7087"/>
<feColorMatrix in="SourceAlpha" type="matrix" values="0 0 0 0 0 0 0 0 0 0 0 0 0 0 0 0 0 0 127 0" result="hardAlpha"/>
<feOffset/>
<feGaussianBlur stdDeviation="40.32"/>
<feColorMatrix type="matrix" values="0 0 0 0 0.615686 0 0 0 0 0.623529 0 0 0 0 0.219608 0 0 0 1 0"/>
<feBlend mode="normal" in2="effect5_dropShadow_2267_7087" result="effect6_dropShadow_2267_7087"/>
<feBlend mode="normal" in="SourceGraphic" in2="effect6_dropShadow_2267_7087" result="shape"/>
</filter>
<filter id="filter2_dddddd_2267_7087" x="1362.59" y="539.937" width="407.234" height="402.4" filterUnits="userSpaceOnUse" color-interpolation-filters="sRGB">
<feFlood flood-opacity="0" result="BackgroundImageFix"/>
<feColorMatrix in="SourceAlpha" type="matrix" values="0 0 0 0 0 0 0 0 0 0 0 0 0 0 0 0 0 0 127 0" result="hardAlpha"/>
<feOffset/>
<feGaussianBlur stdDeviation="1.8"/>
<feColorMatrix type="matrix" values="0 0 0 0 0.309804 0 0 0 0 0.490196 0 0 0 0 0.909804 0 0 0 1 0"/>
<feBlend mode="normal" in2="BackgroundImageFix" result="effect1_dropShadow_2267_7087"/>
<feColorMatrix in="SourceAlpha" type="matrix" values="0 0 0 0 0 0 0 0 0 0 0 0 0 0 0 0 0 0 127 0" result="hardAlpha"/>
<feOffset/>
<feGaussianBlur stdDeviation="3.6"/>
<feColorMatrix type="matrix" values="0 0 0 0 0.309804 0 0 0 0 0.490196 0 0 0 0 0.909804 0 0 0 1 0"/>
<feBlend mode="normal" in2="effect1_dropShadow_2267_7087" result="effect2_dropShadow_2267_7087"/>
<feColorMatrix in="SourceAlpha" type="matrix" values="0 0 0 0 0 0 0 0 0 0 0 0 0 0 0 0 0 0 127 0" result="hardAlpha"/>
<feOffset/>
<feGaussianBlur stdDeviation="12.6"/>
<feColorMatrix type="matrix" values="0 0 0 0 0.309804 0 0 0 0 0.490196 0 0 0 0 0.909804 0 0 0 1 0"/>
<feBlend mode="normal" in2="effect2_dropShadow_2267_7087" result="effect3_dropShadow_2267_7087"/>
<feColorMatrix in="SourceAlpha" type="matrix" values="0 0 0 0 0 0 0 0 0 0 0 0 0 0 0 0 0 0 127 0" result="hardAlpha"/>
<feOffset/>
<feGaussianBlur stdDeviation="25.2"/>
<feColorMatrix type="matrix" values="0 0 0 0 0.309804 0 0 0 0 0.490196 0 0 0 0 0.909804 0 0 0 1 0"/>
<feBlend mode="normal" in2="effect3_dropShadow_2267_7087" result="effect4_dropShadow_2267_7087"/>
<feColorMatrix in="SourceAlpha" type="matrix" values="0 0 0 0 0 0 0 0 0 0 0 0 0 0 0 0 0 0 127 0" result="hardAlpha"/>
<feOffset/>
<feGaussianBlur stdDeviation="43.2"/>
<feColorMatrix type="matrix" values="0 0 0 0 0.309804 0 0 0 0 0.490196 0 0 0 0 0.909804 0 0 0 1 0"/>
<feBlend mode="normal" in2="effect4_dropShadow_2267_7087" result="effect5_dropShadow_2267_7087"/>
<feColorMatrix in="SourceAlpha" type="matrix" values="0 0 0 0 0 0 0 0 0 0 0 0 0 0 0 0 0 0 127 0" result="hardAlpha"/>
<feOffset/>
<feGaussianBlur stdDeviation="75.6"/>
<feColorMatrix type="matrix" values="0 0 0 0 0.309804 0 0 0 0 0.490196 0 0 0 0 0.909804 0 0 0 1 0"/>
<feBlend mode="normal" in2="effect5_dropShadow_2267_7087" result="effect6_dropShadow_2267_7087"/>
<feBlend mode="normal" in="SourceGraphic" in2="effect6_dropShadow_2267_7087" result="shape"/>
</filter>
<filter id="filter3_dddddd_2267_7087" x="199.85" y="176.401" width="111.888" height="109.472" filterUnits="userSpaceOnUse" color-interpolation-filters="sRGB">
<feFlood flood-opacity="0" result="BackgroundImageFix"/>
<feColorMatrix in="SourceAlpha" type="matrix" values="0 0 0 0 0 0 0 0 0 0 0 0 0 0 0 0 0 0 127 0" result="hardAlpha"/>
<feOffset/>
<feGaussianBlur stdDeviation="0.354"/>
<feColorMatrix type="matrix" values="0 0 0 0 1 0 0 0 0 1 0 0 0 0 1 0 0 0 1 0"/>
<feBlend mode="normal" in2="BackgroundImageFix" result="effect1_dropShadow_2267_7087"/>
<feColorMatrix in="SourceAlpha" type="matrix" values="0 0 0 0 0 0 0 0 0 0 0 0 0 0 0 0 0 0 127 0" result="hardAlpha"/>
<feOffset/>
<feGaussianBlur stdDeviation="0.708"/>
<feColorMatrix type="matrix" values="0 0 0 0 1 0 0 0 0 1 0 0 0 0 1 0 0 0 1 0"/>
<feBlend mode="normal" in2="effect1_dropShadow_2267_7087" result="effect2_dropShadow_2267_7087"/>
<feColorMatrix in="SourceAlpha" type="matrix" values="0 0 0 0 0 0 0 0 0 0 0 0 0 0 0 0 0 0 127 0" result="hardAlpha"/>
<feOffset/>
<feGaussianBlur stdDeviation="2.478"/>
<feColorMatrix type="matrix" values="0 0 0 0 1 0 0 0 0 1 0 0 0 0 1 0 0 0 1 0"/>
<feBlend mode="normal" in2="effect2_dropShadow_2267_7087" result="effect3_dropShadow_2267_7087"/>
<feColorMatrix in="SourceAlpha" type="matrix" values="0 0 0 0 0 0 0 0 0 0 0 0 0 0 0 0 0 0 127 0" result="hardAlpha"/>
<feOffset/>
<feGaussianBlur stdDeviation="4.956"/>
<feColorMatrix type="matrix" values="0 0 0 0 1 0 0 0 0 1 0 0 0 0 1 0 0 0 1 0"/>
<feBlend mode="normal" in2="effect3_dropShadow_2267_7087" result="effect4_dropShadow_2267_7087"/>
<feColorMatrix in="SourceAlpha" type="matrix" values="0 0 0 0 0 0 0 0 0 0 0 0 0 0 0 0 0 0 127 0" result="hardAlpha"/>
<feOffset/>
<feGaussianBlur stdDeviation="8.496"/>
<feColorMatrix type="matrix" values="0 0 0 0 1 0 0 0 0 1 0 0 0 0 1 0 0 0 1 0"/>
<feBlend mode="normal" in2="effect4_dropShadow_2267_7087" result="effect5_dropShadow_2267_7087"/>
<feColorMatrix in="SourceAlpha" type="matrix" values="0 0 0 0 0 0 0 0 0 0 0 0 0 0 0 0 0 0 127 0" result="hardAlpha"/>
<feOffset/>
<feGaussianBlur stdDeviation="14.868"/>
<feColorMatrix type="matrix" values="0 0 0 0 1 0 0 0 0 1 0 0 0 0 1 0 0 0 1 0"/>
<feBlend mode="normal" in2="effect5_dropShadow_2267_7087" result="effect6_dropShadow_2267_7087"/>
<feBlend mode="normal" in="SourceGraphic" in2="effect6_dropShadow_2267_7087" result="shape"/>
</filter>
<filter id="filter4_dddddd_2267_7087" x="-82.9981" y="646.85" width="271.434" height="254.679" filterUnits="userSpaceOnUse" color-interpolation-filters="sRGB">
<feFlood flood-opacity="0" result="BackgroundImageFix"/>
<feColorMatrix in="SourceAlpha" type="matrix" values="0 0 0 0 0 0 0 0 0 0 0 0 0 0 0 0 0 0 127 0" result="hardAlpha"/>
<feOffset/>
<feGaussianBlur stdDeviation="1.06294"/>
<feColorMatrix type="matrix" values="0 0 0 0 0.937255 0 0 0 0 0.32549 0 0 0 0 0.380392 0 0 0 1 0"/>
<feBlend mode="normal" in2="BackgroundImageFix" result="effect1_dropShadow_2267_7087"/>
<feColorMatrix in="SourceAlpha" type="matrix" values="0 0 0 0 0 0 0 0 0 0 0 0 0 0 0 0 0 0 127 0" result="hardAlpha"/>
<feOffset/>
<feGaussianBlur stdDeviation="2.12589"/>
<feColorMatrix type="matrix" values="0 0 0 0 0.937255 0 0 0 0 0.32549 0 0 0 0 0.380392 0 0 0 1 0"/>
<feBlend mode="normal" in2="effect1_dropShadow_2267_7087" result="effect2_dropShadow_2267_7087"/>
<feColorMatrix in="SourceAlpha" type="matrix" values="0 0 0 0 0 0 0 0 0 0 0 0 0 0 0 0 0 0 127 0" result="hardAlpha"/>
<feOffset/>
<feGaussianBlur stdDeviation="7.4406"/>
<feColorMatrix type="matrix" values="0 0 0 0 0.937255 0 0 0 0 0.32549 0 0 0 0 0.380392 0 0 0 1 0"/>
<feBlend mode="normal" in2="effect2_dropShadow_2267_7087" result="effect3_dropShadow_2267_7087"/>
<feColorMatrix in="SourceAlpha" type="matrix" values="0 0 0 0 0 0 0 0 0 0 0 0 0 0 0 0 0 0 127 0" result="hardAlpha"/>
<feOffset/>
<feGaussianBlur stdDeviation="14.8812"/>
<feColorMatrix type="matrix" values="0 0 0 0 0.937255 0 0 0 0 0.32549 0 0 0 0 0.380392 0 0 0 1 0"/>
<feBlend mode="normal" in2="effect3_dropShadow_2267_7087" result="effect4_dropShadow_2267_7087"/>
<feColorMatrix in="SourceAlpha" type="matrix" values="0 0 0 0 0 0 0 0 0 0 0 0 0 0 0 0 0 0 127 0" result="hardAlpha"/>
<feOffset/>
<feGaussianBlur stdDeviation="25.5106"/>
<feColorMatrix type="matrix" values="0 0 0 0 0.937255 0 0 0 0 0.32549 0 0 0 0 0.380392 0 0 0 1 0"/>
<feBlend mode="normal" in2="effect4_dropShadow_2267_7087" result="effect5_dropShadow_2267_7087"/>
<feColorMatrix in="SourceAlpha" type="matrix" values="0 0 0 0 0 0 0 0 0 0 0 0 0 0 0 0 0 0 127 0" result="hardAlpha"/>
<feOffset/>
<feGaussianBlur stdDeviation="44.6436"/>
<feColorMatrix type="matrix" values="0 0 0 0 0.937255 0 0 0 0 0.32549 0 0 0 0 0.380392 0 0 0 1 0"/>
<feBlend mode="normal" in2="effect5_dropShadow_2267_7087" result="effect6_dropShadow_2267_7087"/>
<feBlend mode="normal" in="SourceGraphic" in2="effect6_dropShadow_2267_7087" result="shape"/>
</filter>
<filter id="filter5_dddddd_2267_7087" x="-57.3887" y="636.315" width="255.33" height="260.484" filterUnits="userSpaceOnUse" color-interpolation-filters="sRGB">
<feFlood flood-opacity="0" result="BackgroundImageFix"/>
<feColorMatrix in="SourceAlpha" type="matrix" values="0 0 0 0 0 0 0 0 0 0 0 0 0 0 0 0 0 0 127 0" result="hardAlpha"/>
<feOffset/>
<feGaussianBlur stdDeviation="1.24237"/>
<feColorMatrix type="matrix" values="0 0 0 0 1 0 0 0 0 0.788235 0 0 0 0 0.262745 0 0 0 1 0"/>
<feBlend mode="normal" in2="BackgroundImageFix" result="effect1_dropShadow_2267_7087"/>
<feColorMatrix in="SourceAlpha" type="matrix" values="0 0 0 0 0 0 0 0 0 0 0 0 0 0 0 0 0 0 127 0" result="hardAlpha"/>
<feOffset/>
<feGaussianBlur stdDeviation="2.48475"/>
<feColorMatrix type="matrix" values="0 0 0 0 1 0 0 0 0 0.788235 0 0 0 0 0.262745 0 0 0 1 0"/>
<feBlend mode="normal" in2="effect1_dropShadow_2267_7087" result="effect2_dropShadow_2267_7087"/>
<feColorMatrix in="SourceAlpha" type="matrix" values="0 0 0 0 0 0 0 0 0 0 0 0 0 0 0 0 0 0 127 0" result="hardAlpha"/>
<feOffset/>
<feGaussianBlur stdDeviation="8.69662"/>
<feColorMatrix type="matrix" values="0 0 0 0 1 0 0 0 0 0.788235 0 0 0 0 0.262745 0 0 0 1 0"/>
<feBlend mode="normal" in2="effect2_dropShadow_2267_7087" result="effect3_dropShadow_2267_7087"/>
<feColorMatrix in="SourceAlpha" type="matrix" values="0 0 0 0 0 0 0 0 0 0 0 0 0 0 0 0 0 0 127 0" result="hardAlpha"/>
<feOffset/>
<feGaussianBlur stdDeviation="17.3932"/>
<feColorMatrix type="matrix" values="0 0 0 0 1 0 0 0 0 0.788235 0 0 0 0 0.262745 0 0 0 1 0"/>
<feBlend mode="normal" in2="effect3_dropShadow_2267_7087" result="effect4_dropShadow_2267_7087"/>
<feColorMatrix in="SourceAlpha" type="matrix" values="0 0 0 0 0 0 0 0 0 0 0 0 0 0 0 0 0 0 127 0" result="hardAlpha"/>
<feOffset/>
<feGaussianBlur stdDeviation="29.817"/>
<feColorMatrix type="matrix" values="0 0 0 0 1 0 0 0 0 0.788235 0 0 0 0 0.262745 0 0 0 1 0"/>
<feBlend mode="normal" in2="effect4_dropShadow_2267_7087" result="effect5_dropShadow_2267_7087"/>
<feColorMatrix in="SourceAlpha" type="matrix" values="0 0 0 0 0 0 0 0 0 0 0 0 0 0 0 0 0 0 127 0" result="hardAlpha"/>
<feOffset/>
<feGaussianBlur stdDeviation="52.1797"/>
<feColorMatrix type="matrix" values="0 0 0 0 1 0 0 0 0 0.788235 0 0 0 0 0.262745 0 0 0 1 0"/>
<feBlend mode="normal" in2="effect5_dropShadow_2267_7087" result="effect6_dropShadow_2267_7087"/>
<feBlend mode="normal" in="SourceGraphic" in2="effect6_dropShadow_2267_7087" result="shape"/>
</filter>
<clipPath id="clip0_2267_7087">
<rect width="1920" height="904.14" fill="white"/>
</clipPath>
<clipPath id="clip1_2267_7087">
<rect width="31.45" height="30" fill="white" transform="translate(1738.14 493.137)"/>
</clipPath>
<clipPath id="clip2_2267_7087">
<rect width="41.9333" height="40" fill="white" transform="translate(32.498 147.137)"/>
</clipPath>
<clipPath id="clip3_2267_7087">
<rect width="67.0934" height="64" fill="white" transform="translate(527.311 580.137)"/>
</clipPath>
<clipPath id="clip4_2267_7087">
<rect width="314.5" height="300" fill="white" transform="translate(192.896 604.137)"/>
</clipPath>
<clipPath id="clip5_2267_7087">
<rect width="17.8693" height="17.0455" fill="white" transform="translate(1588.22 141.137)"/>
</clipPath>
<clipPath id="clip6_2267_7087">
<rect width="55.361" height="53.0114" fill="white" transform="matrix(0.981312 0.192424 -0.210666 0.977558 1865.68 656.137)"/>
</clipPath>
<clipPath id="clip7_2267_7087">
<rect width="104.833" height="100" fill="white" transform="translate(1513.79 691.137)"/>
</clipPath>
<clipPath id="clip8_2267_7087">
<rect width="52.4167" height="50" fill="white" transform="translate(229.586 206.137)"/>
</clipPath>
<clipPath id="clip9_2267_7087">
<rect width="322.887" height="308" fill="white" transform="translate(0 519.137)"/>
</clipPath>
<clipPath id="clip10_2267_7087">
<rect width="70.7753" height="72.6359" fill="white" transform="matrix(-0.268357 -0.955345 0.975866 -0.249427 104.971 98.3335)"/>
</clipPath>
<clipPath id="clip11_2267_7087">
<rect width="150" height="150" fill="white" transform="translate(960 809) rotate(-180)"/>
</clipPath>
</defs>
</svg>
