<svg width="101" height="100" viewBox="0 0 101 100" fill="none" xmlns="http://www.w3.org/2000/svg">
<g clip-path="url(#clip0_2910_10888)">
<path d="M32.8384 48.7012C32.0747 49.4626 32.0747 50.6993 32.8384 51.463C33.6021 52.2244 34.8381 52.2244 35.6002 51.463C36.3639 50.6993 36.3639 49.4626 35.6002 48.7012C34.8381 47.9375 33.6021 47.9375 32.8384 48.7012Z" fill="white"/>
<path d="M41.4225 84.2314L46.3488 76.0191L49.4135 79.0838C49.5486 79.2188 49.6981 79.3279 49.8568 79.4149L51.6253 91.7898C51.8542 93.3904 53.8088 94.0244 54.9395 92.8945L71.512 76.322C71.8256 76.0084 72.0224 75.5979 72.072 75.157L74.0686 57.1936L85.1137 46.1463C89.9637 41.2963 93.8257 34.5145 96.5936 25.9894C100.543 13.8244 100.865 2.47873 100.876 2.00114C100.889 1.46708 100.683 0.95057 100.305 0.572152C99.9269 0.193735 99.4134 -0.0137842 98.8756 0.000711635C98.3987 0.0129186 87.0531 0.334115 74.8873 4.28308C66.3622 7.05102 59.5804 10.9138 54.7304 15.7638L43.6861 26.8081L25.7197 28.8047C25.2787 28.8535 24.8683 29.0511 24.5547 29.3647L7.98217 45.9372C7.45879 46.4606 7.27645 47.2342 7.51067 47.9353C7.74413 48.6372 8.35448 49.1469 9.0869 49.2514L21.4618 51.0199C21.7021 51.4586 21.7227 51.3541 24.8576 54.5279L16.6453 59.4534C16.1296 59.7632 15.7855 60.2926 15.7123 60.89C15.6383 61.4866 15.8442 62.0848 16.2692 62.5097L38.3669 84.6075C39.2603 85.5009 40.7656 85.3262 41.4225 84.2314ZM54.9395 87.3701L53.5578 77.7021L69.6466 61.6148L68.265 74.0446L54.9395 87.3701ZM93.8058 21.6949L79.1818 7.07086C86.6418 4.99948 93.5121 4.27316 96.85 4.02674C96.6043 7.36535 95.8772 14.2356 93.8058 21.6949ZM57.4923 18.5256C61.69 14.3279 67.5669 10.9184 74.9651 8.37853L92.4989 25.9116C89.9583 33.3098 86.5488 39.1867 82.3511 43.3844L56.3204 69.4151L41.1295 54.2242C40.3666 53.4621 39.1299 53.4621 38.3669 54.2242C37.604 54.9872 37.604 56.2239 38.3669 56.9868L53.5578 72.1777L50.7952 74.9411L25.9364 50.0822L45.9627 30.0567L57.4923 18.5256ZM26.8321 32.6117L39.2642 31.2301L23.1746 47.3189L13.5066 45.9372L26.8321 32.6117ZM27.7049 57.3752L43.5015 73.1718L39.3603 80.0764L20.8011 61.5172L27.7049 57.3752Z" fill="white"/>
<path d="M4.20904 99.4278L24.5528 79.084C25.3157 78.3219 25.3157 77.0851 24.5528 76.3222C23.7898 75.5593 22.5539 75.5593 21.7909 76.3222L1.4472 96.6659C0.684265 97.4289 0.684265 98.6656 1.4472 99.4285C2.21014 100.191 3.4461 100.191 4.20904 99.4278Z" fill="white"/>
<path d="M30.0805 81.8456C29.3176 81.0827 28.0809 81.0827 27.3179 81.8456L15.2597 93.9039C14.4968 94.6668 14.4968 95.9035 15.2597 96.6665C16.0226 97.4286 17.2586 97.4286 18.0215 96.6665L30.0805 84.6075C30.8427 83.8445 30.8427 82.6078 30.0805 81.8456Z" fill="white"/>
<path d="M16.2672 70.7968L4.20892 82.855C3.44598 83.618 3.44598 84.8547 4.20892 85.6176C4.97186 86.3798 6.20782 86.3798 6.97076 85.6176L19.0298 73.5586C19.7919 72.7965 19.7919 71.5598 19.0298 70.7968C18.2668 70.0339 17.0301 70.0339 16.2672 70.7968Z" fill="white"/>
<path d="M72.6801 44.7663C77.2478 40.1978 77.2478 32.7637 72.6794 28.193C68.1094 23.6253 60.6753 23.626 56.1068 28.1937C51.5292 32.7721 51.5246 40.1864 56.1068 44.7663C60.6852 49.3462 68.0987 49.347 72.6801 44.7663ZM58.8694 30.9556C61.9143 27.9107 66.8711 27.9107 69.9175 30.9556C72.9624 34.002 72.9632 38.9588 69.9175 42.0037C66.8642 45.057 61.9227 45.0592 58.8694 42.0037C55.8161 38.9519 55.8146 34.0096 58.8694 30.9556Z" fill="white"/>
</g>
<defs>
<clipPath id="clip0_2910_10888">
<rect width="100" height="100" fill="white" transform="translate(0.875)"/>
</clipPath>
</defs>
</svg>
