<svg width="85" height="98" viewBox="0 0 85 98" fill="none" xmlns="http://www.w3.org/2000/svg">
<path d="M78.313 56.8125C76.9708 56.8125 75.6396 57.2562 74.563 58.0625L58.9458 69.7766C57.9427 67.6625 55.8036 66.1875 53.313 66.1875H47.2021C46.0958 66.1875 45.0068 66.0578 43.938 65.825V62.2812L49.1458 58.375H58.0005C66.3068 58.375 73.7739 53.7609 77.488 46.3312L79.7099 41.8859C79.9521 41.4016 79.9255 40.8266 79.6411 40.3656C79.3568 39.9047 78.8552 39.625 78.313 39.625H68.938C60.6318 39.625 53.1646 44.2391 49.4505 51.6688L47.413 55.7438L43.938 58.3641V53.5297C46.9943 52.9062 49.4068 50.4938 50.0302 47.4375H50.188C51.0505 47.4375 51.7505 46.7391 51.7505 45.875V39.8828C52.6114 36.9766 54.163 34.2188 56.263 31.9047C59.3989 28.4516 61.1255 23.9781 61.1255 19.3125C61.1255 8.97344 52.7146 0.5625 42.3755 0.5625C32.0364 0.5625 23.6255 8.97344 23.6255 19.3125C23.6255 23.9781 25.3521 28.4516 28.488 31.9047C30.588 34.2188 32.1396 36.9766 33.0005 39.8828V45.875C33.0005 46.7391 33.7005 47.4375 34.563 47.4375H34.7208C35.3443 50.4938 37.7568 52.9062 40.813 53.5297V58.375L37.3599 55.7844L35.3021 51.6672C31.5864 44.2391 24.1193 39.625 15.813 39.625H6.438C5.89582 39.625 5.39426 39.9062 5.10832 40.3672C4.82238 40.8281 4.79738 41.4031 5.03957 41.8875L7.26144 46.3328C10.9771 53.7609 18.4443 58.375 26.7505 58.375H35.6396L40.813 62.2781V64.8516C37.6552 63.6797 34.3536 63.0625 30.9755 63.0625C24.8927 63.0625 18.863 65.0719 13.9943 68.7234L11.3114 70.7359L10.8927 70.0563C10.4443 69.3266 9.49113 69.0938 8.75832 69.5359L0.945818 74.2234C0.588006 74.4391 0.330193 74.7859 0.231755 75.1922C0.133318 75.5984 0.200505 76.0266 0.419255 76.3828L12.9193 96.6953C13.2146 97.1734 13.7271 97.4375 14.2521 97.4375C14.5255 97.4375 14.8036 97.3656 15.0552 97.2141L22.8677 92.5266C23.2255 92.3109 23.4833 91.9641 23.5818 91.5578C23.6802 91.1516 23.613 90.7234 23.3943 90.3672L22.8193 89.4313L23.0271 89.3281C25.4646 88.1094 28.3302 87.7516 30.9911 88.3484L41.7114 90.7297C43.0724 91.0328 44.4739 91.1875 45.8739 91.1875C49.9989 91.1875 54.088 89.825 57.3911 87.3484L81.438 69.3125C83.3943 67.8453 84.563 65.5078 84.563 63.0625C84.563 59.6156 81.7599 56.8125 78.313 56.8125ZM58.0005 55.25H53.2974C60.0411 50.3875 67.3958 46.5531 75.2458 43.8281L74.6927 44.9344C71.5114 51.2969 65.1146 55.25 58.0005 55.25ZM68.938 42.75H69.3193C63.6114 45.1172 58.1849 48.0719 53.0818 51.5828C56.4693 46.0984 62.3958 42.75 68.938 42.75ZM31.6677 51.5828C26.5646 48.0703 21.138 45.1172 15.4302 42.75H15.813C22.3536 42.75 28.2818 46.0984 31.6677 51.5828ZM10.0583 44.9328L9.50519 43.8266C17.3552 46.5516 24.7114 50.3859 31.4536 55.2484H26.7505C19.6364 55.25 13.2396 51.2969 10.0583 44.9328ZM36.1255 44.3125V41.1875H48.6255V44.3125H36.1255ZM26.7505 19.3125C26.7505 10.6969 33.7599 3.6875 42.3755 3.6875C50.9911 3.6875 58.0005 10.6969 58.0005 19.3125C58.0005 23.2 56.5614 26.9266 53.9505 29.8047C51.7599 32.2172 50.0771 35.0516 49.0427 38.0625H35.7099C34.6739 35.0516 32.9927 32.2172 30.8021 29.8047C28.1896 26.9266 26.7505 23.2 26.7505 19.3125ZM37.9755 47.4375H46.7739C46.1271 49.2516 44.4083 50.5625 42.3739 50.5625C40.3396 50.5625 38.6224 49.2516 37.9755 47.4375ZM14.7708 93.7406L3.90988 76.0891L9.04269 73.0094L19.9052 90.6609L14.7708 93.7406ZM79.563 66.8125L55.5146 84.8484C51.8114 87.6234 46.8911 88.6859 42.388 87.6797L31.6677 85.2984C28.3146 84.5547 24.6989 84.9984 21.6271 86.5344L21.1724 86.7609L12.9552 73.4078L15.8693 71.2234C20.2005 67.9766 25.5646 66.1875 30.9755 66.1875C34.1943 66.1875 37.3396 66.7937 40.3255 67.9875C42.5239 68.8672 44.8364 69.3125 47.2021 69.3125H53.313C55.0364 69.3125 56.438 70.7141 56.438 72.4375C56.438 74.1609 55.0364 75.5625 53.313 75.5625H33.0005V78.6875H53.313C56.4693 78.6875 59.0599 76.3266 59.4771 73.2828L76.438 60.5625C76.9755 60.1594 77.6411 59.9375 78.313 59.9375C80.0364 59.9375 81.438 61.3391 81.438 63.0625C81.438 64.5297 80.7364 65.9313 79.563 66.8125Z" fill="white"/>
</svg>
