<svg width="101" height="100" viewBox="0 0 101 100" fill="none" xmlns="http://www.w3.org/2000/svg">
<path d="M45.115 27.4241H50.0371C53.9582 27.4241 57.1482 24.2341 57.1482 20.313V15.3909C57.1482 11.4698 53.9582 8.27979 50.0371 8.27979H45.115C41.1939 8.27979 38.0039 11.4698 38.0039 15.3909V20.313C38.0039 24.2341 41.1939 27.4241 45.115 27.4241ZM40.8789 15.3909C40.8789 13.0552 42.7793 11.1548 45.115 11.1548H50.0371C52.373 11.1548 54.2732 13.0552 54.2732 15.3909V20.313C54.2732 22.6487 52.3728 24.5491 50.0371 24.5491H45.115C42.7791 24.5491 40.8789 22.6487 40.8789 20.313V15.3909Z" fill="white"/>
<path d="M95.4877 12.5439L82.0613 7.47715C81.3187 7.19688 80.4891 7.57188 80.2088 8.31445C79.9285 9.05742 80.3033 9.88672 81.0463 10.167L92.5709 14.5162L72.0848 22.2471V6.78516L74.8451 7.82676C75.5883 8.10742 76.4174 7.73223 76.6976 6.98945C76.9779 6.24648 76.6031 5.41719 75.8602 5.13691L71.1547 3.36113C70.7135 3.19453 70.1059 3.33555 69.7176 3.60371C69.3893 3.83086 68.8863 4.20508 68.8863 5.41992V25.7344C68.7783 25.6574 68.6697 25.5811 68.5592 25.507C66.6551 24.2311 64.4871 23.4621 62.225 23.2473V20.9287C63.8387 20.8549 64.8623 20.4922 65.6062 19.7625C66.8311 18.5611 66.8027 16.823 66.7635 14.4178C66.8205 13.0777 66.6336 11.4959 65.6293 10.6482C64.456 9.53828 62.7645 9.45039 61.2783 9.47598C59.1832 3.94434 53.8322 0 47.5752 0C41.3182 0 35.9674 3.94434 33.8719 9.47617C32.3861 9.45039 30.6939 9.53848 29.5207 10.6484C28.5166 11.4961 28.3867 12.3564 28.3867 14.418C28.3867 16.8236 28.3193 18.5615 29.5439 19.7627C30.2879 20.4924 31.3113 20.8551 32.9252 20.9289V23.2475C30.6631 23.4623 28.4951 24.2311 26.591 25.5072C24.5461 26.8777 22.9049 28.7766 21.8447 30.9984L18.6721 37.6471C17.3203 40.4797 16.6059 43.6359 16.6059 46.7746L16.6057 61.841C16.6057 64.5668 18.3367 66.9967 20.9127 67.8871C22.106 68.4135 23.5234 68.4811 24.6139 67.668C25.501 67.0361 26.0305 66.0086 26.0305 64.9197V62.143C26.3141 62.4715 26.7144 62.6414 27.1183 62.6414C27.4447 62.6414 27.7732 62.5309 28.0426 62.3043C28.6504 61.7934 28.7287 60.8865 28.2178 60.2789L26.9701 58.7949C27.74 58.2047 28.3131 57.3594 28.5564 56.3592L30.0894 50.065V65.8607C29.1758 66.5402 28.5801 67.6246 28.5801 68.8481V74.9467C28.5801 76.1701 29.1758 77.2545 30.0894 77.934V82.8201C26.1367 83.9371 22.2801 85.4367 18.6125 87.2936C17.9043 87.6521 17.6207 88.5172 17.9795 89.2254C18.2328 89.7256 18.7385 90.0139 19.2631 90.0139C19.4814 90.0139 19.7033 89.9639 19.9113 89.8586C23.1717 88.2076 26.5881 86.8512 30.0894 85.8109V91.723C30.0894 93.6783 31.6801 95.2689 33.6353 95.2689H41.9264C43.8814 95.2689 45.4723 93.6783 45.4723 91.723L46.0377 83.3002C47.0623 83.275 48.0898 83.2738 49.1121 83.299L49.6775 91.723C49.6775 93.6783 51.2682 95.2689 53.2234 95.2689H61.5144C63.4695 95.2689 65.0603 93.6783 65.0603 91.723L65.0539 85.8076C66.3447 86.1916 67.6221 86.6234 68.8861 87.0934V92.0654C68.8861 92.8594 69.5297 93.5029 70.3236 93.5029C71.1176 93.5029 71.7611 92.8594 71.7611 92.0654V88.2461C77.0084 90.5061 81.9549 93.4992 86.3916 97.125H8.758C10.5125 95.6897 12.3506 94.3475 14.2439 93.1193C14.91 92.6873 15.0998 91.7971 14.6676 91.1311C14.2355 90.4648 13.3451 90.2752 12.6793 90.7072C10.0182 92.4334 7.46152 94.375 5.08046 96.4783C4.44784 97.0371 4.23222 97.9086 4.53124 98.6984C4.83027 99.4891 5.56952 100 6.41444 100H88.7359C89.5807 100 90.3199 99.4891 90.6191 98.6984C90.918 97.9086 90.7023 97.0371 90.0699 96.4783C84.6559 91.6961 78.4277 87.8453 71.7613 85.1246V62.11C73.0721 61.9197 74.3232 61.3242 75.3154 60.3543L77.0414 58.6672C77.958 57.8217 78.5697 56.6805 78.5441 55.4064V46.7748C78.5441 43.6361 77.8297 40.4799 76.4779 37.6473L73.3053 30.9986C72.8805 30.1084 72.3609 29.2713 71.7611 28.4979V25.442L95.4877 16.4883C96.316 16.1758 96.8514 15.4016 96.8514 14.5162C96.8514 13.6307 96.3162 12.8566 95.4877 12.5439ZM68.8863 29.5537V53.4596L68.8543 53.4908L65.8174 41.0127C65.6584 40.3598 65.3824 39.757 64.9982 39.2152L64.9867 29.6885C64.9867 28.5773 64.6978 27.5051 64.1789 26.5604C65.1572 26.8687 66.0926 27.3156 66.9586 27.8959C67.6682 28.3711 68.3117 28.9311 68.8863 29.5537ZM52.0926 84.6525L50.5519 63.2883C50.44 61.7354 49.1326 60.5186 47.5754 60.5186C46.0182 60.5186 44.7107 61.7352 44.5988 63.2883L43.058 84.6525C41.8607 83.6318 40.3103 83.0137 38.6176 83.0137H36.9451C35.4617 83.0137 34.0881 83.4889 32.965 84.2928V78.6713H38.9271C40.981 78.6713 42.6521 77.0002 42.6521 74.9463V68.8477C42.6521 66.7937 40.981 65.1227 38.9271 65.1227H32.9648V58.9777L34.8687 57.5631C35.5201 57.0793 36.3256 56.8127 37.1371 56.8127H37.3359C37.9387 58.4918 39.5459 59.6961 41.4299 59.6961C43.8275 59.6961 45.7783 57.7453 45.7783 55.3477C45.7783 53.3684 44.4486 51.6949 42.6359 51.1707C44.4486 50.6465 45.7783 48.973 45.7783 46.9938C45.7783 45.9982 45.4412 45.0805 44.8764 44.3467H50.274C49.7092 45.0805 49.3721 45.9982 49.3721 46.9938C49.3721 48.973 50.7018 50.6465 52.5144 51.1707C50.7018 51.6949 49.3721 53.3684 49.3721 55.3477C49.3721 57.7453 51.3228 59.6961 53.7205 59.6961C55.6043 59.6961 57.2117 58.4916 57.8144 56.8127H58.0133C58.8246 56.8127 59.6303 57.0793 60.2814 57.5631L62.1471 58.9496L62.1545 65.1228H56.223C54.1691 65.1228 52.498 66.7939 52.498 68.8479V74.9465C52.498 77.0004 54.1691 78.6715 56.223 78.6715H62.1703L62.1771 84.2873C61.0557 83.4869 59.685 83.0141 58.2053 83.0141H56.5328C54.84 83.0139 53.2896 83.6318 52.0926 84.6525ZM40.1959 41.1377C40.3766 41.701 40.6621 42.218 41.0305 42.6643C39.2228 42.8297 37.7326 44.1059 37.2486 45.8025H37.1371C35.9613 45.8025 34.7932 46.1219 33.7779 46.7107L36.9266 42.9111C37.7547 41.9119 38.9234 41.284 40.1959 41.1377ZM58.2238 42.9113L61.3725 46.7109C60.3572 46.1221 59.1891 45.8027 58.0133 45.8027H57.9017C57.4176 44.1059 55.9273 42.8299 54.1199 42.6645C54.4883 42.2182 54.7738 41.7012 54.9545 41.1379C56.2269 41.284 57.3957 41.9119 58.2238 42.9113ZM63.6947 74.9463C63.6947 75.415 63.3133 75.7963 62.8447 75.7963H56.2234C55.7547 75.7963 55.3734 75.415 55.3734 74.9463V68.8477C55.3734 68.3789 55.7549 67.9977 56.2234 67.9977H62.8447C63.3135 67.9977 63.6947 68.3789 63.6947 68.8477V74.9463ZM58.0133 53.9377H57.833C57.375 52.6055 56.2873 51.5643 54.9266 51.1707C56.1928 50.8045 57.2232 49.8781 57.7295 48.6777H58.0133C58.8246 48.6777 59.6303 48.9443 60.2816 49.4281L62.1373 50.807L62.1428 55.3645L61.9963 55.2555C60.8527 54.4057 59.4383 53.9377 58.0133 53.9377ZM53.7205 45.5203C54.533 45.5203 55.1939 46.1813 55.1939 46.9938C55.1939 47.8063 54.533 48.4672 53.7205 48.4672C52.908 48.4672 52.2471 47.8063 52.2471 46.9938C52.2471 46.1813 52.9082 45.5203 53.7205 45.5203ZM53.7205 53.8742C54.533 53.8742 55.1939 54.5352 55.1939 55.3477C55.1939 56.1602 54.533 56.8211 53.7205 56.8211C52.908 56.8211 52.2471 56.1602 52.2471 55.3477C52.2471 54.5352 52.9082 53.8742 53.7205 53.8742ZM50.5588 41.4717H44.5918C43.6318 41.4717 42.8508 40.6908 42.8508 39.7307C42.8508 38.7707 43.6318 37.9897 44.5918 37.9897H50.5588C51.5187 37.9897 52.2998 38.7705 52.2998 39.7307C52.2996 40.6906 51.5185 41.4717 50.5588 41.4717ZM37.3174 53.9377H37.1371C35.7123 53.9377 34.2976 54.4057 33.1541 55.2557L32.965 55.3963V50.843L34.8689 49.4283C35.5203 48.9445 36.3258 48.6779 37.1373 48.6779H37.4211C37.9273 49.8785 38.9578 50.8047 40.224 51.1709C38.8631 51.5643 37.7754 52.6055 37.3174 53.9377ZM41.4299 53.8742C42.2424 53.8742 42.9033 54.5352 42.9033 55.3477C42.9033 56.1602 42.2424 56.8211 41.4299 56.8211C40.6174 56.8211 39.9564 56.1602 39.9564 55.3477C39.9564 54.5352 40.6174 53.8742 41.4299 53.8742ZM41.4299 48.4672C40.6174 48.4672 39.9564 47.8063 39.9564 46.9938C39.9564 46.1813 40.6174 45.5203 41.4299 45.5203C42.2424 45.5203 42.9033 46.1813 42.9033 46.9938C42.9033 47.8063 42.2424 48.4672 41.4299 48.4672ZM38.9269 67.9978C39.3957 67.9978 39.7769 68.3791 39.7769 68.8479V74.9465C39.7769 75.4152 39.3955 75.7965 38.9269 75.7965H32.3057C31.8369 75.7965 31.4557 75.4152 31.4557 74.9465V68.8479C31.4557 68.3791 31.8371 67.9978 32.3057 67.9978H38.9269ZM63.6537 12.7369C63.7047 12.785 63.875 12.9309 63.875 13.4471C63.875 17.008 63.9363 17.3736 63.593 17.7104C63.4744 17.8266 63.1418 17.9947 62.225 18.05V14.6498C62.225 13.8695 62.1623 13.1039 62.0441 12.3562C62.7242 12.3797 63.3709 12.4693 63.6537 12.7369ZM47.5752 2.875C54.0678 2.875 59.35 8.15703 59.35 14.6498V26.0516C59.35 26.5557 59.0467 27.0004 58.5771 27.1846L54.4514 28.8021C50.0172 30.5406 45.133 30.5406 40.6988 28.8021L36.573 27.1846C36.1035 27.0006 35.8002 26.5559 35.8002 26.0516V14.6498C35.8004 8.15703 41.0826 2.875 47.5752 2.875ZM31.5574 17.7104C31.2141 17.3736 31.2723 13.8037 31.2754 13.4471C31.2914 12.9311 31.4457 12.785 31.4967 12.7369C31.7797 12.4693 32.4264 12.3797 33.1062 12.3562C32.9883 13.1039 32.9254 13.8695 32.9254 14.6498V18.0504C32.0086 17.9953 31.676 17.8266 31.5574 17.7104ZM22.9459 65.3264C22.8678 65.3822 22.7047 65.4646 22.4934 65.3916L21.8523 65.1697C20.4338 64.6795 19.4809 63.3416 19.4809 61.8408V59.6959H23.1555V64.9193C23.1557 65.1436 23.0242 65.2707 22.9459 65.3264ZM25.7635 55.6791C25.5998 56.3514 25.0021 56.8211 24.3101 56.8211H19.4812V46.7746C19.4812 44.0617 20.0988 41.3336 21.2672 38.885L24.4398 32.2363C25.2779 30.4801 26.5754 28.9789 28.1918 27.8955C29.0273 27.3355 29.9277 26.9002 30.8689 26.5932C30.3654 27.5252 30.09 28.5816 30.09 29.6881V30.4309C30.09 31.2248 30.7336 31.8684 31.5275 31.8684C32.3215 31.8684 32.965 31.2248 32.965 30.4309V29.6881C32.965 29.0723 33.1182 28.484 33.398 27.9646C33.8445 28.8119 34.584 29.4928 35.5238 29.8613L39.6496 31.4789C42.2051 32.4809 44.8902 32.9818 47.5754 32.9818C50.2605 32.9818 52.9457 32.4809 55.5012 31.4789L59.6269 29.8613C60.5392 29.5035 61.2631 28.8521 61.7131 28.0395C61.9701 28.543 62.1119 29.1068 62.1119 29.6898L62.1281 43.117L60.4377 41.0771C59.0559 39.4094 57.0719 38.3994 54.9299 38.2508C54.3115 36.4295 52.5863 35.1148 50.5588 35.1148H44.5918C42.5643 35.1148 40.8391 36.4295 40.2207 38.2508C38.0787 38.3994 36.0947 39.4094 34.7129 41.0771L32.965 43.1863V37.3189C32.965 36.525 32.3215 35.8814 31.5275 35.8814C30.7336 35.8814 30.09 36.525 30.09 37.3189V39.3037C29.7375 39.824 29.4828 40.3977 29.3332 41.0125L25.7635 55.6791ZM42.5975 91.7227C42.5975 92.0926 42.2965 92.3936 41.9266 92.3936H33.6355C33.2656 92.3936 32.9646 92.0926 32.9646 91.7227V89.8689C32.9646 87.6742 34.7502 85.8889 36.9447 85.8889H38.6172C40.8119 85.8889 42.5973 87.6744 42.5973 89.8689V91.7227H42.5975ZM46.2457 80.4178L47.4662 63.4949C47.4703 63.4383 47.5182 63.3937 47.5752 63.3937C47.6322 63.3937 47.6801 63.4383 47.6842 63.4949L48.9047 80.4191C48.0199 80.4012 47.132 80.3998 46.2457 80.4178ZM62.1855 91.7227C62.1855 92.0926 61.8846 92.3936 61.5146 92.3936H53.2236C52.8537 92.3936 52.5527 92.0926 52.5527 91.7227V89.8689C52.5527 87.6742 54.3383 85.8889 56.5328 85.8889H58.2053C60.3898 85.8889 62.1678 87.6584 62.1838 89.8393L62.1855 91.7227ZM65.0506 82.8115L65.0447 77.9453C65.9674 77.2666 66.5699 76.1768 66.5699 74.9463V68.8477C66.5699 67.6107 65.9615 66.5158 65.0307 65.8381L65.0121 49.8422L66.4648 55.8303C65.7289 56.5883 65.3871 57.6541 65.5508 58.701C65.7189 59.7771 66.4008 60.7104 67.3746 61.1975L67.981 61.5008C68.2762 61.6484 68.5791 61.7689 68.8863 61.8676V84.0309C67.6201 83.5842 66.341 83.1764 65.0506 82.8115ZM73.3057 58.2984C72.2324 59.3475 70.6098 59.6018 69.2676 58.9299C68.8361 58.7326 68.0205 58.3949 68.5355 57.8229L71.34 55.0812L71.3404 55.0809L72.8482 53.6068C73.3295 53.2471 73.6611 53.2479 74.1199 53.6789L75.1279 54.9164C75.5418 55.4246 75.5006 56.1531 75.0318 56.6111L73.3057 58.2984ZM73.8834 38.885C75.0518 41.3336 75.6693 44.0617 75.6693 46.7746V51.2223C75.0892 50.7941 74.3935 50.5336 73.6629 50.4922C73.2893 50.4717 72.9185 50.5098 72.5613 50.5977C72.5301 50.5824 71.7615 50.226 71.7615 50.226V34.4381L73.8834 38.885Z" fill="white"/>
</svg>
