<svg width="414" height="101" viewBox="0 0 414 101" fill="none" xmlns="http://www.w3.org/2000/svg">
<g clip-path="url(#clip0_2438_6866)">
<path fill-rule="evenodd" clip-rule="evenodd" d="M26.461 66.6209C24.9868 82.3113 19.1061 99.95 9.91264 99.95C-3.3842 99.95 -0.077697 68.6983 2.00947 49.2199C4.03197 30.3426 8.07714 3.61328 20.2678 3.61328C28.5453 3.61328 31.3001 16.736 29.7678 32.2973H25.7871C26.5226 21.3939 25.6 10.7229 19.4096 10.7229C9.72897 10.7229 7.09347 38.6713 5.80964 51.0463C4.33867 65.1429 1.0258 92.8396 11.1386 92.8396C18.0031 92.8396 21.0676 77.8976 22.4773 66.6203H26.4611L26.461 66.6209Z" fill="white"/>
<path fill-rule="evenodd" clip-rule="evenodd" d="M51.0395 62.3246L49.9363 15.878H49.8105L38.7815 62.3246H51.0395H51.0395ZM53.246 5.82129L55.817 97.7446H51.775L51.1589 69.435H37.1912L30.4492 97.7446H26.5879L48.6496 5.82129H53.2464H53.246Z" fill="white"/>
<path fill-rule="evenodd" clip-rule="evenodd" d="M69.6736 47.3812H76.6574C78.0058 47.3812 84.8736 46.4006 86.6509 29.9682C88.0574 16.4972 85.3606 12.9296 79.1089 12.9296H73.3509L69.6734 47.3796L69.6736 47.3812ZM68.9381 54.4909L64.3413 97.7476H60.3574L70.1026 5.82422H78.9898C87.3833 5.82422 92.6543 10.7209 90.6963 29.3596C89.7124 38.3079 86.7091 48.8436 81.6221 50.9339V51.1726C86.6511 53.8694 86.5253 62.0823 85.3608 73.5983C84.993 78.0113 82.9704 94.1919 84.993 96.6499L84.8736 97.7467H80.5188C79.5995 90.0177 81.4382 74.3337 81.8672 67.6047C82.7866 55.34 78.251 54.4887 73.0447 54.4887H68.9382L68.9381 54.4909Z" fill="white"/>
<path fill-rule="evenodd" clip-rule="evenodd" d="M90.0234 97.7439L99.7701 5.82227H120.602L119.867 12.9319H103.015L99.5218 46.0273H114.843L114.043 53.1373H98.7234L94.7401 90.6339H111.902L111.167 97.7439H90.0234Z" fill="white"/>
<path fill-rule="evenodd" clip-rule="evenodd" d="M117.234 97.7439L126.979 5.82227H147.813L147.076 12.9319H130.224L126.731 46.0273H142.054L141.254 53.1373H125.934L121.951 90.6339H139.113L138.376 97.7439H117.234Z" fill="white"/>
<path fill-rule="evenodd" clip-rule="evenodd" d="M153.515 47.3812H160.503C161.851 47.3812 168.712 46.4006 170.49 29.9682C171.899 16.4972 169.203 12.9296 162.954 12.9296H157.193L153.515 47.3796V47.3812ZM152.777 54.4909L148.186 97.7476H144.199L153.944 5.82422H162.832C171.225 5.82422 176.496 10.7209 174.535 29.3596C173.554 38.3079 170.551 48.8436 165.467 50.9339V51.1726C170.49 53.8694 170.37 62.0823 169.203 73.5983C168.835 78.0113 166.815 94.1919 168.835 96.6499L168.712 97.7467H164.361C163.444 90.0177 165.28 74.3337 165.709 67.6047C166.628 55.34 162.096 54.4887 156.886 54.4887H152.777L152.777 54.4909Z" fill="white"/>
<path fill-rule="evenodd" clip-rule="evenodd" d="M173.99 97.7439L183.724 5.82227H209.107L207.207 24.2093H192.624L190.84 40.5139H204.257L202.307 58.9006H188.874L184.774 97.7439H173.99Z" fill="white"/>
<path fill-rule="evenodd" clip-rule="evenodd" d="M228.84 32.5484C229.456 26.9034 229.946 20.1615 226.388 20.1615C222.959 20.1615 221.795 26.9034 221.182 32.5484L217.198 70.2918C216.585 75.5691 216.22 83.4078 219.711 83.4078C223.204 83.4078 224.246 75.5691 224.859 70.2918L228.84 32.5484H228.84ZM235.827 68.4585C233.621 89.1618 228.84 99.9488 217.934 99.9488C207.028 99.9488 204.392 89.1618 206.595 68.4585L210.582 31.0718C212.421 13.4201 218.731 3.62012 228.166 3.62012C237.604 3.62012 241.649 13.4201 239.811 31.0718L235.827 68.4585H235.827Z" fill="white"/>
<path fill-rule="evenodd" clip-rule="evenodd" d="M247.406 5.82227H258.193L250.839 75.2023C250.348 79.6153 250.658 83.4023 253.719 83.4023C256.539 83.4023 257.887 78.5056 258.316 74.5829L265.61 5.82293H276.393L269.348 72.3763C267.693 87.9439 262.913 99.9506 251.88 99.9506C242.751 99.9506 238.338 91.2539 240.361 72.3763L247.406 5.82293L247.406 5.82227Z" fill="white"/>
<path fill-rule="evenodd" clip-rule="evenodd" d="M286.64 46.2707L286.523 46.5207L282.04 97.7474H271.807L281.557 5.81836H292.64L295.523 57.1807H295.707L300.123 5.81836H310.357L300.607 97.7474H289.573L286.64 46.2707Z" fill="white"/>
<path fill-rule="evenodd" clip-rule="evenodd" d="M318.623 81.2007C325.733 82.1813 326.407 76.2973 327.51 64.0393L330.759 34.0137C331.797 23.2267 330.084 22.62 324.871 22.3687L318.623 81.202V81.2007ZM306.059 97.7427L315.807 5.81934H327.51C331.433 5.81934 336.152 6.07095 339.213 10.116C342.829 15.0193 342.584 23.9677 341.665 32.787L337.317 73.6003C336.271 82.8003 334.129 89.5423 330.575 93.4583C327.387 97.1423 323.894 97.7423 320.581 97.7423H306.059V97.7427Z" fill="white"/>
<path fill-rule="evenodd" clip-rule="evenodd" d="M356.322 44.9207H359.996C363.122 44.9207 364.467 39.1594 365.022 33.527C366.19 22.6174 363.98 22.1271 358.71 22.3657L356.322 44.9207ZM350.684 97.7474H339.896L349.642 5.81738H365.39C374.216 5.81738 377.893 12.927 375.929 31.198C374.89 41.0044 372.987 47.985 368.026 52.153V52.3918C370.845 53.7402 372.558 57.9144 372.071 64.2884C371.58 71.6368 369.987 87.4498 369.987 93.3334C370.106 94.5528 370.293 95.6625 370.661 96.5205L370.535 97.7463H358.774C358.648 96.0302 358.587 94.314 358.709 92.4753C359.384 84.385 360.426 76.785 360.732 71.1527C361.042 65.5077 360.551 61.83 358.1 61.4623H354.545L350.683 97.7457L350.684 97.7474Z" fill="white"/>
<path fill-rule="evenodd" clip-rule="evenodd" d="M392.607 35.8512H392.724L401.424 5.82422H412.224L395.49 59.1345L391.374 97.7479H380.59L384.707 59.1345L379.49 5.82422H390.407L392.607 35.8512Z" fill="white"/>
</g>
<defs>
<clipPath id="clip0_2438_6866">
<rect width="413.333" height="100" fill="white" transform="translate(0.0566406 0.390625)"/>
</clipPath>
</defs>
</svg>
