<svg width="236" height="51" viewBox="0 0 236 51" fill="none" xmlns="http://www.w3.org/2000/svg">
<path d="M235.155 23.0098V18.891H230.04V12.4879L229.868 12.5409L225.064 14.0108L224.969 14.0395V18.8913H217.387V16.1884C217.387 14.9299 217.668 13.9668 218.223 13.3245C218.773 12.6899 219.561 12.3673 220.566 12.3673C221.288 12.3673 222.036 12.5375 222.789 12.873L222.977 12.9573V8.61963L222.889 8.587C222.186 8.33462 221.232 8.20752 220.048 8.20752C218.556 8.20752 217.2 8.53218 216.018 9.1756C214.835 9.81992 213.905 10.7397 213.253 11.9092C212.604 13.0774 212.274 14.4265 212.274 15.9195V18.891H208.712V23.0098H212.274V40.3616H217.387V23.0098H224.969V34.0366C224.969 38.5779 227.111 40.8793 231.336 40.8793C232.03 40.8793 232.761 40.7979 233.507 40.6387C234.266 40.4751 234.783 40.3117 235.088 40.1373L235.155 40.0974V35.9405L234.947 36.0781C234.67 36.2629 234.324 36.4141 233.919 36.5264C233.512 36.6408 233.172 36.6982 232.909 36.6982C231.92 36.6982 231.187 36.4315 230.733 35.9052C230.274 35.3742 230.04 34.4455 230.04 33.1464V23.0098H235.155ZM197.295 36.6988C195.439 36.6988 193.976 36.0835 192.945 34.8714C191.908 33.6532 191.382 31.9165 191.382 29.7098C191.382 27.4331 191.908 25.6513 192.945 24.4115C193.977 23.18 195.426 22.5549 197.253 22.5549C199.026 22.5549 200.437 23.1519 201.448 24.3302C202.464 25.5146 202.98 27.2822 202.98 29.5854C202.98 31.9169 202.495 33.7078 201.539 34.9059C200.589 36.0948 199.161 36.6988 197.295 36.6988ZM197.522 18.3738C193.982 18.3738 191.17 19.4112 189.165 21.4572C187.161 23.5035 186.145 26.3352 186.145 29.8745C186.145 33.2361 187.137 35.9401 189.093 37.91C191.049 39.8806 193.711 40.8788 197.004 40.8788C200.436 40.8788 203.192 39.8269 205.197 37.7526C207.2 35.6805 208.216 32.8755 208.216 29.4189C208.216 26.0047 207.263 23.2806 205.383 21.3238C203.503 19.3661 200.857 18.3738 197.522 18.3738ZM177.902 18.3738C175.494 18.3738 173.501 18.9898 171.98 20.2044C170.449 21.4262 169.672 23.0286 169.672 24.9677C169.672 25.9757 169.84 26.871 170.169 27.6305C170.501 28.3924 171.015 29.0632 171.697 29.6262C172.375 30.1847 173.42 30.7696 174.805 31.3648C175.97 31.844 176.838 32.2493 177.39 32.5687C177.929 32.8818 178.311 33.1965 178.528 33.503C178.738 33.803 178.844 34.2135 178.844 34.7201C178.844 36.1626 177.764 36.8644 175.541 36.8644C174.717 36.8644 173.776 36.6923 172.746 36.3529C171.723 36.0186 170.758 35.5291 169.884 34.9016L169.672 34.7493V39.6717L169.749 39.708C170.473 40.0419 171.385 40.3235 172.46 40.5451C173.533 40.7669 174.508 40.8797 175.355 40.8797C177.968 40.8797 180.073 40.2608 181.608 39.0389C183.153 37.8087 183.937 36.1685 183.937 34.1623C183.937 32.7151 183.515 31.474 182.684 30.4731C181.859 29.4803 180.426 28.5688 178.428 27.7632C176.836 27.1243 175.817 26.594 175.396 26.1868C174.99 25.7935 174.784 25.2373 174.784 24.533C174.784 23.9086 175.039 23.4083 175.56 23.0033C176.086 22.5961 176.818 22.3891 177.736 22.3891C178.588 22.3891 179.46 22.5236 180.326 22.7873C181.193 23.0511 181.953 23.4043 182.588 23.8363L182.797 23.979V19.3097L182.717 19.2753C182.131 19.024 181.359 18.809 180.42 18.6346C179.486 18.4612 178.639 18.3738 177.902 18.3738ZM156.343 36.6988C154.488 36.6988 153.025 36.0835 151.994 34.8714C150.956 33.6532 150.431 31.9169 150.431 29.7098C150.431 27.4331 150.957 25.6513 151.995 24.4115C153.026 23.18 154.475 22.5549 156.302 22.5549C158.075 22.5549 159.486 23.1519 160.497 24.3302C161.513 25.5146 162.028 27.2822 162.028 29.5854C162.028 31.9169 161.543 33.7078 160.587 34.9059C159.638 36.0948 158.211 36.6988 156.343 36.6988ZM156.571 18.3738C153.03 18.3738 150.218 19.4112 148.214 21.4572C146.21 23.5035 145.194 26.3352 145.194 29.8745C145.194 33.2375 146.186 35.9401 148.142 37.91C150.098 39.8806 152.76 40.8788 156.053 40.8788C159.485 40.8788 162.242 39.8269 164.246 37.7526C166.249 35.6805 167.265 32.8755 167.265 29.4189C167.265 26.0047 166.312 23.2806 164.432 21.3238C162.551 19.3661 159.906 18.3738 156.571 18.3738ZM137.433 22.6093V18.891H132.382V40.3611H137.433V29.3783C137.433 27.5108 137.856 25.9766 138.692 24.8178C139.517 23.6727 140.616 23.0925 141.958 23.0925C142.413 23.0925 142.924 23.1675 143.477 23.3159C144.024 23.4634 144.42 23.6236 144.654 23.7921L144.866 23.946V18.8543L144.785 18.8192C144.314 18.6194 143.649 18.5186 142.807 18.5186C141.538 18.5186 140.402 18.9264 139.429 19.7293C138.575 20.435 137.958 21.4026 137.486 22.6093H137.433ZM123.338 18.3738C121.021 18.3738 118.954 18.8706 117.196 19.85C115.435 20.8317 114.073 22.2332 113.146 24.0153C112.223 25.7931 111.755 27.8697 111.755 30.1856C111.755 32.2141 112.209 34.0758 113.107 35.7165C114.005 37.3599 115.276 38.6456 116.886 39.5374C118.493 40.428 120.351 40.8795 122.407 40.8795C124.807 40.8795 126.857 40.3996 128.5 39.4533L128.566 39.4153V34.7883L128.354 34.9432C127.609 35.4854 126.778 35.9181 125.883 36.2299C124.99 36.5414 124.176 36.6988 123.463 36.6988C121.481 36.6988 119.89 36.0788 118.735 34.8563C117.578 33.6322 116.991 31.9133 116.991 29.7503C116.991 27.5738 117.603 25.8107 118.809 24.5099C120.012 23.2128 121.605 22.5549 123.546 22.5549C125.206 22.5549 126.824 23.117 128.354 24.2271L128.566 24.3809V19.5057L128.498 19.4672C127.922 19.1448 127.136 18.8786 126.161 18.6767C125.19 18.4753 124.24 18.3738 123.338 18.3738ZM108.276 18.8913H103.226V40.3611H108.276V18.8913ZM105.803 9.74493C104.971 9.74493 104.246 10.0279 103.651 10.5886C103.053 11.1509 102.749 11.8589 102.749 12.6945C102.749 13.5169 103.049 14.212 103.642 14.7593C104.23 15.3051 104.957 15.5817 105.803 15.5817C106.648 15.5817 107.378 15.3051 107.974 14.7602C108.573 14.212 108.877 13.5171 108.877 12.6945C108.877 11.8882 108.581 11.1874 107.998 10.6113C107.416 10.0363 106.677 9.74493 105.803 9.74493ZM93.2016 17.3072V40.3611H98.3558V10.4022H91.2222L82.1549 32.6548L73.3557 10.4022H65.9316V40.3609H70.7752V17.3049H70.9415L80.2333 40.3611H83.8885L93.0353 17.3072H93.2016Z" fill="white"/>
<path d="M24.7117 24.1492H0.953125V0.390625H24.7117V24.1492Z" fill="white"/>
<path d="M50.9436 24.1492H27.1855V0.390625H50.9436V24.1492Z" fill="white"/>
<path d="M24.711 50.3911H0.953125V26.6328H24.711V50.3911Z" fill="white"/>
<path d="M50.9436 50.3911H27.1855V26.6328H50.9436V50.3911Z" fill="white"/>
</svg>
