<svg width="51" height="51" viewBox="0 0 51 51" fill="none" xmlns="http://www.w3.org/2000/svg">
<g clip-path="url(#clip0_2247_12065)">
<path d="M50.5 10.3719C48.6406 11.1875 46.6594 11.7281 44.5938 11.9906C46.7188 10.7219 48.3406 8.72812 49.1031 6.325C47.1219 7.50625 44.9344 8.34063 42.6031 8.80625C40.7219 6.80313 38.0406 5.5625 35.1156 5.5625C29.4406 5.5625 24.8719 10.1688 24.8719 15.8156C24.8719 16.6281 24.9406 17.4094 25.1094 18.1531C16.5875 17.7375 9.04688 13.6531 3.98125 7.43125C3.09687 8.96563 2.57812 10.7219 2.57812 12.6125C2.57812 16.1625 4.40625 19.3094 7.13125 21.1312C5.48438 21.1 3.86875 20.6219 2.5 19.8688C2.5 19.9 2.5 19.9406 2.5 19.9812C2.5 24.9625 6.05312 29.1 10.7125 30.0531C9.87812 30.2812 8.96875 30.3906 8.025 30.3906C7.36875 30.3906 6.70625 30.3531 6.08437 30.2156C7.4125 34.275 11.1813 37.2594 15.6625 37.3562C12.175 40.0844 7.74688 41.7281 2.95312 41.7281C2.1125 41.7281 1.30625 41.6906 0.5 41.5875C5.04062 44.5156 10.4219 46.1875 16.225 46.1875C35.0875 46.1875 45.4 30.5625 45.4 17.0187C45.4 16.5656 45.3844 16.1281 45.3625 15.6938C47.3969 14.25 49.1063 12.4469 50.5 10.3719Z" fill="#100D26"/>
</g>
<defs>
<clipPath id="clip0_2247_12065">
<rect width="50" height="50" fill="white" transform="translate(0.5 0.875)"/>
</clipPath>
</defs>
</svg>
