<svg width="51" height="51" viewBox="0 0 51 51" fill="none" xmlns="http://www.w3.org/2000/svg">
<g clip-path="url(#clip0_2247_12048)" filter="url(#filter0_dddddd_2247_12048)">
<path d="M46.5104 10.7351L50.5 6.91842V6.08301H36.6791L26.8292 30.5997L15.6229 6.08301H1.13125V6.91842L5.79166 12.5288C6.24583 12.9434 6.48333 13.5497 6.42291 14.1601V36.208C6.56666 37.0017 6.30833 37.8184 5.75 38.3955L0.5 44.758V45.583H15.3854V44.7476L10.1354 38.3955C9.56666 37.8163 9.29791 37.0142 9.4125 36.208V17.1372L22.4792 45.5934H23.9979L35.2333 17.1372V39.8059C35.2333 40.4038 35.2333 40.5267 34.8417 40.9184L30.8 44.8288V45.6663H50.4083V44.8309L46.5125 41.0163C46.1708 40.758 45.9937 40.3246 46.0667 39.9038V11.8476C45.9937 11.4247 46.1687 10.9913 46.5104 10.7351Z" fill="#100D26"/>
</g>
<defs>
<filter id="filter0_dddddd_2247_12048" x="0.5" y="0.875" width="50" height="50" filterUnits="userSpaceOnUse" color-interpolation-filters="sRGB">
<feFlood flood-opacity="0" result="BackgroundImageFix"/>
<feColorMatrix in="SourceAlpha" type="matrix" values="0 0 0 0 0 0 0 0 0 0 0 0 0 0 0 0 0 0 127 0" result="hardAlpha"/>
<feOffset/>
<feColorMatrix type="matrix" values="0 0 0 0 1 0 0 0 0 1 0 0 0 0 1 0 0 0 1 0"/>
<feBlend mode="normal" in2="BackgroundImageFix" result="effect1_dropShadow_2247_12048"/>
<feColorMatrix in="SourceAlpha" type="matrix" values="0 0 0 0 0 0 0 0 0 0 0 0 0 0 0 0 0 0 127 0" result="hardAlpha"/>
<feOffset/>
<feColorMatrix type="matrix" values="0 0 0 0 1 0 0 0 0 1 0 0 0 0 1 0 0 0 1 0"/>
<feBlend mode="normal" in2="effect1_dropShadow_2247_12048" result="effect2_dropShadow_2247_12048"/>
<feColorMatrix in="SourceAlpha" type="matrix" values="0 0 0 0 0 0 0 0 0 0 0 0 0 0 0 0 0 0 127 0" result="hardAlpha"/>
<feOffset/>
<feColorMatrix type="matrix" values="0 0 0 0 1 0 0 0 0 1 0 0 0 0 1 0 0 0 1 0"/>
<feBlend mode="normal" in2="effect2_dropShadow_2247_12048" result="effect3_dropShadow_2247_12048"/>
<feColorMatrix in="SourceAlpha" type="matrix" values="0 0 0 0 0 0 0 0 0 0 0 0 0 0 0 0 0 0 127 0" result="hardAlpha"/>
<feOffset/>
<feColorMatrix type="matrix" values="0 0 0 0 1 0 0 0 0 1 0 0 0 0 1 0 0 0 1 0"/>
<feBlend mode="normal" in2="effect3_dropShadow_2247_12048" result="effect4_dropShadow_2247_12048"/>
<feColorMatrix in="SourceAlpha" type="matrix" values="0 0 0 0 0 0 0 0 0 0 0 0 0 0 0 0 0 0 127 0" result="hardAlpha"/>
<feOffset/>
<feColorMatrix type="matrix" values="0 0 0 0 1 0 0 0 0 1 0 0 0 0 1 0 0 0 1 0"/>
<feBlend mode="normal" in2="effect4_dropShadow_2247_12048" result="effect5_dropShadow_2247_12048"/>
<feColorMatrix in="SourceAlpha" type="matrix" values="0 0 0 0 0 0 0 0 0 0 0 0 0 0 0 0 0 0 127 0" result="hardAlpha"/>
<feOffset/>
<feColorMatrix type="matrix" values="0 0 0 0 1 0 0 0 0 1 0 0 0 0 1 0 0 0 1 0"/>
<feBlend mode="normal" in2="effect5_dropShadow_2247_12048" result="effect6_dropShadow_2247_12048"/>
<feBlend mode="normal" in="SourceGraphic" in2="effect6_dropShadow_2247_12048" result="shape"/>
</filter>
<clipPath id="clip0_2247_12048">
<rect width="50" height="50" fill="white" transform="translate(0.5 0.875)"/>
</clipPath>
</defs>
</svg>
