<svg width="563" height="101" viewBox="0 0 563 101" fill="none" xmlns="http://www.w3.org/2000/svg">
<g clip-path="url(#clip0_2525_6810)">
<path d="M12.1291 24.1396V36.0668H0.353516V42.5593H0.372011V54.5237H6.88248V42.5593H12.1291H18.6149H18.6334V24.1396H12.1291Z" fill="white"/>
<path d="M97.4862 47.1621V59.0955H85.7168V65.5818H85.7352V77.5521H92.2396V65.5818H97.4862H103.978H103.997V47.1621H97.4862Z" fill="white"/>
<path d="M24.3183 58.4658V70.393H12.5488V76.8793H12.5673V88.8496H19.0716V76.8793H24.3183H30.8041H30.8287V58.4658H24.3183Z" fill="white"/>
<path d="M85.3108 12.1094V24.0428H73.5352V30.5291H73.5536V42.4994H80.0639V30.5291H85.3108H91.7964H91.8148V12.1094H85.3108Z" fill="white"/>
<path d="M43.5041 0.390625V12.3179H55.2797V18.8103H55.255V30.7807H48.7509V18.8103H43.5041H37.0184H37V0.390625H43.5041Z" fill="white"/>
<path d="M104.01 42.5487H92.043V54.2919H85.5389V54.2734H73.5352V47.7872H85.5389V42.5487V36.0809V36.0625H104.01V42.5487Z" fill="white"/>
<path d="M30.8282 54.332H18.8615V66.0751H12.3572V66.0504H0.353516V59.5641H12.3572V54.332V47.8641V47.8457H30.8282V54.332Z" fill="white"/>
<path d="M55.2525 70.001V81.9344H67.0219V88.4207H67.0034V100.391H60.4991V88.4207H55.2525H48.7606H48.7422V70.001H55.2525Z" fill="white"/>
<path d="M24.3652 88.6454H36.9978V100.388H43.5084V100.37H55.2593V93.8776H43.5084V88.6454V82.1776V82.1592H24.3652V88.6454Z" fill="white"/>
<path d="M61.6328 76.4935H73.5994V88.23H80.1038V88.2116H92.3787V81.7254H80.1038V76.4935V70.0257V70.001H61.6328V76.4935Z" fill="white"/>
<path d="M12.1328 19.038H24.0933V30.7809H30.5977V30.7563H43.5818V24.27H30.5977V19.038V12.5702V12.5518H12.1328V19.038Z" fill="white"/>
<path d="M60.53 18.6198V6.87687H48.7422V0.390625H67.0344V0.409069V6.87687V12.1089H80.1725V18.6013" fill="white"/>
<path d="M30.6247 36.0537H24.0957V42.5646H30.6247V36.0537Z" fill="white"/>
<path d="M80.0639 59.1006H73.5352V65.6115H80.0639V59.1006Z" fill="white"/>
<path d="M67.0505 24.2705H60.5215V30.7814H67.0505V24.2705Z" fill="white"/>
<path d="M43.5287 70.001H37V76.5119H43.5287V70.001Z" fill="white"/>
<path d="M146.071 24.5117V47.1191L171.17 24.5117H181.775L153.3 50.1869L182.912 76.885H172.308L146.071 53.3278V76.885H138.549V24.5117H146.071Z" fill="white"/>
<path d="M216.526 69.3978C220.024 69.3978 222.715 68.4603 224.599 66.5856C226.482 64.7106 227.424 62.0325 227.424 58.5506V42.8459C227.424 41.1416 227.179 39.6197 226.69 38.2806C226.201 36.9416 225.479 35.8094 224.525 34.8841C223.596 33.9344 222.458 33.2163 221.113 32.7294C219.767 32.2422 218.238 31.9988 216.526 31.9988H197.298V69.3978H216.526ZM189.775 76.885V24.5117H216.526C219.339 24.5117 221.871 24.95 224.122 25.8265C226.397 26.6787 228.329 27.9083 229.919 29.5153C231.534 31.0979 232.769 33.0216 233.625 35.2859C234.506 37.5503 234.946 40.0703 234.946 42.8459V58.5506C234.946 61.3263 234.506 63.8462 233.625 66.1106C232.769 68.375 231.534 70.3109 229.919 71.9178C228.329 73.5003 226.397 74.73 224.122 75.6066C221.871 76.4587 219.339 76.885 216.526 76.885H189.775Z" fill="white"/>
<path d="M254.54 24.5117V69.3978H281.584V76.885H247.018V24.5117H254.54Z" fill="white"/>
<path d="M313.913 24.5117L334.203 76.885H326.681L322.022 64.8325H298.28L293.62 76.885H286.098L306.39 24.5117H313.913ZM301.142 57.3453H319.122L310.169 34.2631L301.142 57.3453Z" fill="white"/>
<path d="M343.232 24.5117H350.754V69.3978H380.807V24.5117H388.329V69.3978C388.329 70.4203 388.132 71.3944 387.742 72.3197C387.351 73.2203 386.814 74.0119 386.129 74.6934C385.442 75.3753 384.636 75.9109 383.707 76.3006C382.801 76.69 381.836 76.885 380.807 76.885H350.754C349.726 76.885 348.748 76.69 347.82 76.3006C346.914 75.9109 346.12 75.3753 345.432 74.6934C344.748 74.0119 344.211 73.2203 343.82 72.3197C343.429 71.3944 343.232 70.4203 343.232 69.3978V24.5117Z" fill="white"/>
<path d="M409.391 76.885H401.869V24.5117H409.391L441.022 65.1247V24.5117H448.544V76.885H441.022L409.391 36.2719V76.885Z" fill="white"/>
<path d="M462.047 31.9988C462.047 30.9762 462.244 30.0144 462.634 29.1135C463.025 28.1883 463.566 27.397 464.25 26.7396C464.934 26.0578 465.728 25.5222 466.634 25.1326C467.566 24.7187 468.544 24.5117 469.569 24.5117H498.119C499.147 24.5117 500.112 24.7187 501.019 25.1326C501.947 25.5222 502.753 26.0578 503.441 26.7396C504.125 27.397 504.662 28.1883 505.053 29.1135C505.444 30.0144 505.641 30.9762 505.641 31.9988V38.7553H498.119V31.9988H469.569V69.3978H498.119V62.6775H505.641V69.3978C505.641 70.4203 505.444 71.3944 505.053 72.3197C504.662 73.2203 504.125 74.0119 503.441 74.6934C502.753 75.3753 501.947 75.9109 501.019 76.3006C500.112 76.69 499.147 76.885 498.119 76.885H469.569C468.544 76.885 467.566 76.69 466.634 76.3006C465.728 75.9109 464.934 75.3753 464.25 74.6934C463.566 74.0119 463.025 73.2203 462.634 72.3197C462.244 71.3944 462.047 70.4203 462.047 69.3978V31.9988Z" fill="white"/>
<path d="M562.846 24.5117V76.885H555.325V54.46H525.2V76.885H517.678V24.5117H525.2V46.9731H555.325V24.5117H562.846Z" fill="white"/>
</g>
<defs>
<clipPath id="clip0_2525_6810">
<rect width="562.5" height="100" fill="white" transform="translate(0.353516 0.390625)"/>
</clipPath>
</defs>
</svg>
