<svg width="249" height="51" viewBox="0 0 249 51" fill="none" xmlns="http://www.w3.org/2000/svg">
<g clip-path="url(#clip0_2768_6639)">
<path d="M8.28714 33.3644C8.28714 36.2388 8.91803 38.4456 9.74264 39.7807C10.8238 41.5294 12.4364 42.2702 14.0803 42.2702C16.2008 42.2702 18.1405 41.744 21.8788 36.5739C24.8735 32.4299 28.4023 26.6131 30.7767 22.9665L34.7976 16.7885C37.5908 12.498 40.8238 7.72832 44.5306 4.49534C47.5568 1.85659 50.8212 0.390625 54.1065 0.390625C59.6222 0.390625 64.8761 3.58696 68.8971 9.58173C73.2976 16.1472 75.4337 24.4168 75.4337 32.9508C75.4337 38.0241 74.4337 41.7519 72.7322 44.6969C71.0882 47.5451 67.884 50.3906 62.4939 50.3906V42.2702C67.1091 42.2702 68.261 38.0294 68.261 33.176C68.261 26.2597 66.6484 18.5843 63.096 13.1C60.5751 9.21 57.3081 6.83303 53.7138 6.83303C49.8264 6.83303 46.6981 9.76497 43.1824 14.9927C41.3133 17.7702 39.3945 21.155 37.24 24.9744L34.8683 29.176C30.1039 37.6236 28.8971 39.5477 26.5149 42.7231C22.3395 48.2833 18.7741 50.3906 14.0803 50.3906C8.51227 50.3906 4.99133 47.9796 2.8107 44.3461C1.0306 41.3854 0.15625 37.5006 0.15625 33.0739L8.28714 33.3644Z" fill="white"/>
<path d="M6.56641 10.155C10.2942 4.40895 15.6737 0.390625 21.8439 0.390625C25.4172 0.390625 28.9695 1.44822 32.679 4.47701C36.7366 7.78853 41.0612 13.2414 46.4565 22.2283L48.391 25.4535C53.0612 33.2336 55.7182 37.2362 57.2732 39.1236C59.2732 41.5477 60.6737 42.2702 62.4931 42.2702C67.1083 42.2702 68.2601 38.0294 68.2601 33.176L75.4329 32.9508C75.4329 38.0241 74.4329 41.7519 72.7313 44.6969C71.0873 47.5451 67.8832 50.3906 62.4931 50.3906C59.1423 50.3906 56.1737 49.6629 52.891 46.566C50.3675 44.1891 47.4172 39.9665 45.1476 36.1707L38.3963 24.8932C35.0088 19.2336 31.9015 15.0137 30.1031 13.1027C28.1685 11.0477 25.6816 8.56602 21.713 8.56602C18.501 8.56602 15.7732 10.8199 13.4905 14.2676L6.56641 10.155Z" fill="white"/>
<path d="M21.7138 8.56602C18.5018 8.56602 15.7741 10.8199 13.4913 14.2676C10.2636 19.1393 8.28714 26.3959 8.28714 33.3644C8.28714 36.2388 8.91803 38.4456 9.74264 39.7807L2.8107 44.3461C1.0306 41.3854 0.15625 37.5006 0.15625 33.0739C0.15625 25.0241 2.36567 16.6341 6.56725 10.155C10.295 4.40895 15.6746 0.390625 21.8447 0.390625L21.7138 8.56602Z" fill="white"/>
<path d="M91.2402 1.97168H100.646L116.638 30.9036L132.633 1.97168H141.834V49.5109H134.162V13.0764L120.136 38.3068H112.937L98.913 13.0764V49.5109H91.2402V1.97168ZM165.876 19.6968C160.374 19.6968 157.06 23.8382 156.266 28.9664H174.942C174.557 23.6837 171.51 19.6968 165.876 19.6968ZM148.659 31.8879C148.659 21.0973 155.633 13.2439 166.01 13.2439C176.217 13.2439 182.311 20.9979 182.311 32.4638V34.5712H156.266C157.191 40.1497 160.892 43.9089 166.861 43.9089C171.622 43.9089 174.599 42.456 177.421 39.7989L181.497 44.791C177.656 48.3225 172.772 50.3591 166.588 50.3591C155.355 50.3591 148.659 42.168 148.659 31.8879ZM191.615 20.3774H184.552V14.0947H191.615V3.70466H199.018V14.0947H209.748V20.3774H199.018V36.3015C199.018 41.7387 200.756 43.6706 205.028 43.6706C206.978 43.6706 208.096 43.5031 209.748 43.2282V49.4429C207.691 50.024 205.727 50.291 203.601 50.291C195.609 50.291 191.615 45.9246 191.615 37.1837V20.3774ZM240.921 26.4874C239.434 22.7335 236.117 19.9691 231.243 19.9691C224.908 19.9691 220.853 24.4638 220.853 31.7858C220.853 38.9246 224.586 43.6366 230.939 43.6366C235.934 43.6366 239.499 40.7308 240.921 37.1157V26.4874ZM248.324 49.5109H241.057V44.5528C239.026 47.4717 235.329 50.3591 229.342 50.3591C219.714 50.3591 213.28 42.2989 213.28 31.7858C213.28 21.1732 219.868 13.2439 229.751 13.2439C234.636 13.2439 238.468 15.1968 241.057 18.6445V14.0947H248.324V49.5109Z" fill="white"/>
</g>
<defs>
<clipPath id="clip0_2768_6639">
<rect width="248.168" height="50" fill="white" transform="translate(0.15625 0.390625)"/>
</clipPath>
</defs>
</svg>
