<svg width="74" height="75" viewBox="0 0 74 75" fill="none" xmlns="http://www.w3.org/2000/svg">
<circle cx="36.742" cy="37.6331" r="30" transform="rotate(105 36.742 37.6331)" fill="#A89E9E"/>
<circle cx="36.7408" cy="37.6337" r="25" transform="rotate(105 36.7408 37.6337)" fill="#100D26"/>
<path d="M43.2093 61.7824C47.9858 60.5029 52.2757 57.8357 55.5362 54.118C58.7967 50.4003 60.8815 45.7991 61.5269 40.8965C62.1723 35.9939 61.3492 31.0099 59.1619 26.5751C56.9745 22.1403 53.5211 18.4537 49.2384 15.9817C44.9557 13.5097 40.0361 12.3633 35.1018 12.6875C30.1675 13.0117 25.4401 14.7919 21.5177 17.803C17.5952 20.8141 14.6538 24.9208 13.0655 29.6037C11.4772 34.2866 11.3133 39.3354 12.5946 44.1114C14.3121 50.5138 18.5021 55.9719 24.2431 59.2857C29.9842 62.5995 36.8063 63.4975 43.2093 61.7824ZM22.4552 37.2858L31.7933 34.7785L29.286 25.4405L37.0911 23.3573L39.5984 32.6954L48.9365 30.1881L51.0196 37.9932L41.6815 40.5005L44.1888 49.8386L36.3837 51.9217L33.8764 42.5836L24.5383 45.0909L22.4552 37.2858Z" fill="#96AAB9"/>
</svg>
