<svg width="101" height="100" viewBox="0 0 101 100" fill="none" xmlns="http://www.w3.org/2000/svg">
<g clip-path="url(#clip0_2910_10877)">
<path d="M88.6088 70.5709C88.0604 70.3435 87.4291 70.4691 87.0092 70.8888L70.9689 86.9291C70.5492 87.349 70.4236 87.9803 70.6509 88.5287C70.8779 89.0773 71.4134 89.4348 72.007 89.4348H88.0473C88.858 89.4348 89.515 88.7777 89.515 87.967V71.9267C89.5149 71.3332 89.1572 70.798 88.6088 70.5709ZM75.55 86.4994L86.5791 75.4703V86.4994H75.55Z" fill="white"/>
<path d="M99.2191 47.0444C98.6707 46.8171 98.0395 46.9427 97.6195 47.3624L93.2236 51.7583V21.8694C93.2236 21.0586 92.5664 20.4016 91.7558 20.4016H80.4783L84.572 16.3078C84.5726 16.3073 84.5732 16.3065 84.5738 16.3059L88.5183 12.3614C89.3635 11.5162 89.8289 10.392 89.8289 9.1967C89.8289 8.00138 89.3635 6.87755 88.5183 6.03204L83.957 1.47071C83.1119 0.625587 81.9877 0.160156 80.7923 0.160156C79.597 0.160156 78.473 0.625587 77.6277 1.47071L73.6812 5.4172L68.9124 10.186L58.697 20.4014H13.1367V5.88087C13.1367 5.07013 12.4795 4.41309 11.669 4.41309C5.30372 4.41349 0.125 9.59182 0.125 15.9575V78.2986C0.125 78.407 0.1375 78.5125 0.159766 78.614C0.3625 81.315 1.53106 83.8246 3.48399 85.7297C5.5715 87.7656 8.32716 88.8869 11.2436 88.8869H56.0948L47.6478 97.334C47.228 97.7539 47.1024 98.385 47.3296 98.9336C47.5567 99.482 48.0921 99.8397 48.6856 99.8397H98.6574C99.468 99.8397 100.125 99.1826 100.125 98.3719V48.4005C100.125 47.8069 99.7674 47.2716 99.2191 47.0444ZM79.7039 3.54669C80.3039 2.94629 81.2814 2.94629 81.8814 3.54669L86.4429 8.10822C87.0433 8.70842 87.0433 9.68557 86.4429 10.286L83.5345 13.1946L76.7951 6.45529L79.7039 3.54669ZM74.7193 8.53107L81.4586 15.2701L78.7654 17.9633L72.0265 11.2242L74.7193 8.53107ZM97.19 64.8931H94.482C93.6713 64.8931 93.0143 65.5501 93.0143 66.3609C93.0143 67.1716 93.6713 67.8287 94.482 67.8287H97.19V72.2517H94.482C93.6713 72.2517 93.0143 72.9087 93.0143 73.7195C93.0143 74.5302 93.6713 75.1873 94.482 75.1873H97.19V79.6101H94.482C93.6713 79.6101 93.0143 80.2672 93.0143 81.0779C93.0143 81.8886 93.6713 82.5457 94.482 82.5457H97.19V86.9687H94.482C93.6713 86.9687 93.0143 87.626 93.0143 88.4365C93.0143 89.2472 93.6713 89.9043 94.482 89.9043H97.19V96.9047H52.229L67.0548 82.0791C67.6281 81.5056 67.6281 80.5765 67.0548 80.0033C66.989 79.9375 66.9183 79.8804 66.8443 79.8296C66.2728 79.4382 65.4865 79.4959 64.9788 80.0033L59.0304 85.9517H11.2438C6.7922 85.9517 3.2086 82.4763 3.06758 78.0328C3.07598 77.7539 3.09766 77.4773 3.13243 77.2039C3.13262 77.2023 3.13282 77.2007 3.13301 77.1992C3.14942 77.0693 3.16915 76.94 3.19161 76.8115C3.19415 76.7968 3.19688 76.7822 3.19942 76.7675C3.21993 76.6529 3.24297 76.5388 3.26817 76.4251C3.2752 76.3935 3.28262 76.3619 3.29005 76.3304C3.31231 76.2343 3.33633 76.1388 3.36212 76.0437C3.37618 75.9921 3.39083 75.9412 3.40587 75.8898C3.42735 75.8152 3.44962 75.7408 3.47325 75.6671C3.49688 75.5935 3.52208 75.5207 3.54766 75.4478C3.56544 75.3968 3.58301 75.3458 3.60216 75.2953C3.6379 75.1992 3.67579 75.1041 3.71485 75.0097C3.72598 74.9826 3.73692 74.955 3.74844 74.9279C3.79864 74.8107 3.85079 74.6949 3.90587 74.5804C3.90821 74.5755 3.91036 74.5707 3.9127 74.5658C5.06075 72.19 7.26876 70.4187 9.91857 69.8691C9.926 69.8675 9.93342 69.8658 9.94084 69.8642C10.0623 69.8394 10.185 69.8181 10.3084 69.7984C10.3289 69.7951 10.3494 69.791 10.3703 69.7878C10.4819 69.7708 10.5946 69.7576 10.7072 69.7449C10.7389 69.7413 10.7703 69.7365 10.8022 69.7333C10.911 69.7224 11.0207 69.7152 11.1305 69.7083C11.1653 69.7062 11.2 69.7025 11.2348 69.7007C11.3785 69.6935 11.5235 69.6898 11.669 69.6898C12.4795 69.6898 13.1367 69.0328 13.1367 68.222V57.5796C13.1367 56.7689 12.4795 56.1118 11.669 56.1118C10.8584 56.1118 10.2012 56.7689 10.2012 57.5796V66.8466C7.72267 67.1601 5.42208 68.2656 3.60801 70.037C3.41719 70.2234 3.23633 70.4171 3.06016 70.614V15.9575C3.06016 11.7112 6.15118 8.17267 10.201 7.47384V21.8694V51.7087V51.7089C10.201 52.5194 10.8582 53.1767 11.6688 53.1767C12.4793 53.1767 13.1365 52.5194 13.1365 51.7089V51.7087V23.3372H55.7616L47.6476 31.4512C47.0743 32.0247 47.0743 32.9538 47.6476 33.527C48.2208 34.1001 49.1501 34.1001 49.7231 33.527L60.3429 22.9073C60.3433 22.9069 60.3435 22.9065 60.3439 22.9063L69.9503 13.2998L76.6892 20.0391L75.8986 20.8297C75.898 20.8303 75.8972 20.8309 75.8966 20.8315L46.3013 50.4272L39.5622 43.6882L45.3958 37.8546C45.969 37.2811 45.969 36.352 45.3958 35.7788C44.8225 35.2057 43.8932 35.2057 43.3202 35.7788L36.4485 42.6503C36.4118 42.687 36.3774 42.7259 36.3452 42.7657C36.3344 42.779 36.3249 42.7932 36.3147 42.8071C36.294 42.8347 36.2737 42.8624 36.2548 42.8913C36.244 42.9081 36.2342 42.9253 36.2241 42.9427C36.2079 42.97 36.1923 42.9977 36.178 43.0261C36.1686 43.0444 36.1602 43.063 36.1516 43.0821C36.1385 43.1108 36.1264 43.1401 36.1153 43.1694C36.1114 43.1798 36.1063 43.1895 36.1026 43.1999L33.243 51.3005L31.2934 56.8237C31.2676 56.8972 31.2491 56.9718 31.2352 57.047H26.354C25.5434 57.047 24.8862 57.704 24.8862 58.5148C24.8862 59.3255 25.5434 59.9825 26.354 59.9825H67.0013C67.812 59.9825 68.4691 59.3255 68.4691 58.5148C68.4691 57.704 67.812 57.047 67.0013 57.047H37.8386L46.7897 53.8872C46.7972 53.8845 46.8042 53.8808 46.8116 53.878C46.8464 53.8651 46.8806 53.8507 46.9144 53.8353C46.9278 53.829 46.9413 53.8232 46.9544 53.8167C46.9895 53.7991 47.0241 53.7798 47.0581 53.7591C47.069 53.7524 47.0804 53.7464 47.0911 53.7396C47.1265 53.7169 47.1608 53.6921 47.1946 53.6659C47.203 53.6595 47.2118 53.6538 47.22 53.6472C47.2608 53.6144 47.3009 53.579 47.3388 53.5411L77.5427 23.3374H90.2879V54.694L69.2925 75.6896C68.7193 76.263 68.7193 77.1921 69.2925 77.7654C69.3283 77.8011 69.3656 77.8347 69.404 77.8662C69.6732 78.0855 70.0019 78.1953 70.3304 78.1953C70.6589 78.1953 70.9878 78.0855 71.2568 77.8662C71.2953 77.8349 71.3326 77.8011 71.3683 77.7654C71.3689 77.7648 71.3683 77.7654 71.3689 77.7648L97.19 51.9435V64.8931ZM43.6167 51.8939L39.4124 53.378L36.6112 50.5769L38.0954 46.3726L43.6167 51.8939Z" fill="white"/>
</g>
<defs>
<clipPath id="clip0_2910_10877">
<rect width="100" height="100" fill="white" transform="translate(0.125)"/>
</clipPath>
</defs>
</svg>
