<svg width="24" height="24" viewBox="0 0 24 24" fill="none" xmlns="http://www.w3.org/2000/svg">
<path fill-rule="evenodd" clip-rule="evenodd" d="M3.27273 0H20.7273C22.5347 0 24 1.46525 24 3.27273V20.7273C24 22.5347 22.5347 24 20.7273 24H3.27273C1.46525 24 0 22.5347 0 20.7273V3.27273C0 1.46525 1.46525 0 3.27273 0ZM8.304 7.68185C8.52876 7.34548 8.64872 6.95001 8.64872 6.54545C8.64872 6.00297 8.43322 5.4827 8.04962 5.0991C7.66603 4.7155 7.14576 4.5 6.60327 4.5C6.19872 4.5 5.80325 4.61996 5.46687 4.84472C5.1305 5.06948 4.86833 5.38894 4.71351 5.76269C4.5587 6.13645 4.51819 6.54772 4.59712 6.9445C4.67604 7.34128 4.87085 7.70575 5.15691 7.99181C5.44298 8.27787 5.80744 8.47268 6.20422 8.55161C6.601 8.63053 7.01227 8.59002 7.38603 8.43521C7.75979 8.28039 8.07924 8.01822 8.304 7.68185ZM8.18316 9.95454V18.9914C8.18352 19.058 8.17069 19.1241 8.14543 19.1858C8.12017 19.2475 8.08296 19.3036 8.03595 19.3509C7.98893 19.3981 7.93304 19.4356 7.87148 19.4612C7.80992 19.4868 7.74391 19.5 7.67725 19.5H5.52134C5.45467 19.5002 5.38863 19.4872 5.327 19.4617C5.26537 19.4363 5.20938 19.399 5.16224 19.3518C5.1151 19.3047 5.07774 19.2487 5.05231 19.1871C5.02688 19.1254 5.01388 19.0594 5.01406 18.9927V9.95454C5.01406 9.82 5.06751 9.69097 5.16264 9.59584C5.25777 9.50071 5.3868 9.44727 5.52134 9.44727H7.67725C7.81155 9.44763 7.94022 9.50123 8.03506 9.59632C8.1299 9.69142 8.18316 9.82024 8.18316 9.95454ZM19.4554 19.0336V14.6591V14.6259C19.4556 12.7182 19.4558 9.29727 15.7709 9.29727C14.0977 9.29727 13.3136 9.90954 12.7845 10.7032V9.91499C12.7845 9.79131 12.7354 9.67268 12.6479 9.58522C12.5605 9.49776 12.4418 9.44863 12.3182 9.44863H10.0791C10.0179 9.44863 9.95731 9.4607 9.9008 9.48415C9.8443 9.50761 9.79297 9.54198 9.74978 9.58531C9.70658 9.62863 9.67236 9.68005 9.64907 9.73663C9.62578 9.7932 9.61388 9.85381 9.61407 9.91499V19.0336C9.61388 19.0948 9.62578 19.1554 9.64907 19.212C9.67236 19.2686 9.70658 19.32 9.74978 19.3633C9.79297 19.4066 9.8443 19.441 9.9008 19.4645C9.95731 19.4879 10.0179 19.5 10.0791 19.5H12.3182C12.4407 19.4982 12.5575 19.4483 12.6435 19.361C12.7295 19.2737 12.7777 19.1561 12.7777 19.0336V14.1436C12.835 13.4864 13.1254 12.0232 14.5504 12.0232C16.2545 12.0232 16.2208 13.8581 16.2067 14.6313C16.2055 14.6928 16.2045 14.7475 16.2045 14.7941V19.0336C16.2043 19.0949 16.2163 19.1556 16.2397 19.2123C16.263 19.269 16.2974 19.3205 16.3407 19.3638C16.3841 19.4071 16.4355 19.4415 16.4922 19.4649C16.5489 19.4882 16.6096 19.5002 16.6709 19.5H18.9891C19.0504 19.5002 19.1111 19.4882 19.1677 19.4649C19.2244 19.4415 19.2759 19.4071 19.3192 19.3638C19.3626 19.3205 19.3969 19.269 19.4203 19.2123C19.4437 19.1556 19.4556 19.0949 19.4554 19.0336Z" fill="#01FF85"/>
</svg>
