<svg width="138" height="129" viewBox="0 0 138 129" fill="none" xmlns="http://www.w3.org/2000/svg">
<g clip-path="url(#clip0_2910_12932)" filter="url(#filter0_dddddd_2910_12932)">
<path d="M59.2505 29.985L59.3705 29.965C63.553 29.315 66.6355 28.8675 68.003 28.6825C68.1062 28.6831 68.2069 28.6507 68.2905 28.59C68.2905 28.45 67.773 28.1075 66.998 27.59C66.223 27.0725 65.5305 26.6925 64.4105 26.6925C63.1355 26.6925 61.3455 26.765 59.088 26.905H58.998L58.923 26.855C58.173 26.355 57.408 25.885 56.8505 25.585C56.1855 25.2525 56.1255 25.2975 55.7905 25.7975L55.683 25.9725C55.493 26.28 55.2555 26.66 54.933 27.125L54.863 27.2275H54.738C51.183 27.55 48.238 27.885 46.858 28.12C44.9555 28.4175 44.3855 28.97 43.7305 29.7775C43.3957 30.2874 43.1269 30.8376 42.9305 31.415C42.7905 31.765 42.6305 32.165 42.4305 32.58C42.4219 32.5953 42.4144 32.6112 42.408 32.6275C42.5472 32.6319 42.6864 32.6201 42.823 32.5925C46.043 32.0375 49.0205 31.55 51.6705 31.14L52.2805 31.045L51.933 31.545C43.683 43.63 38.228 51.8825 35.283 56.775C35.2624 56.8084 35.2449 56.8435 35.2305 56.88H35.3105C35.7089 56.8623 36.1052 56.8121 36.4955 56.73C37.4266 56.5559 38.369 56.4489 39.3155 56.41C40.3155 56.41 40.9455 56.195 41.8905 54.975C47.6605 47.4375 56.4855 34.3725 59.173 30.0525L59.2505 29.985Z" fill="#43FAA2"/>
<path d="M104.355 24.6453C97.3626 17.6528 88.4535 12.8909 78.7545 10.9617C69.0556 9.03249 59.0024 10.0227 49.8661 13.807C40.7299 17.5913 32.921 23.9998 27.4269 32.2222C21.9329 40.4445 19.0003 50.1113 19.0002 60.0003C18.9706 70.2496 22.1145 80.2568 28.0002 88.6478C27.1727 89.9178 26.4102 91.1053 25.7277 92.1853C25.6812 92.2571 25.6458 92.3354 25.6227 92.4178C26.0772 92.3641 26.5242 92.2593 26.9552 92.1053C27.9725 91.7869 29.012 91.5445 30.0652 91.3803C31.1858 92.7676 32.3791 94.0944 33.6402 95.3553C38.2831 99.9985 43.7951 103.682 49.8614 106.195C55.9278 108.708 62.4297 110.001 68.9959 110.002C75.5622 110.002 82.0642 108.709 88.1307 106.196C94.1973 103.684 99.7095 100.001 104.353 95.3578C108.996 90.7149 112.679 85.2029 115.192 79.1366C117.705 73.0703 118.999 66.5683 118.999 60.0021C118.999 53.4358 117.706 46.9338 115.194 40.8673C112.681 34.8008 108.998 29.2885 104.355 24.6453ZM100.673 91.6728C96.5135 95.8323 91.5758 99.1318 86.1414 101.383C80.707 103.634 74.8824 104.793 69.0002 104.793C63.118 104.793 57.2934 103.634 51.859 101.383C46.4247 99.1318 41.4869 95.8323 37.3277 91.6728C36.2527 90.5978 35.2402 89.4795 34.2902 88.3178C36.7177 85.0803 39.3127 81.5828 41.5627 78.4353L41.6277 78.3428L41.7402 78.3278C44.3152 77.9478 47.3302 77.3878 50.0077 76.7928C50.6119 76.6811 51.1875 76.449 51.7002 76.1103C52.4302 75.4978 53.0502 74.4553 53.1227 74.0828C53.0128 74.0836 52.9032 74.0945 52.7952 74.1153C50.5102 74.4003 47.6852 74.6953 44.6202 74.9703L44.0527 75.0203L44.3777 74.5528C45.9427 72.3028 47.5777 69.9428 48.9477 67.9328C49.4982 67.1777 49.9463 66.3531 50.2802 65.4803L50.3327 65.3203L50.5002 65.3003C53.0502 64.9603 56.1502 64.4853 59.7177 63.8903C61.1777 63.6403 61.6627 63.4403 62.0702 62.9228C62.4469 62.5022 62.7503 62.0214 62.9677 61.5003C62.9686 61.4937 62.9686 61.4869 62.9677 61.4803C59.4127 61.6153 54.3652 62.0228 49.7427 62.5403L49.5877 62.5578L49.4977 62.4328C49.0972 61.8324 48.6374 61.2738 48.1252 60.7653C48.0202 60.6728 47.9527 60.6653 47.9102 60.6728C47.8027 60.6728 47.6052 60.7803 47.2752 61.2028C47.0477 61.5053 46.7752 61.8278 46.5252 62.1653C46.3402 62.3928 46.1502 62.6253 45.9602 62.8678L45.8927 62.9553L45.7827 62.9678C44.0102 63.1853 42.3002 63.4353 40.7827 63.6578L39.9702 63.7778C39.8567 63.7944 39.7458 63.8255 39.6402 63.8703C39.6361 63.9127 39.6361 63.9554 39.6402 63.9978C39.7202 64.6428 40.0477 65.5553 40.4077 65.8778C40.6727 66.1428 41.5377 66.2178 42.9852 66.1103L43.5627 66.0653L43.2202 66.5328C41.1652 69.3478 38.8077 72.7103 36.7752 75.6253L36.7052 75.7253L36.5827 75.7378C35.2052 75.8803 34.1027 76.0078 33.2152 76.1228C33.1477 76.1228 33.0377 76.1503 33.0027 76.2028C32.9677 76.2553 32.9402 76.3403 33.0502 76.6703C33.3677 77.5053 33.7002 78.3803 34.2777 78.8028L34.4877 78.9553L34.3402 79.1703C33.2252 80.8003 32.1427 82.3978 31.1102 83.9378C25.3552 74.8434 23.0663 63.9811 24.6624 53.3377C26.2585 42.6944 31.6327 32.9812 39.8022 25.9749C47.9717 18.9686 58.3904 15.1374 69.1527 15.182C79.915 15.2266 90.3016 19.144 98.4127 26.2178C98.3949 26.2394 98.3782 26.2619 98.3627 26.2853C96.2502 29.5728 93.6927 33.4353 90.9852 37.5353C88.9452 40.6153 86.8352 43.8028 84.9152 46.7478C83.4768 48.6476 81.6837 50.2505 79.6352 51.4678C77.8377 52.5378 76.0427 53.1778 74.8377 53.1778C74.0564 53.2128 73.2785 53.0548 72.5727 52.7178L72.4152 52.6303L72.4352 52.4528C72.8977 48.2353 78.6277 43.6428 83.4352 42.3578C83.5577 42.3303 83.7552 42.2578 83.7952 42.0753C83.8252 41.9453 83.8302 41.4553 82.6977 40.5628C81.7152 39.7853 80.9602 39.4678 80.0877 39.4678C77.2402 39.4678 72.7427 42.2353 70.2627 45.5103C69.3577 46.7253 68.8027 47.9011 68.5977 49.0378C65.9052 51.6653 62.7052 53.2203 59.7977 53.2203C59.1617 53.2273 58.5285 53.1362 57.9202 52.9503L57.7527 52.8928L57.7377 52.7178C57.7009 52.1687 57.7311 51.6171 57.8277 51.0753L57.8527 50.9078L58.0152 50.8603C60.7402 50.0453 63.2377 48.9978 64.8677 47.9853C67.1952 46.5328 68.3677 45.2353 68.3677 44.1528C68.3677 43.3478 67.9477 42.6528 66.9652 41.7928L66.9177 41.7403C65.7702 40.0178 64.9402 39.6803 63.8952 39.6803C61.1277 39.6803 56.9702 42.2003 54.6252 45.2978C52.9552 47.5478 52.2302 50.1278 52.8752 51.5628C53.4982 52.9974 54.581 54.1839 55.9527 54.9353C56.6277 55.2928 57.4527 55.4603 58.5177 55.4603C61.6852 55.4603 65.5952 53.3303 68.5177 50.2478C68.5702 51.5353 69.0902 52.7653 70.0877 53.9278C71.3377 55.3328 72.0552 55.8003 73.9027 55.8003C76.5827 55.8003 80.0952 53.2103 82.6802 50.4078C82.1502 51.4078 81.9002 52.1003 81.9002 52.6578C81.9002 53.3153 82.1927 53.8828 83.6202 54.5078C84.5752 54.9278 85.3902 55.1678 85.8702 55.1678C86.3502 55.1678 86.6627 54.7603 87.9452 52.4428C88.1952 51.9428 88.4877 51.4603 88.7577 50.9878C88.9327 50.6878 89.1027 50.3928 89.2577 50.0953L89.2977 50.0403C91.8502 47.3328 94.6277 44.8603 96.7302 43.4253L97.6202 42.8203L97.1202 43.7703C96.4944 44.8905 95.8076 45.9755 95.0627 47.0203C94.1752 48.3178 93.2577 49.6603 92.6852 50.9003C92.1227 52.2103 92.3627 53.4003 93.3977 54.4403C94.3527 55.3528 94.9727 55.6453 95.9452 55.6453C98.6252 55.6453 101.695 52.9103 102.96 51.4653C103.28 51.1078 103.28 50.9053 103.28 50.8303C103.282 50.7009 103.276 50.5715 103.263 50.4428C101.513 52.0053 99.5352 53.1003 97.6702 53.5253L97.2902 53.6103L97.3452 53.2253C97.5352 51.9278 98.8002 49.8353 100.025 47.8128C100.727 46.7128 101.364 45.5734 101.935 44.4003C102.553 43.0028 102.473 42.3728 101.578 41.5903C101.12 41.1084 100.492 40.8256 99.8277 40.8028C98.8277 40.8028 96.2927 42.2053 93.0227 44.5528L91.9777 45.3028L92.6377 44.2003C95.4477 39.4903 97.7177 35.9703 99.7827 33.1178C100.91 31.5553 101.498 30.3678 101.8 29.4928C109.542 37.766 113.834 48.6823 113.8 60.0128C113.804 64.3384 113.183 68.642 111.958 72.7903C110.648 73.1103 108.97 73.4153 106.958 73.7003L106.383 73.7803L106.695 73.2928C109.323 69.1728 109.458 68.4878 107.903 67.1903C107.646 66.9611 107.409 66.7101 107.195 66.4403C106.89 66.0703 106.733 65.8928 106.493 65.8928C106.18 65.8928 105.55 66.5303 104.57 67.8378C102.765 70.2603 101.375 72.2003 99.9202 74.3203L99.8527 74.4203L99.7302 74.4353C98.6002 74.5603 97.4327 74.6853 96.4127 74.8603C95.9127 74.9228 95.8202 74.9978 95.8127 75.0053C95.8252 75.2003 96.2227 75.9928 96.7652 76.4928C97.0382 76.7074 97.3709 76.8323 97.7177 76.8503L98.1552 76.8903L97.9202 77.2603C97.2652 78.2878 96.5652 79.3628 95.8027 80.5328L94.9277 81.8753V81.8878C91.9277 85.8878 87.7927 88.3578 84.1202 88.3578C83.4841 88.366 82.8507 88.2749 82.2427 88.0878L82.0752 88.0328L82.0602 87.8578C82.0236 87.3079 82.053 86.7557 82.1477 86.2128L82.1752 86.0478L82.3352 85.9978C85.0627 85.1853 87.5602 84.1353 89.1902 83.1228C91.5152 81.6703 92.6902 80.3728 92.6902 79.2928C92.6902 78.4853 92.2702 77.7803 91.2877 76.9303L91.2402 76.8778C90.0927 75.1553 89.2627 74.8178 88.2152 74.8178C85.4502 74.8178 81.2902 77.3378 78.9477 80.4353C78.1146 81.5302 77.5024 82.7767 77.1452 84.1053C74.3552 86.7878 70.8377 88.5703 68.0552 88.5703C67.5226 88.5935 66.9931 88.479 66.5177 88.2378L66.4327 88.1928L66.3977 88.1053C66.1852 87.5753 66.2652 86.9178 66.3827 86.2903L66.4127 86.1353L66.5602 86.0853C69.4802 85.1003 71.8252 84.0853 73.3377 83.1228C76.4177 81.1453 76.8377 79.9703 76.8377 78.9928C76.8377 78.2428 76.3077 77.3303 75.4877 76.6828L75.4327 76.6253C75.0952 76.1253 74.8027 75.9428 74.2227 75.5553L74.1377 75.5003C73.549 75.0663 72.8391 74.8276 72.1077 74.8178C69.4902 74.8178 65.6802 77.1178 63.4352 80.0528C62.2327 81.6353 61.5252 83.0903 61.3002 84.4128C58.5927 87.5903 56.3627 89.2128 54.9052 89.0403L54.6902 89.0128L54.6702 88.7953C54.5627 87.4903 55.6702 85.1303 58.0477 81.5778C67.9827 66.7603 69.0652 64.7328 69.0652 63.1053C69.0652 61.9378 68.0477 61.3703 66.6127 60.6978C66.3627 60.5853 66.2752 60.6253 66.1327 60.8253C62.2202 66.3603 57.7277 73.0478 52.0002 81.8728C50.5477 84.1228 49.6102 86.5878 49.6102 88.1753C49.5856 88.6716 49.6846 89.1663 49.8984 89.6149C50.1122 90.0635 50.4341 90.4519 50.8352 90.7453C51.7552 91.4803 52.6352 91.8378 53.5277 91.8378C55.8127 91.8378 58.4052 89.8378 61.2577 85.8603C61.3732 86.7663 61.7572 87.6169 62.3602 88.3028C64.2427 90.5353 65.5077 90.9853 66.9402 90.9853C70.0952 90.9853 73.9727 88.7878 76.9552 85.5278C76.9509 85.9298 77.0274 86.3285 77.1802 86.7003C77.8039 88.1277 78.8837 89.3077 80.2502 90.0553C80.9277 90.4128 81.7502 90.5803 82.8177 90.5803C86.1677 90.5803 90.3502 88.1978 93.3052 84.8303C92.4827 86.9528 93.0077 88.1028 94.1902 89.2053C95.029 90.0691 96.1763 90.5645 97.3802 90.5828C100.18 90.5828 103.35 88.3028 105.215 86.3503L105.285 86.2778C103.891 88.1939 102.349 89.9977 100.673 91.6728ZM58.2977 49.5803L58.6102 48.9478C60.0902 45.9478 63.2502 43.1828 65.9627 42.5278L66.2702 42.4528L66.2902 42.7678C66.3902 44.1903 65.6427 45.3728 63.7902 46.7203C62.8027 47.5003 60.9452 48.4978 58.9502 49.3128L58.2977 49.5803ZM98.3752 87.9553L98.0152 87.9778L98.1002 87.6253C98.5052 85.9628 100.47 82.8003 105.013 75.8753L105.073 75.7878L106.243 75.5128C107.178 75.2928 107.915 75.1203 108.418 74.9953C110.473 74.4828 111.168 74.0253 111.593 73.6478L111.728 73.5028C110.384 77.7765 108.4 81.8217 105.843 85.5003C105.911 85.3761 105.965 85.2444 106.003 85.1078L106.063 84.9153C106.138 84.6653 106.208 84.4503 106.25 84.2803C104.05 86.3628 100.985 87.7978 98.3752 87.9553ZM82.6027 84.7053L82.9152 84.0728C84.3952 81.0728 87.5552 78.3228 90.2677 77.6528L90.5752 77.5778L90.5952 77.8953C90.6952 79.3178 89.9452 80.4978 88.0952 81.8453C87.1077 82.6253 85.2502 83.6228 83.2552 84.4378L82.6027 84.7053ZM66.8677 84.7628L67.1977 84.1128C68.6202 81.3053 71.7727 77.9228 74.3827 77.3628L74.6327 77.3103L74.7027 77.5603C75.1177 79.0128 74.3302 80.5178 72.4252 81.9078C71.3302 82.7178 69.6427 83.6153 67.5427 84.5003L66.8677 84.7628Z" fill="#43FAA2"/>
</g>
<defs>
<filter id="filter0_dddddd_2910_12932" x="0.1" y="-8.9" width="137.8" height="137.8" filterUnits="userSpaceOnUse" color-interpolation-filters="sRGB">
<feFlood flood-opacity="0" result="BackgroundImageFix"/>
<feColorMatrix in="SourceAlpha" type="matrix" values="0 0 0 0 0 0 0 0 0 0 0 0 0 0 0 0 0 0 127 0" result="hardAlpha"/>
<feOffset/>
<feGaussianBlur stdDeviation="0.225"/>
<feColorMatrix type="matrix" values="0 0 0 0 0.231373 0 0 0 0 0.541176 0 0 0 0 0.0980392 0 0 0 1 0"/>
<feBlend mode="normal" in2="BackgroundImageFix" result="effect1_dropShadow_2910_12932"/>
<feColorMatrix in="SourceAlpha" type="matrix" values="0 0 0 0 0 0 0 0 0 0 0 0 0 0 0 0 0 0 127 0" result="hardAlpha"/>
<feOffset/>
<feGaussianBlur stdDeviation="0.45"/>
<feColorMatrix type="matrix" values="0 0 0 0 0.231373 0 0 0 0 0.541176 0 0 0 0 0.0980392 0 0 0 1 0"/>
<feBlend mode="normal" in2="effect1_dropShadow_2910_12932" result="effect2_dropShadow_2910_12932"/>
<feColorMatrix in="SourceAlpha" type="matrix" values="0 0 0 0 0 0 0 0 0 0 0 0 0 0 0 0 0 0 127 0" result="hardAlpha"/>
<feOffset/>
<feGaussianBlur stdDeviation="1.575"/>
<feColorMatrix type="matrix" values="0 0 0 0 0.231373 0 0 0 0 0.541176 0 0 0 0 0.0980392 0 0 0 1 0"/>
<feBlend mode="normal" in2="effect2_dropShadow_2910_12932" result="effect3_dropShadow_2910_12932"/>
<feColorMatrix in="SourceAlpha" type="matrix" values="0 0 0 0 0 0 0 0 0 0 0 0 0 0 0 0 0 0 127 0" result="hardAlpha"/>
<feOffset/>
<feGaussianBlur stdDeviation="3.15"/>
<feColorMatrix type="matrix" values="0 0 0 0 0.231373 0 0 0 0 0.541176 0 0 0 0 0.0980392 0 0 0 1 0"/>
<feBlend mode="normal" in2="effect3_dropShadow_2910_12932" result="effect4_dropShadow_2910_12932"/>
<feColorMatrix in="SourceAlpha" type="matrix" values="0 0 0 0 0 0 0 0 0 0 0 0 0 0 0 0 0 0 127 0" result="hardAlpha"/>
<feOffset/>
<feGaussianBlur stdDeviation="5.4"/>
<feColorMatrix type="matrix" values="0 0 0 0 0.231373 0 0 0 0 0.541176 0 0 0 0 0.0980392 0 0 0 1 0"/>
<feBlend mode="normal" in2="effect4_dropShadow_2910_12932" result="effect5_dropShadow_2910_12932"/>
<feColorMatrix in="SourceAlpha" type="matrix" values="0 0 0 0 0 0 0 0 0 0 0 0 0 0 0 0 0 0 127 0" result="hardAlpha"/>
<feOffset/>
<feGaussianBlur stdDeviation="9.45"/>
<feColorMatrix type="matrix" values="0 0 0 0 0.231373 0 0 0 0 0.541176 0 0 0 0 0.0980392 0 0 0 1 0"/>
<feBlend mode="normal" in2="effect5_dropShadow_2910_12932" result="effect6_dropShadow_2910_12932"/>
<feBlend mode="normal" in="SourceGraphic" in2="effect6_dropShadow_2910_12932" result="shape"/>
</filter>
<clipPath id="clip0_2910_12932">
<rect width="100" height="100" fill="white" transform="translate(19 10)"/>
</clipPath>
</defs>
</svg>
