<svg width="101" height="100" viewBox="0 0 101 100" fill="none" xmlns="http://www.w3.org/2000/svg">
<path d="M86.313 57.8125C84.9708 57.8125 83.6396 58.2562 82.563 59.0625L66.9458 70.7766C65.9427 68.6625 63.8036 67.1875 61.313 67.1875H55.2021C54.0958 67.1875 53.0068 67.0578 51.938 66.825V63.2812L57.1458 59.375H66.0005C74.3068 59.375 81.7739 54.7609 85.488 47.3312L87.7099 42.8859C87.9521 42.4016 87.9255 41.8266 87.6411 41.3656C87.3568 40.9047 86.8552 40.625 86.313 40.625H76.938C68.6318 40.625 61.1646 45.2391 57.4505 52.6688L55.413 56.7438L51.938 59.3641V54.5297C54.9943 53.9062 57.4068 51.4937 58.0302 48.4375H58.188C59.0505 48.4375 59.7505 47.7391 59.7505 46.875V40.8828C60.6114 37.9766 62.163 35.2187 64.263 32.9047C67.3989 29.4516 69.1255 24.9781 69.1255 20.3125C69.1255 9.97344 60.7146 1.5625 50.3755 1.5625C40.0364 1.5625 31.6255 9.97344 31.6255 20.3125C31.6255 24.9781 33.3521 29.4516 36.488 32.9047C38.588 35.2187 40.1396 37.9766 41.0005 40.8828V46.875C41.0005 47.7391 41.7005 48.4375 42.563 48.4375H42.7208C43.3443 51.4937 45.7568 53.9062 48.813 54.5297V59.375L45.3599 56.7844L43.3021 52.6672C39.5864 45.2391 32.1193 40.625 23.813 40.625H14.438C13.8958 40.625 13.3943 40.9063 13.1083 41.3672C12.8224 41.8281 12.7974 42.4031 13.0396 42.8875L15.2614 47.3328C18.9771 54.7609 26.4443 59.375 34.7505 59.375H43.6396L48.813 63.2781V65.8516C45.6552 64.6797 42.3536 64.0625 38.9755 64.0625C32.8927 64.0625 26.863 66.0719 21.9943 69.7234L19.3114 71.7359L18.8927 71.0563C18.4443 70.3266 17.4911 70.0938 16.7583 70.5359L8.94582 75.2234C8.58801 75.4391 8.33019 75.7859 8.23176 76.1922C8.13332 76.5984 8.20051 77.0266 8.41926 77.3828L20.9193 97.6953C21.2146 98.1734 21.7271 98.4375 22.2521 98.4375C22.5255 98.4375 22.8036 98.3656 23.0552 98.2141L30.8677 93.5266C31.2255 93.3109 31.4833 92.9641 31.5818 92.5578C31.6802 92.1516 31.613 91.7234 31.3943 91.3672L30.8193 90.4312L31.0271 90.3281C33.4646 89.1094 36.3302 88.7516 38.9911 89.3484L49.7114 91.7297C51.0724 92.0328 52.4739 92.1875 53.8739 92.1875C57.9989 92.1875 62.088 90.825 65.3911 88.3484L89.438 70.3125C91.3943 68.8453 92.563 66.5078 92.563 64.0625C92.563 60.6156 89.7599 57.8125 86.313 57.8125V57.8125ZM66.0005 56.25H61.2974C68.0411 51.3875 75.3958 47.5531 83.2458 44.8281L82.6927 45.9344C79.5114 52.2969 73.1146 56.25 66.0005 56.25V56.25ZM76.938 43.75H77.3193C71.6114 46.1172 66.1849 49.0719 61.0818 52.5828C64.4693 47.0984 70.3958 43.75 76.938 43.75ZM39.6677 52.5828C34.5646 49.0703 29.138 46.1172 23.4302 43.75H23.813C30.3536 43.75 36.2818 47.0984 39.6677 52.5828ZM18.0583 45.9328L17.5052 44.8266C25.3552 47.5516 32.7114 51.3859 39.4536 56.2484H34.7505C27.6364 56.25 21.2396 52.2969 18.0583 45.9328V45.9328ZM44.1255 45.3125V42.1875H56.6255V45.3125H44.1255ZM34.7505 20.3125C34.7505 11.6969 41.7599 4.6875 50.3755 4.6875C58.9911 4.6875 66.0005 11.6969 66.0005 20.3125C66.0005 24.2 64.5614 27.9266 61.9505 30.8047C59.7599 33.2172 58.0771 36.0516 57.0427 39.0625H43.7099C42.6739 36.0516 40.9927 33.2172 38.8021 30.8047C36.1896 27.9266 34.7505 24.2 34.7505 20.3125V20.3125ZM45.9755 48.4375H54.7739C54.1271 50.2516 52.4083 51.5625 50.3739 51.5625C48.3396 51.5625 46.6224 50.2516 45.9755 48.4375V48.4375ZM22.7708 94.7406L11.9099 77.0891L17.0427 74.0094L27.9052 91.6609L22.7708 94.7406ZM87.563 67.8125L63.5146 85.8484C59.8114 88.6234 54.8911 89.6859 50.388 88.6797L39.6677 86.2984C36.3146 85.5547 32.6989 85.9984 29.6271 87.5344L29.1724 87.7609L20.9552 74.4078L23.8693 72.2234C28.2005 68.9766 33.5646 67.1875 38.9755 67.1875C42.1943 67.1875 45.3396 67.7938 48.3255 68.9875C50.5239 69.8672 52.8364 70.3125 55.2021 70.3125H61.313C63.0364 70.3125 64.438 71.7141 64.438 73.4375C64.438 75.1609 63.0364 76.5625 61.313 76.5625H41.0005V79.6875H61.313C64.4693 79.6875 67.0599 77.3266 67.4771 74.2828L84.438 61.5625C84.9755 61.1594 85.6411 60.9375 86.313 60.9375C88.0364 60.9375 89.438 62.3391 89.438 64.0625C89.438 65.5297 88.7364 66.9313 87.563 67.8125V67.8125Z" fill="white"/>
</svg>
