<svg width="323" height="101" viewBox="0 0 323 101" fill="none" xmlns="http://www.w3.org/2000/svg">
<g clip-path="url(#clip0_2525_6798)">
<path d="M50.6937 0.390625C78.381 0.716358 100.531 23.1919 100.531 50.8792C100.531 78.5665 77.7295 100.716 50.0422 100.716C22.3549 100.391 0.205078 77.9151 0.205078 50.5535C0.205078 22.5405 23.0064 0.390625 50.6937 0.390625Z" fill="white"/>
<path d="M56.5926 79.5929L50.7294 82.8502L38.3516 75.6841L43.889 72.4268H44.2148L56.5926 79.5929Z" fill="#081134"/>
<path d="M78.4176 34.6416V41.1562L66.3654 33.9901L63.1081 32.0357L59.8508 33.9901L44.5413 43.4364L41.284 45.3908V49.2996L35.0951 45.7165L31.8378 43.7621L28.5804 45.7165L23.043 48.9738V34.6416L50.7303 18.6807L78.4176 34.6416Z" fill="#081134"/>
<path d="M78.4177 48.9735V66.8888L63.1083 75.6836L47.7988 66.8888V48.9735L63.1083 40.1787L78.4177 48.9735Z" fill="#081134"/>
<path d="M40.6325 56.4656V66.5634L31.8378 71.7751L23.043 66.8891V56.7914L31.8378 51.2539L40.6325 56.4656Z" fill="#081134"/>
<path d="M139.733 30.7328V47.9966H171.003V60.0487H139.733V83.8272H124.098V18.6807H175.238V30.7328H139.733Z" fill="white"/>
<path d="M182.078 18.6807H197.062V83.5015H182.078V18.6807Z" fill="white"/>
<path d="M261.558 31.3838V83.5011H247.226V77.3121C242.991 81.8724 237.128 84.4783 230.939 84.1525C217.91 84.1525 208.789 76.6607 208.789 60.6997V31.3838H223.773V58.7454C223.773 67.5401 227.682 71.4489 234.196 71.4489C241.037 71.4489 246.248 66.8887 246.248 57.4424V31.3838H261.558Z" fill="white"/>
<path d="M305.204 83.5011L293.804 67.5401L282.077 83.5011H265.465L285.66 57.1167L266.442 31.3838H283.38L294.455 46.6932L305.856 31.3838H321.817L302.598 56.791L322.794 83.5011H305.204Z" fill="white"/>
</g>
<defs>
<clipPath id="clip0_2525_6798">
<rect width="322.15" height="100" fill="white" transform="translate(0.205078 0.390625)"/>
</clipPath>
</defs>
</svg>
