<svg width="614" height="613" viewBox="0 0 614 613" fill="none" xmlns="http://www.w3.org/2000/svg">
<g clip-path="url(#clip0_2118_6559)">
<path d="M415.921 364.186L297.814 547.484L265.169 571.295L98.4411 475.035L102.74 434.858L202.427 240.925" fill="#FFC96F"/>
<path d="M290.726 454.247C290.726 454.247 381.71 493.461 455.586 450.716C455.586 450.716 518.946 451.734 504.236 396.835C500.066 381.271 501.946 370.556 474.503 372.652C447.06 374.748 440.664 397.289 440.664 397.289C440.664 397.289 398.273 403.592 368.566 396.488" fill="#69BDFB"/>
<path d="M440.451 397.245C440.451 397.245 446.847 374.704 474.29 372.608C501.733 370.512 499.878 381.321 504.023 396.791C518.759 451.785 455.373 450.672 455.373 450.672C464.111 413.855 440.451 397.245 440.451 397.245Z" fill="#9CD3FC"/>
<path d="M335.572 91.1064C349.69 82.6727 353.137 24.2226 386.893 35.499C420.649 46.7753 420.766 91.7341 410.312 113.845C399.859 135.957 306.299 157.69 335.864 256.329C436.045 232.518 408.086 140.627 422.033 120.613C435.981 100.598 474.949 78.1256 501.593 101.721C528.143 125.342 479.366 157.621 479.096 173.97C478.852 190.414 525.491 259.203 416.586 320.635C416.586 320.635 358.975 440.307 290.701 454.153L187.005 394.283C164.927 328.114 239.692 218.505 239.692 218.505C238.561 93.5437 321.453 99.5401 335.572 91.1064Z" fill="#9CD3FC"/>
<path d="M133.841 440.375C151.035 410.594 187.029 394.378 187.029 394.378L290.726 454.247C290.726 454.247 294.654 493.433 277.485 523.308C251.936 567.562 199.147 579.583 161.736 558.064C124.325 536.545 108.386 484.603 133.841 440.375Z" fill="#CDE9FE"/>
<path d="M157.408 437.397C169.492 416.466 202.415 430.291 227.173 444.585C251.931 458.879 280.434 480.359 268.281 501.409C248.601 535.496 209.937 539.487 181.736 523.285C153.604 506.963 137.728 471.484 157.408 437.397Z" fill="#3279AF"/>
<path d="M192.855 504.028C208.164 512.867 225.947 512.45 236.944 502.931L243.37 510.309C229.174 522.605 206.944 523.405 187.952 512.52L192.855 504.028Z" fill="#CDE9FE"/>
<path d="M297.376 422.843L290.726 454.247L274.819 445.063L277.855 411.493" fill="#3279AF"/>
<path d="M351.262 302.854C339.072 306.12 331.837 318.651 335.104 330.841C338.37 343.032 350.901 350.266 363.091 347C375.282 343.733 382.516 331.203 379.25 319.013C375.983 306.822 363.453 299.588 351.262 302.854Z" fill="#69BDFB"/>
<path d="M360.755 313.757C379.175 308.923 417.329 300.014 444.796 302.157C458.932 303.222 470.204 307.178 474.567 315.917C490.502 347.841 386.976 372.75 385.75 373.079C391.345 364.907 396.305 357.006 400.499 350.019C400.499 350.019 446.988 340.898 443.245 325.422C441.943 319.806 430.373 319.266 416.216 321.139C398.818 323.374 377.261 328.948 365.659 332.057L365.564 332.082C360.848 333.346 356.001 331.106 354.197 326.635C351.926 321.178 355.07 315.179 360.755 313.757Z" fill="#3279AF"/>
<path d="M337.066 467.207C353.3 454.971 353.363 438.98 353.363 438.98L376.816 440.481C383.094 455.986 367.365 470.108 366.875 470.543C356.206 469.964 346.19 468.806 337.066 467.207Z" fill="#DB3529"/>
<path d="M187.031 394.378C187.031 394.378 107.579 335.19 107.66 249.839C107.66 249.839 75.0973 195.477 129.996 180.767C145.561 176.596 153.9 169.61 165.806 194.425C177.713 219.24 161.39 236.049 161.39 236.049C161.39 236.049 177.126 275.912 198.132 298.087" fill="#69BDFB"/>
<path d="M210.99 372.489C210.99 372.489 208.158 344.94 228.308 314.872L338.823 378.677C322.858 411.162 297.583 422.484 297.583 422.484L210.99 372.489Z" fill="#CDE9FE"/>
<path d="M210.902 372.917L187.03 394.378L202.937 403.562L230.492 384.147" fill="#3279AF"/>
<path d="M259.885 250.097C247.695 253.364 240.46 265.894 243.727 278.085C246.993 290.275 259.524 297.509 271.714 294.243C283.905 290.977 291.139 278.446 287.873 266.256C284.606 254.065 272.076 246.831 259.885 250.097Z" fill="#69BDFB"/>
<path d="M214.882 165.908C224.726 165.292 233.694 173.1 241.684 184.81C257.205 207.645 268.661 245.117 273.684 263.486C275.201 269.146 271.578 274.868 265.81 275.605C260.917 276.209 256.648 273.106 255.384 268.39L255.359 268.295C252.25 256.693 246.324 235.331 239.536 219.053C234.079 205.855 227.946 196.175 222.406 197.76C207.415 202.182 221.759 245.148 222.358 247.01L222.289 247.129C218.335 254.255 214.325 262.305 209.668 271.338C208.48 266.905 179.884 168.107 214.882 165.908Z" fill="#3279AF"/>
<path d="M130.021 180.861C145.585 176.691 153.924 169.705 165.831 194.519C177.737 219.334 161.414 236.143 161.414 236.143C161.414 236.143 135.293 223.933 107.564 249.864C107.684 249.934 75.0272 195.597 130.021 180.861Z" fill="#9CD3FC"/>
<path d="M134.937 336.554C135.068 335.912 139.315 315.161 156.001 312.914L169.027 332.475C169.027 332.475 155.21 340.524 152.731 360.701C146.69 353.625 140.679 345.53 134.937 336.554Z" fill="#3279AF"/>
<path d="M284.342 400.323L233.606 371.03L243.37 354.118L294.106 383.41L284.342 400.323Z" fill="#DB3529"/>
<path d="M338.539 378.753L331.967 354.227L251.927 307.936L228.251 314.281L338.539 378.753Z" fill="#69BDFB"/>
<path d="M209.762 271.313C214.444 262.374 218.429 254.229 222.384 247.104L222.453 246.984C222.131 246.16 219.359 237.703 217.467 227.999C212.861 227.413 206.59 227.779 200.814 232.259C204.279 252.359 209.282 269.52 209.762 271.313Z" fill="#275E87"/>
<path d="M420.091 362.765C422.172 356.95 423.737 349.959 422.496 343.821C411.643 347.841 400.593 349.993 400.593 349.993C396.4 356.981 391.44 364.882 385.844 373.054C386.222 372.952 401.887 369.159 420.091 362.765Z" fill="#275E87"/>
</g>
<defs>
<clipPath id="clip0_2118_6559">
<rect width="500" height="500" fill="white" transform="translate(613.186 483.1) rotate(165)"/>
</clipPath>
</defs>
</svg>
