<svg width="301" height="101" viewBox="0 0 301 101" fill="none" xmlns="http://www.w3.org/2000/svg">
<path d="M125.659 5.74316C127.41 5.74316 128.96 5.89324 130.361 6.44351C131.762 6.94376 132.812 7.64411 133.663 8.54456C134.513 9.39499 135.063 10.6456 135.564 11.8462C135.914 13.0468 136.064 14.4475 135.914 15.8482L128.41 17.2489C128.41 16.0483 128.06 15.1479 127.71 14.2974C127.209 13.5971 126.659 13.0968 125.809 13.0968C125.308 13.0968 124.958 13.2469 124.608 13.447C124.258 13.5971 124.108 13.9473 123.908 14.1474C123.408 14.6476 123.207 14.9978 123.207 15.348C123.207 15.6981 123.057 16.0483 123.057 16.1984V36.6086C123.057 37.1088 123.207 37.6591 123.408 38.1594C123.758 38.6596 124.258 38.8597 125.308 38.8597C126.009 38.8597 126.709 38.7096 127.209 38.3595C127.71 38.0093 127.91 37.5091 127.91 36.8087V30.7056H125.308V23.9022H135.764V36.3085C135.764 39.6101 134.913 42.0613 133.162 43.8122C131.412 45.5631 128.96 46.4135 125.659 46.4135C122.007 46.4135 119.356 45.5631 117.805 43.9623C116.254 42.2114 115.354 39.7602 115.354 36.4585V16.1984C115.354 13.0468 116.204 10.4455 117.955 8.49454C119.706 6.79369 122.307 5.74316 125.659 5.74316ZM139.115 46.0633V6.09334H157.475V13.5971H147.019V22.1514H156.274V29.6551H147.019V38.7096H157.475V46.2134H139.115V46.0633ZM174.533 24.9528V6.09334H182.237V46.0633H175.584L170.881 34.3575L168.08 26.8537H167.73V46.0633H159.876V6.09334H166.679L171.382 17.5991L173.983 24.9528H174.533ZM186.389 46.0633V6.09334H204.748V13.5971H194.293V22.1514H203.548V29.6551H194.293V38.7096H204.748V46.2134H186.439V46.0633H186.389ZM216.954 6.09334C218.505 6.09334 220.106 6.24341 221.507 6.59359C222.907 6.94376 224.108 7.64411 225.008 8.69464C226.059 9.54506 226.759 10.7957 227.259 12.3465C227.76 13.8972 228.11 15.6481 228.11 17.9493C228.11 20.7507 227.76 22.8517 227.059 24.6026C226.359 26.3535 225.158 27.7542 223.758 28.8047L229.511 46.1133H221.457L216.754 30.5556H215.203V46.1133H207.35V6.14336L216.954 6.09334ZM215.404 13.5971V23.0018H216.604C217.104 23.0018 217.655 23.0018 218.155 22.8517C218.655 22.7016 219.005 22.5015 219.556 22.1514C219.906 21.8012 220.256 21.3009 220.406 20.6006C220.556 19.9002 220.756 19.1999 220.756 18.1494C220.756 16.5986 220.406 15.5481 219.706 14.8477C219.005 14.1474 217.955 13.7972 216.754 13.7972H215.354C215.404 13.7472 215.404 13.5971 215.404 13.5971Z" fill="white"/>
<path d="M244.716 38.2098H238.763L237.563 46.0637H229.359L236.862 6.09375H246.467L254.171 46.0637H245.967L244.716 38.2098ZM240.714 24.603L239.864 30.9062H243.516L242.815 24.603L241.965 16.549H241.565L240.714 24.603ZM256.072 46.0637V6.09375H263.926V38.56H274.381V46.0637H256.072ZM128.108 86.0337H122.155L121.104 93.8876H112.9L120.404 53.9177H130.009L137.513 93.8876H129.309L128.108 86.0337ZM124.256 72.4269L123.406 78.7301H127.057L126.357 72.4269L125.307 64.2228H124.956L124.256 72.4269ZM159.324 82.1818C159.324 84.0827 159.174 85.6835 158.823 87.2343C158.473 88.7851 157.973 90.0357 157.072 91.0863C156.372 92.1368 155.172 92.9872 153.921 93.5375C152.52 94.0377 150.969 94.3879 148.868 94.3879C146.967 94.3879 145.367 94.0377 144.166 93.5375C142.765 93.0372 141.715 92.3369 141.014 91.2864C140.164 90.4359 139.614 89.1853 139.264 87.9847C138.913 86.7841 138.763 85.3834 138.763 83.9827L146.617 82.4319C146.617 83.8326 146.967 85.0332 147.318 85.7336C147.668 86.4339 148.368 86.7841 149.419 86.7841C149.919 86.7841 150.469 86.634 150.819 86.4339C151.17 86.0837 151.32 85.7336 151.52 85.3834C151.67 85.0332 151.87 84.533 151.87 83.8326V82.0818C151.87 81.2313 151.87 80.681 151.72 80.1808C151.57 79.6805 151.37 79.1303 151.22 78.7801C150.869 78.4299 150.519 78.0798 150.019 77.7296C149.519 77.3794 148.968 77.2293 148.118 76.8791C146.217 76.0287 144.616 75.3284 143.416 74.4279C142.215 73.5775 141.315 72.677 140.614 71.6265C139.914 70.576 139.564 69.7256 139.414 68.4749C139.264 67.4244 139.063 66.2238 139.063 64.8231C139.063 63.2723 139.214 61.6715 139.564 60.2708C139.914 58.8701 140.614 57.6695 141.315 56.619C142.165 55.5685 143.216 54.8681 144.466 54.3679C145.867 53.8676 147.418 53.5175 149.169 53.5175C151.069 53.5175 152.82 53.8676 154.071 54.3679C155.272 55.0682 156.322 55.7686 157.223 56.8191C157.923 57.8696 158.423 58.9202 158.773 60.1208C159.124 61.3214 159.274 62.3719 159.274 63.6225L151.57 65.3734V63.7226C151.57 63.2223 151.42 62.8721 151.22 62.3219C151.069 61.9717 150.719 61.6215 150.519 61.4714C150.169 61.3214 149.819 61.1213 149.119 61.1213C148.618 61.1213 148.268 61.2713 147.918 61.4714C147.568 61.6215 147.418 61.9717 147.218 62.3219C147.067 62.672 146.867 63.0222 146.867 63.5225V64.9232C146.867 65.4234 146.867 65.9737 147.017 66.3239C147.017 66.674 147.368 67.1743 147.518 67.5245C147.868 67.8746 148.218 68.2248 148.918 68.575L151.37 69.7756C153.121 70.4759 154.671 71.3264 155.722 72.0267C156.772 72.8772 157.623 73.7776 158.173 74.628C158.673 75.4784 159.023 76.7291 159.224 77.9297C159.324 79.2303 159.324 80.631 159.324 82.1818ZM182.585 82.1818C182.585 84.0827 182.435 85.6835 182.085 87.2343C181.735 88.7851 181.235 90.0357 180.334 91.0863C179.634 92.1368 178.433 92.9872 177.183 93.5375C175.782 94.0377 174.231 94.3879 172.13 94.3879C170.229 94.3879 168.628 94.0377 167.428 93.5375C166.027 93.0372 164.976 92.3369 164.276 91.2864C163.426 90.4359 162.875 89.1853 162.525 87.9847C162.175 86.7841 162.025 85.3834 162.025 83.9827L169.879 82.4319C169.879 83.8326 170.229 85.0332 170.579 85.7336C170.929 86.4339 171.63 86.7841 172.68 86.7841C173.181 86.7841 173.731 86.634 174.081 86.4339C174.431 86.0837 174.581 85.7336 174.781 85.3834C174.931 85.0332 175.132 84.533 175.132 83.8326V82.0818C175.132 81.2313 175.132 80.681 174.981 80.1808C174.831 79.6805 174.631 79.1303 174.481 78.7801C174.131 78.4299 173.781 78.0798 173.281 77.7296C172.78 77.3794 172.23 77.2293 171.38 76.8791C169.479 76.0287 167.878 75.3284 166.677 74.4279C165.477 73.5775 164.576 72.677 163.876 71.6265C163.176 70.576 162.825 69.7256 162.675 68.4749C162.525 67.4244 162.325 66.2238 162.325 64.8231C162.325 63.2723 162.475 61.6715 162.825 60.2708C163.176 58.8701 163.876 57.6695 164.576 56.619C165.427 55.5685 166.477 54.8681 167.728 54.3679C169.129 53.8676 170.679 53.5175 172.43 53.5175C174.331 53.5175 176.082 53.8676 177.333 54.3679C178.533 55.0682 179.584 55.7686 180.484 56.8191C181.185 57.8696 181.685 58.9202 182.035 60.1208C182.385 61.3214 182.535 62.3719 182.535 63.6225L174.831 65.3734V63.7226C174.831 63.2223 174.681 62.8721 174.481 62.3219C174.331 61.9717 173.981 61.6215 173.781 61.4714C173.431 61.3214 173.08 61.1213 172.38 61.1213C171.88 61.1213 171.53 61.2713 171.18 61.4714C170.829 61.6215 170.679 61.9717 170.479 62.3219C170.329 62.672 170.129 63.0222 170.129 63.5225V64.9232C170.129 65.4234 170.129 65.9737 170.279 66.3239C170.279 66.674 170.629 67.1743 170.779 67.5245C171.13 67.8746 171.48 68.2248 172.18 68.575L174.631 69.7756C176.382 70.4759 177.933 71.3264 178.983 72.0267C180.034 72.8772 180.884 73.7776 181.435 74.628C181.935 75.4784 182.285 76.7291 182.485 77.9297C182.385 79.2303 182.585 80.631 182.585 82.1818ZM185.687 93.8876V53.9177H204.046V61.4214H193.591V69.9757H202.845V77.4794H193.591V86.534H204.046V93.8876H185.687ZM218.203 86.0337L216.452 80.9812L214.701 75.0282H214.351V93.8876H206.497V53.9177H213.851L217.853 64.573L220.454 72.4269H220.804L223.606 64.3729L227.458 53.9177H234.811V93.8876H226.957V75.2283H226.807L224.906 81.3314L223.356 86.0337H218.203ZM254.171 72.9272C255.021 73.2773 255.922 73.6275 256.422 74.3279C256.922 74.8281 257.473 75.5285 257.823 76.2288C258.173 76.9292 258.523 77.7796 258.523 78.68C258.673 79.5305 258.673 80.4309 258.673 81.2813C258.673 85.6335 257.823 88.7851 255.872 90.6861C253.971 92.7871 251.17 93.6375 247.468 93.6375H238.563V53.8176H247.618C251.12 53.8176 253.921 54.668 255.672 56.619C257.423 58.52 258.273 61.3214 258.273 65.0232C258.273 65.8736 258.273 66.574 258.123 67.4744C257.973 68.3249 257.773 69.0252 257.423 69.7256C257.072 70.4259 256.572 70.9262 256.022 71.6265C255.572 72.2768 254.871 72.627 254.171 72.9272ZM251.019 65.2733C251.019 63.7226 250.669 62.672 250.169 62.1218C249.669 61.6215 248.618 61.4214 247.368 61.4214H246.517V69.2753H247.568C249.969 69.2753 251.019 68.0747 251.019 65.2733ZM251.37 80.9812C251.37 79.4304 251.019 78.1798 250.519 77.6795C250.019 76.9792 249.119 76.629 248.068 76.629H246.667V86.584H248.068C248.768 86.584 249.469 86.4339 249.819 86.2338C250.319 85.8837 250.519 85.5335 250.869 85.0332C251.019 84.533 251.22 83.9827 251.37 83.2823V80.9812ZM263.076 93.8876V53.9177H270.929V86.3839H281.385V93.8876H263.076ZM289.589 68.575L290.989 61.9217L292.74 54.0677H300.944L293.241 77.8296V93.8876H285.387V77.6295L277.533 53.8676H285.937L287.838 61.9217L289.239 68.575H289.589Z" fill="white"/>
<path d="M96.4931 50.2656C96.4931 48.3646 98.0439 46.7638 99.9948 46.6137C99.8448 44.7128 99.6447 42.6117 99.2945 40.6608C97.3935 41.161 95.4426 39.9604 94.9423 38.2095C94.4421 36.3086 95.6427 34.3576 97.3935 33.8574C96.6932 31.9564 95.9928 30.2055 95.1424 28.4547C93.3915 29.5052 91.2905 28.8048 90.24 27.2541C89.1894 25.5032 89.8898 23.4021 91.4406 22.3516C90.39 20.8008 89.1894 19.2 87.7887 17.6493C86.388 19.05 84.1369 19.05 82.7362 17.6493C81.3355 16.2486 81.3355 13.9974 82.7362 12.5967C81.3355 11.3961 79.7847 10.1455 78.0339 8.94491C76.9833 10.6958 74.8823 11.196 73.1314 10.1455C71.3805 9.09498 70.8803 6.99393 71.9308 5.24306C70.1799 4.39263 68.4291 3.69228 66.5281 2.99193C66.0279 4.89288 64.0769 5.9434 62.1759 5.44315C60.275 4.9429 59.2245 2.99193 59.7247 1.09098C57.8238 0.740805 55.8728 0.390625 53.9718 0.390625C53.9718 2.29158 52.4211 4.04245 50.4701 4.04245C48.5691 4.04245 46.9683 2.49168 46.9683 0.390625C45.0674 0.5407 43.1164 0.740805 41.2155 1.09098C41.7157 2.99193 40.7152 4.9429 38.7642 5.44315C36.8633 5.9434 34.9123 4.74281 34.412 2.99193C32.5111 3.69228 30.7602 4.39263 29.0093 5.24306C30.0599 6.99393 29.3595 9.09498 27.8087 10.1455C26.0579 11.196 23.9568 10.4957 22.9063 8.94491C21.3555 9.99543 19.7547 11.196 18.2039 12.5967C19.6046 13.9974 19.6046 16.2486 18.2039 17.6493C16.8032 19.05 14.5521 19.05 13.1514 17.6493L9.49959 22.3516C11.2505 23.4021 11.7507 25.5032 10.7002 27.2541C9.64966 29.0049 7.54861 29.5052 5.79774 28.6548C4.94731 30.4056 4.24696 32.3066 3.54661 34.0575C5.44756 34.5577 6.49809 36.5087 5.99784 38.4096C5.49759 40.3106 3.54661 41.3611 1.64566 40.8609C1.29549 42.7618 0.945312 44.7128 0.945312 46.8139C2.84626 46.8139 4.44706 48.3646 4.44706 50.4657C4.44706 52.3666 2.89629 53.9674 0.945312 53.9674C1.09539 55.8684 1.29549 57.9694 1.64566 59.9204C3.54661 59.4201 5.49759 60.6207 5.99784 62.3716C6.49809 64.2726 5.29749 66.2235 3.54661 66.7238C4.24696 68.6247 4.94731 70.3756 5.79774 72.3266C7.54861 71.2761 9.64966 71.9764 10.7002 73.7273C11.7507 75.4782 11.0504 77.5792 9.49959 78.6297C10.5501 80.1805 11.7507 81.7813 13.1514 83.3321C14.5521 81.9314 16.8032 81.9314 18.2039 83.3321C19.6046 84.7328 19.6046 86.9839 18.2039 88.3846C19.6046 89.5852 21.1554 90.8359 22.9063 92.0365C23.9568 90.2856 26.0579 89.7853 27.8087 90.6357C29.5596 91.6863 30.0599 93.7873 29.0093 95.5382C30.7602 96.3886 32.5111 97.089 34.412 97.7893C34.9123 95.8884 36.8633 94.8379 38.7642 95.3381C40.6652 95.8384 41.7157 97.7893 41.2155 99.6903C43.1164 100.04 45.0674 100.391 46.9683 100.391C46.9683 98.4897 48.5191 96.8889 50.4701 96.8889C52.371 96.8889 53.9718 98.4397 53.9718 100.391C55.8728 100.241 57.8238 100.04 59.7247 99.6903C59.2245 97.7893 60.4251 95.8384 62.1759 95.3381C64.0769 94.8379 66.0279 96.0385 66.5281 97.7893C68.4291 97.089 70.1799 96.3886 71.9308 95.5382C70.8803 93.7873 71.5806 91.6863 73.1314 90.6357C74.8823 89.5852 76.9833 90.2856 78.0339 91.8364C79.5846 90.7858 81.1854 89.5852 82.7362 88.1845C81.3355 86.7838 81.3355 84.5327 82.7362 83.132C84.1369 81.7313 86.388 81.7313 87.7887 83.132L91.4406 78.4296C89.6897 77.3791 89.1894 75.2781 90.24 73.5272C91.2905 71.7763 93.3915 71.2761 95.1424 72.1265C95.9928 70.3756 96.6932 68.4747 97.3935 66.5237C95.4926 66.0235 94.4421 64.0725 94.9423 62.1715C95.4426 60.2706 97.3935 59.2201 99.2945 59.5702C99.6447 57.6693 99.9948 55.7183 99.9948 53.6172C98.0439 53.9174 96.4931 52.1665 96.4931 50.2656Z" fill="white"/>
<path d="M36.7638 20.9014C33.4622 20.9014 30.8108 21.9519 28.9099 23.8528C27.159 25.7538 26.3086 28.4051 26.3086 31.7068V69.2255C26.3086 72.7273 27.159 75.1785 28.7598 76.9294C30.5107 78.6803 33.112 79.5307 36.6138 79.5307C39.9154 79.5307 42.3666 78.6803 44.1175 76.9294C45.8684 75.1785 46.7188 72.5772 46.7188 69.2255V51.7668H36.2636V58.7703H38.8649V69.7758C38.8649 70.4762 38.7148 70.9764 38.1645 71.3266C37.6643 71.6768 37.114 72.0269 36.2636 72.0269C35.213 72.0269 34.7128 71.8769 34.3626 71.3266C34.2125 70.8263 34.0124 70.2761 34.0124 69.7758V31.5567C34.0124 31.2065 34.0124 31.0565 34.1625 30.5062C34.1625 30.156 34.3126 29.8058 34.5127 29.4556C34.6628 29.1055 35.0129 28.9554 35.213 28.6052C35.5632 28.4551 35.9134 28.2551 36.4136 28.2551H36.5637C37.064 28.2551 37.4141 28.4051 37.7643 28.6052C38.1145 28.7553 38.2646 29.1055 38.4647 29.4556C38.6147 29.8058 38.8148 30.156 38.8148 30.5062C38.8148 30.8564 38.9649 31.2065 38.9649 31.5567V40.3111H46.8188V31.5567C46.8188 28.2551 45.9684 25.8038 44.2176 23.7028C42.8669 21.9519 40.2656 20.9014 36.7638 20.9014Z" fill="#081134"/>
<path d="M66.4766 21.251H56.8718L49.168 79.23H57.5221L59.273 65.0729H64.0254L65.7763 79.23H73.9804L66.4766 21.251Z" fill="#081134"/>
<path d="M61.7264 58.2701C59.8254 58.2701 58.2246 56.7193 58.2246 54.7684C58.2246 52.8674 59.7754 51.2666 61.7264 51.2666C63.6273 51.2666 65.2281 52.8174 65.2281 54.7684C65.2281 56.7193 63.6773 58.2701 61.7264 58.2701Z" fill="white"/>
</svg>
