<svg width="250" height="101" viewBox="0 0 250 101" fill="none" xmlns="http://www.w3.org/2000/svg">
<g clip-path="url(#clip0_2458_6616)">
<path fill-rule="evenodd" clip-rule="evenodd" d="M108.048 0.650318C107.838 0.792904 107.629 0.90934 107.583 0.90934C107.086 0.90934 106.309 2.51079 106.308 3.5363C106.306 4.59792 107.082 6.20186 107.598 6.20186C107.649 6.20186 107.774 6.2772 107.876 6.36935C108.458 6.89612 110.325 6.87557 111.264 6.33262C113.35 5.1253 113.217 1.77731 111.038 0.652808C110.288 0.26552 108.617 0.263652 108.048 0.650318ZM0.144531 38.462V76.0426H8.25517H16.3658L16.3073 60.1134C16.2743 51.3521 16.2662 44.1835 16.288 44.1835C16.3098 44.1835 16.6292 44.5926 16.9978 45.0919C17.3664 45.5913 17.7425 46.0932 17.8334 46.2071C18.2039 46.6735 19.4018 48.2699 19.4984 48.4262C19.5556 48.5184 19.631 48.6174 19.6665 48.646C19.7013 48.6747 19.9348 48.9829 20.1851 49.3309C20.6496 49.9779 21.8943 51.6447 22.1919 52.0189C22.5624 52.4853 23.7604 54.0811 23.8569 54.2374C23.9142 54.3302 23.9864 54.4286 24.0182 54.4572C24.0499 54.4858 24.2131 54.6963 24.3812 54.9242C24.5487 55.1527 24.7099 55.3625 24.7386 55.3912C24.7672 55.4198 24.8376 55.5188 24.8949 55.611C24.9951 55.7735 26.2136 57.4067 26.5505 57.8301C26.921 58.2965 28.1189 59.8923 28.2154 60.0492C28.2727 60.1414 28.345 60.2404 28.3767 60.269C28.4085 60.297 28.5716 60.5075 28.7397 60.736C28.9072 60.9639 29.0685 61.1744 29.0971 61.203C29.1258 61.231 29.1961 61.33 29.2534 61.4228C29.3499 61.5784 30.5448 63.1706 30.919 63.6413C31.0093 63.7559 31.272 64.1058 31.503 64.4196C31.7334 64.7334 31.952 65.0136 31.9887 65.0423C32.0254 65.0709 32.102 65.1693 32.1593 65.2608C32.216 65.3523 32.4731 65.7079 32.7297 66.0503C32.9868 66.3928 33.29 66.7987 33.4046 66.9532C33.7371 67.4027 35.0995 69.2258 35.2732 69.4531C35.9276 70.3105 36.1623 70.6156 36.2794 70.7594C36.3535 70.8497 36.4606 70.9942 36.5179 71.0801C36.6816 71.326 37.643 72.6224 37.8148 72.8291C37.9001 72.9325 38.0496 73.1249 38.1461 73.2581C38.9344 74.3446 39.6666 75.3228 40.0327 75.7786L40.2793 76.0849L40.5483 75.7786C40.6965 75.6099 40.8191 75.4137 40.821 75.3421C40.8229 75.2705 40.8608 75.2126 40.905 75.2126C40.9499 75.2126 41.1715 74.9511 41.3982 74.6311C41.6248 74.3116 41.8926 73.9499 41.9934 73.8272C42.339 73.4069 43.5743 71.7725 43.6783 71.5987C43.735 71.5029 43.8072 71.4014 43.8377 71.3727C44.0133 71.2096 45.1826 69.5795 45.1826 69.4986C45.1826 69.445 45.2206 69.4008 45.2667 69.4008C45.342 69.4008 45.9037 68.6928 46.1689 68.2638C46.2256 68.1717 46.3327 68.0279 46.4062 67.9444C46.621 67.6997 47.9229 65.9775 48.0369 65.7869C48.0935 65.6917 48.1664 65.5896 48.1975 65.5615C48.2461 65.518 48.4298 65.2751 48.9428 64.5753C48.9852 64.5186 49.1371 64.325 49.2803 64.1456C49.4241 63.9657 49.5412 63.7677 49.5412 63.7042C49.5412 63.6413 49.5767 63.589 49.619 63.589C49.662 63.5884 49.8077 63.4258 49.9422 63.2278C50.0773 63.0298 50.2641 62.7758 50.3575 62.6631C50.581 62.3941 51.8475 60.7061 51.9801 60.5C52.0374 60.4116 52.1445 60.2647 52.218 60.1744C52.2921 60.0835 52.5131 59.7989 52.7092 59.5424C52.906 59.2852 53.1382 58.982 53.2267 58.8681C53.3836 58.6651 54.3611 57.3426 54.7104 56.8619C54.8069 56.7286 54.9558 56.5356 55.0417 56.4329C55.2135 56.2262 56.1749 54.9298 56.3387 54.6838C56.3959 54.5979 56.5124 54.4448 56.5983 54.3439C56.6836 54.2424 56.8835 53.9815 57.0416 53.7636C57.1998 53.5463 57.5298 53.111 57.7739 52.7972C58.0186 52.4828 58.414 51.9504 58.6537 51.6129L59.0889 50.999V40.2234C59.0889 29.9167 59.0627 28.9379 58.8075 29.6291C58.7707 29.7293 58.7072 29.8345 58.6661 29.8625C58.6256 29.8912 58.4034 30.1714 58.173 30.4852C57.9426 30.799 57.6798 31.1496 57.5889 31.2635C57.2446 31.6975 56.023 33.322 55.9234 33.4783C55.8667 33.5679 55.7596 33.7068 55.6861 33.7871C55.6133 33.8668 55.3729 34.1974 55.1525 34.5218C54.9321 34.8462 54.6768 35.1737 54.5853 35.2497C54.4937 35.3263 54.419 35.4527 54.419 35.5312C54.419 35.6096 54.3823 35.6744 54.3381 35.6744C54.2933 35.6744 54.0716 35.9359 53.8449 36.2553C53.6183 36.5753 53.3499 36.9371 53.2485 37.0598C52.9627 37.4053 51.6812 39.1058 51.5648 39.2938C51.5081 39.3866 51.4353 39.4856 51.4042 39.5136C51.3724 39.5423 51.2093 39.7527 51.0412 39.9806C50.8737 40.2091 50.7124 40.4189 50.6838 40.4476C50.6545 40.4762 50.5841 40.5752 50.5275 40.6674C50.431 40.8243 49.2324 42.4201 48.8619 42.8865C48.525 43.3099 47.3065 44.9431 47.2063 45.1056C47.1496 45.1978 47.0767 45.2968 47.0456 45.3254C47.0139 45.3534 46.8507 45.5639 46.6826 45.7924C46.5151 46.0203 46.3538 46.2308 46.3252 46.2594C46.2959 46.2874 46.2256 46.3864 46.1689 46.4792C46.0724 46.6355 44.8738 48.2313 44.5033 48.6977C44.1665 49.1217 42.948 50.7543 42.8477 50.9168C42.791 51.009 42.7182 51.108 42.6871 51.1366C42.6553 51.1653 42.4922 51.3751 42.3241 51.6036C42.1566 51.8321 41.9953 52.0419 41.9667 52.0706C41.9374 52.0992 41.867 52.1976 41.8104 52.2885C41.7531 52.38 41.4262 52.8215 41.0837 53.2698C40.7413 53.7175 40.425 54.1334 40.3814 54.1932C40.2836 54.3258 39.8602 53.8495 39.0116 52.6515C38.7849 52.3321 38.5633 52.0706 38.5184 52.0706C38.4742 52.0706 38.4375 52.0077 38.4375 51.9311C38.4375 51.8545 38.3516 51.7138 38.2463 51.6185C38.1411 51.5233 37.8497 51.1422 37.5988 50.7724C37.3472 50.4019 37.1063 50.0987 37.0633 50.0987C37.0203 50.0987 36.9848 50.0395 36.9848 49.966C36.9848 49.8932 36.9027 49.7612 36.803 49.6721C36.7034 49.5831 36.3647 49.1497 36.0509 48.7089C35.737 48.2681 35.3865 47.7986 35.2726 47.666C35.158 47.5333 34.8797 47.1629 34.653 46.8422C34.4264 46.5215 34.2047 46.2594 34.1599 46.2594C34.1157 46.2594 34.0789 46.1965 34.0789 46.1193C34.0789 46.0427 33.993 45.902 33.8878 45.8067C33.7826 45.7115 33.4912 45.331 33.2402 44.9606C32.9887 44.5907 32.7477 44.2875 32.7047 44.2875C32.6618 44.2875 32.6263 44.2277 32.6263 44.1548C32.6263 44.082 32.5441 43.9494 32.4445 43.8603C32.3449 43.7719 32.0061 43.3361 31.6923 42.8921C31.3785 42.4488 31.0497 42.0092 30.962 41.9152C30.8742 41.8218 30.6407 41.5185 30.4427 41.2421C30.2453 40.9656 30.0137 40.658 29.9277 40.5584C29.8424 40.4588 29.7254 40.3044 29.6687 40.2153C29.6114 40.1257 29.2727 39.6718 28.9159 39.206C28.5591 38.7403 28.2677 38.3181 28.2677 38.2671C28.2677 38.2166 28.2086 38.1376 28.137 38.0921C28.0654 38.0467 27.8692 37.8225 27.7018 37.594C27.5336 37.3655 27.3705 37.1556 27.3388 37.127C27.3076 37.0984 27.2348 36.9975 27.1781 36.9022C27.0542 36.6955 25.7921 35.0044 25.5692 34.7466C25.4839 34.6476 25.3668 34.4932 25.3102 34.4035C25.2529 34.3145 24.9142 33.8606 24.5574 33.3948C24.2006 32.9291 23.9092 32.5063 23.9092 32.4559C23.9092 32.4054 23.85 32.3264 23.7784 32.2809C23.7068 32.2348 23.5107 32.0107 23.3432 31.7828C23.1751 31.5543 23.012 31.3438 22.9802 31.3158C22.9491 31.2872 22.8762 31.1857 22.8196 31.0898C22.7056 30.8993 21.4037 29.177 21.1888 28.9323C21.1154 28.8489 21.0083 28.705 20.9516 28.6129C20.6864 28.1839 20.1247 27.4759 20.0494 27.4759C20.0033 27.4759 19.9653 27.4243 19.9653 27.3614C19.9653 27.2979 19.8483 27.0999 19.7044 26.9199C19.5612 26.7406 19.4093 26.5469 19.367 26.4903C18.8539 25.7904 18.6702 25.5476 18.6217 25.504C18.5905 25.4754 18.5177 25.3739 18.461 25.2786C18.3471 25.0881 17.0451 23.3658 16.8303 23.1211C16.7568 23.0377 16.6497 22.8939 16.5931 22.8017C16.3278 22.3727 15.7662 21.6647 15.6908 21.6647C15.6448 21.6647 15.6068 21.6205 15.6068 21.567C15.6068 21.486 14.4375 19.8559 14.2619 19.6928C14.2314 19.6642 14.1591 19.5627 14.1025 19.4668C13.9885 19.2769 12.6866 17.554 12.4717 17.3099C12.3983 17.2265 12.2912 17.0827 12.2345 16.9899C11.9693 16.5609 11.4076 15.8529 11.3323 15.8529C11.2862 15.8529 11.2482 15.8093 11.2482 15.7558C11.2482 15.6437 9.99734 13.9507 9.87592 13.8984C9.83171 13.8798 9.7956 13.8138 9.7956 13.7515C9.7956 13.6898 9.72337 13.5653 9.63496 13.475C9.54654 13.3847 9.19786 12.9371 8.86038 12.4807C8.5229 12.0236 8.18605 11.5822 8.1132 11.4981C8.03973 11.4147 7.93263 11.2709 7.87597 11.1787C7.61072 10.7497 7.04909 10.0417 6.97375 10.0417C6.92768 10.0417 6.88969 9.99816 6.88969 9.94461C6.88969 9.89106 6.59829 9.46641 6.24152 9.00192C5.88474 8.5368 5.54602 8.07728 5.48873 7.97953C5.43207 7.88239 5.32498 7.73483 5.2515 7.65139C5.17865 7.56733 4.8418 7.12587 4.50432 6.66885C4.16685 6.21245 3.81816 5.76476 3.72975 5.67448C3.64133 5.58419 3.5691 5.45593 3.5691 5.3893C3.5691 5.32268 3.53424 5.26789 3.49127 5.26789C3.44831 5.26789 3.25467 5.03439 3.05978 4.74922C2.86551 4.46405 2.66688 4.23055 2.61894 4.23055C2.571 4.23055 2.53115 4.18634 2.53115 4.1328C2.53115 4.07925 2.23975 3.65522 1.88297 3.19011C1.52619 2.72561 1.18747 2.26547 1.13019 2.16834C1.07352 2.0712 0.967674 1.92301 0.895447 1.83958C0.823842 1.75614 0.625217 1.50646 0.454611 1.28417L0.144531 0.880698V38.462ZM79.8188 1.61356C79.5479 1.99649 79.043 2.68389 78.6961 3.14092C78.3499 3.59732 77.9981 4.06431 77.9147 4.17825C77.8313 4.29282 77.449 4.79903 77.0654 5.30338C76.6812 5.80772 76.3207 6.29837 76.2634 6.39302C76.2062 6.48766 76.0798 6.65889 75.982 6.77283C75.8842 6.88678 75.5692 7.29586 75.2815 7.68065C74.9939 8.06607 74.5225 8.69682 74.233 9.08162C73.9441 9.46704 73.6396 9.87549 73.5562 9.99006C73.4727 10.104 73.0904 10.6108 72.7069 11.1158C72.3227 11.6214 71.9622 12.1077 71.9049 12.1967C71.8476 12.2858 71.7312 12.4358 71.6453 12.5299C71.56 12.6239 71.2723 13.0018 71.0064 13.3692C70.1696 14.5267 69.3676 15.5858 69.1534 15.8156C69.0401 15.9382 68.9473 16.0634 68.9473 16.0951C68.9473 16.1263 68.6553 16.5329 68.2985 16.998C67.9417 17.4637 67.6036 17.9183 67.5463 18.0073C67.4891 18.097 67.3726 18.247 67.2867 18.341C67.2014 18.4351 66.9137 18.813 66.6479 19.1804C65.811 20.3379 65.0091 21.397 64.7949 21.6274C64.6815 21.7494 64.5888 21.8957 64.5888 21.9518C64.5888 22.0084 64.519 22.1124 64.4331 22.1834C64.2955 22.2974 64.2774 25.4243 64.2774 49.1778V76.0426H72.4236H80.5703V38.4763C80.5703 8.4901 80.5442 0.909963 80.4402 0.913076C80.3692 0.914944 80.089 1.23 79.8188 1.61356ZM147.609 1.17085C147.115 1.43797 146.588 1.87569 146.416 2.16273C146.019 2.8215 145.929 3.07927 145.877 3.69321C145.666 6.21058 147.663 7.87679 150.057 7.18067C152.743 6.39986 153.108 2.55625 150.622 1.23125C149.801 0.79415 148.36 0.764885 147.609 1.17085ZM176.666 38.4072V75.905L182.659 75.9735C191.958 76.0806 192.959 76.0719 192.959 75.8869C192.959 75.801 192.997 75.7313 193.043 75.7313C193.09 75.7313 193.368 75.3926 193.663 74.9791C194.204 74.217 195.434 72.5894 195.679 72.3104C195.752 72.227 195.859 72.0788 195.916 71.9817C195.973 71.8845 196.312 71.4244 196.668 70.9599C197.025 70.4948 197.317 70.0708 197.317 70.0172C197.317 69.9637 197.354 69.9201 197.401 69.9201C197.476 69.9201 198.038 69.2121 198.303 68.7831C198.36 68.6904 198.467 68.5465 198.54 68.4631C198.613 68.3797 198.95 67.9376 199.288 67.4812C199.627 67.0248 199.964 66.5827 200.037 66.4992C200.111 66.4158 200.217 66.2676 200.275 66.1705C200.331 66.0734 200.67 65.6132 201.027 65.1487C201.384 64.6836 201.676 64.2596 201.676 64.206C201.676 64.1525 201.713 64.1083 201.759 64.1083C201.834 64.1083 202.396 63.4003 202.661 62.9713C202.719 62.8792 202.825 62.7353 202.899 62.6519C203.114 62.4072 204.416 60.6849 204.529 60.4944C204.587 60.3992 204.658 60.297 204.689 60.269C204.864 60.1059 206.034 58.4758 206.034 58.3942C206.034 58.3407 206.072 58.2971 206.118 58.2971C206.193 58.2971 206.755 57.5891 207.02 57.1601C207.077 57.068 207.184 56.9241 207.257 56.8407C207.473 56.596 208.774 54.8738 208.888 54.6832C208.945 54.5873 209.017 54.4858 209.049 54.4572C209.097 54.4136 209.281 54.1708 209.794 53.4715C209.836 53.4143 209.988 53.2212 210.131 53.0413C210.275 52.862 210.393 52.6633 210.393 52.6005C210.393 52.5376 210.43 52.4859 210.476 52.4859C210.552 52.4859 211.113 51.7779 211.378 51.3489C211.436 51.2562 211.542 51.1123 211.616 51.0289C211.831 50.7848 213.133 49.0619 213.246 48.872C213.304 48.7761 213.376 48.6747 213.408 48.646C213.439 48.6174 213.603 48.4075 213.771 48.179C213.939 47.9511 214.114 47.7176 214.16 47.6604C214.378 47.3914 215.645 45.7003 215.737 45.5571C215.794 45.468 215.911 45.3142 215.997 45.2152C216.219 44.9574 217.481 43.2657 217.605 43.0596C217.662 42.9643 217.734 42.8628 217.766 42.8348C217.797 42.8062 217.961 42.5957 218.129 42.3678C218.297 42.1393 218.473 41.9058 218.519 41.8485C218.772 41.5354 220.007 39.8822 220.096 39.739C220.153 39.6462 220.249 39.523 220.309 39.4644C220.369 39.4059 220.579 39.1338 220.776 38.8592C220.973 38.5852 221.322 38.1183 221.553 37.8219C221.783 37.5255 222.156 37.0255 222.381 36.7117C222.606 36.3979 222.829 36.0946 222.876 36.0374C223.104 35.7603 224.363 34.0754 224.454 33.9253C224.511 33.8313 224.588 33.7311 224.625 33.7024C224.661 33.6738 224.88 33.3936 225.11 33.0798C225.341 32.766 225.604 32.4154 225.695 32.3015C225.787 32.1875 226.117 31.7436 226.43 31.3158C226.743 30.8874 227.092 30.4373 227.206 30.3152C227.319 30.1932 227.412 30.0612 227.412 30.0226C227.412 29.9833 227.47 29.8918 227.541 29.8183C227.678 29.6782 228.636 28.39 228.813 28.1079C228.87 28.017 228.946 27.9193 228.983 27.8912C229.02 27.8626 229.238 27.5824 229.469 27.2686C229.699 26.9542 229.962 26.6042 230.053 26.4903C230.397 26.0563 231.619 24.4318 231.719 24.2755C231.775 24.1859 231.882 24.047 231.956 23.9667C232.029 23.887 232.269 23.5564 232.489 23.232C232.71 22.9076 232.965 22.58 233.057 22.5041C233.148 22.4275 233.223 22.3011 233.223 22.2226C233.223 22.1442 233.26 22.0794 233.304 22.0794C233.349 22.0794 233.57 21.8179 233.797 21.4985C234.024 21.1785 234.292 20.8167 234.393 20.694C234.679 20.3485 235.961 18.648 236.077 18.46C236.134 18.3672 236.207 18.2682 236.238 18.2402C236.269 18.2115 236.433 18.0011 236.601 17.7732C236.768 17.5447 236.929 17.3342 236.958 17.3062C236.987 17.2776 237.058 17.1786 237.114 17.0864C237.211 16.9295 238.41 15.3336 238.78 14.8673C239.117 14.4439 240.335 12.8107 240.436 12.6482C240.492 12.556 240.565 12.457 240.596 12.4284C240.628 12.3997 240.791 12.1899 240.959 11.9614C241.127 11.7335 241.288 11.523 241.317 11.4944C241.346 11.4657 241.416 11.3674 241.473 11.2746C241.569 11.1183 242.768 9.52245 243.139 9.05609C243.475 8.63206 244.694 6.99948 244.794 6.83696C244.851 6.74481 244.924 6.64581 244.955 6.61717C244.987 6.58853 245.15 6.37869 245.318 6.15018C245.485 5.92167 245.647 5.71184 245.675 5.68319C245.704 5.65455 245.775 5.55555 245.831 5.4634C245.924 5.31334 247.078 3.77477 247.496 3.24428C248.159 2.40183 249.1 1.08991 249.1 1.00834C249.1 0.946699 245.581 0.90934 239.661 0.90934H230.222L229.621 1.70509C229.291 2.14219 228.812 2.78476 228.558 3.1322C228.303 3.47901 228.058 3.77913 228.013 3.79781C227.968 3.81711 227.93 3.8881 227.93 3.95659C227.93 4.02446 227.849 4.15334 227.749 4.24238C227.649 4.3308 227.31 4.76416 226.996 5.20562C226.683 5.64646 226.333 6.11905 226.218 6.25603C226.104 6.39301 225.881 6.68192 225.723 6.89798C225.564 7.11467 225.239 7.54865 224.999 7.86247C223.846 9.37177 223.572 9.74723 223.572 9.81634C223.572 9.85806 223.49 9.96453 223.391 10.0536C223.29 10.1426 222.952 10.5778 222.638 11.0218C222.324 11.4651 221.995 11.9047 221.907 11.9987C221.82 12.0921 221.586 12.3954 221.389 12.6718C221.191 12.9483 220.959 13.2559 220.874 13.3555C220.789 13.4551 220.671 13.6095 220.614 13.6992C220.558 13.7882 220.219 14.2421 219.862 14.7079C219.505 15.1736 219.213 15.5883 219.213 15.6288C219.213 15.6699 219.132 15.7757 219.032 15.8648C218.932 15.9538 218.593 16.3897 218.279 16.833C217.965 17.2769 217.637 17.7165 217.549 17.8099C217.461 17.9039 217.228 18.2065 217.03 18.483C216.833 18.7601 216.601 19.0677 216.515 19.1667C216.43 19.2663 216.313 19.4207 216.256 19.5098C216.164 19.653 214.896 21.3441 214.679 21.6124C214.633 21.6697 214.458 21.9032 214.289 22.1317C214.121 22.3596 213.958 22.5701 213.926 22.5987C213.895 22.6267 213.822 22.7289 213.765 22.8241C213.678 22.9704 212.669 24.3123 212.1 25.037C212.01 25.1516 211.592 25.712 211.17 26.2823C210.748 26.8533 210.366 27.367 210.32 27.4243C210.274 27.4815 210.099 27.715 209.931 27.9429C209.763 28.1714 209.6 28.3813 209.568 28.4099C209.536 28.4385 209.464 28.5375 209.406 28.6297C209.311 28.7841 208.125 30.365 207.742 30.8488C207.651 30.9628 207.109 31.6863 206.537 32.4571C205.964 33.2273 205.407 33.9633 205.298 34.0922C205.189 34.2211 205.1 34.355 205.1 34.3892C205.1 34.4235 205.007 34.5517 204.894 34.6738C204.78 34.7958 204.432 35.246 204.118 35.6744C203.805 36.1021 203.475 36.5461 203.384 36.66C203.293 36.774 202.75 37.4981 202.177 38.2683C201.604 39.0392 201.024 39.8094 200.887 39.9806C200.409 40.5808 200.305 40.7178 199.272 42.1082C198.7 42.8784 198.155 43.6063 198.06 43.7246C197.965 43.8435 197.841 44.0123 197.784 44.1001C197.683 44.257 196.445 45.9001 196.119 46.3111C196.028 46.425 195.486 47.1492 194.914 47.9194C194.341 48.6902 193.784 49.4262 193.675 49.5551C193.566 49.684 193.477 49.8272 193.477 49.8739C193.477 49.9206 193.361 50.0688 193.218 50.2026L192.959 50.4461V25.6777V0.90934H184.812H176.666V38.4072ZM143.338 25.4038C140.508 26.3197 140.441 30.4067 143.238 31.5113C144.224 31.9005 146.467 31.553 146.467 31.0113C146.467 30.9578 146.549 30.8862 146.649 30.8519C147.125 30.6876 147.648 29.3887 147.633 28.4099C147.596 26.1379 145.531 24.6933 143.338 25.4038ZM167.342 34.5324C166.8 34.7273 166.708 34.7815 166.211 35.2024C165.248 36.0174 164.923 38.1407 165.6 39.2023C167.429 42.0733 171.684 40.9482 171.684 37.594C171.684 35.3008 169.496 33.7572 167.342 34.5324ZM89.0278 35.2709C86.8466 35.7796 85.7545 37.9501 86.7009 39.8934C87.0241 40.5572 87.826 41.3797 88.1511 41.3809C88.2395 41.3816 88.3559 41.4233 88.4101 41.4743C89.2314 42.2464 91.6062 41.4943 92.4218 40.2041C92.9723 39.333 92.8596 36.6083 92.273 36.6083C92.2288 36.6083 92.1927 36.5461 92.1927 36.4701C92.1927 35.8543 90.0327 35.0361 89.0278 35.2709ZM112.542 43.1891C110.248 44.1785 109.802 47.2868 111.741 48.7581C114.155 50.5899 117.313 48.7083 116.936 45.6623C116.685 43.6324 114.441 42.3697 112.542 43.1891ZM224.712 43.8983C224.546 44.0888 223.226 45.8441 223.105 46.0352C223.048 46.1249 222.941 46.2638 222.868 46.3435C222.795 46.4238 222.554 46.7544 222.334 47.0788C222.114 47.4032 221.858 47.7307 221.767 47.8067C221.675 47.8826 221.6 48.009 221.6 48.0881C221.6 48.1666 221.564 48.2307 221.52 48.2307C221.475 48.2307 221.253 48.4922 221.026 48.8123C220.8 49.1317 220.531 49.4934 220.43 49.6161C220.144 49.9623 218.863 51.6628 218.746 51.8508C218.69 51.9429 218.617 52.0419 218.586 52.0706C218.554 52.0992 218.391 52.3091 218.223 52.5376C218.055 52.7661 217.894 52.9759 217.865 53.0046C217.836 53.0332 217.766 53.1322 217.709 53.2244C217.584 53.4267 216.269 55.1733 216.08 55.3881C215.396 56.1651 215.388 56.4447 216.03 57.1695C216.154 57.3108 216.302 57.502 216.36 57.5947C216.48 57.789 217.791 59.52 217.99 59.746C218.064 59.8294 218.17 59.9733 218.228 60.066C218.493 60.495 219.054 61.203 219.13 61.203C219.176 61.203 219.213 61.2466 219.213 61.3001C219.213 61.4122 220.465 63.1052 220.586 63.1575C220.63 63.1762 220.666 63.2422 220.666 63.3044C220.666 63.3661 220.739 63.4906 220.827 63.5809C220.915 63.6712 221.264 64.1189 221.602 64.5753C221.939 65.0323 222.275 65.4737 222.349 65.5578C222.422 65.6412 222.529 65.7851 222.586 65.8772C222.851 66.3062 223.413 67.0142 223.488 67.0142C223.534 67.0142 223.572 67.0578 223.572 67.1113C223.572 67.1649 223.864 67.5895 224.221 68.054C224.577 68.5191 224.916 68.9786 224.973 69.0764C225.03 69.1735 225.137 69.3211 225.211 69.4045C225.396 69.6162 226.703 71.3379 226.893 71.6212C227.303 72.2345 227.772 72.8254 227.847 72.8254C227.893 72.8254 227.93 72.8696 227.93 72.9231C227.93 72.9767 228.222 73.4007 228.579 73.8658C228.936 74.3303 229.275 74.7905 229.331 74.8876C229.389 74.9847 229.493 75.1329 229.564 75.2163C229.634 75.2998 229.813 75.5196 229.962 75.7051L230.232 76.0426H239.666C245.887 76.0426 249.1 76.0071 249.1 75.9386C249.1 75.882 249.019 75.7481 248.919 75.6422C248.819 75.5358 248.552 75.1858 248.325 74.8639C248.099 74.542 247.877 74.2786 247.833 74.2786C247.788 74.2786 247.752 74.2157 247.752 74.1385C247.752 74.062 247.665 73.9212 247.561 73.826C247.455 73.7307 247.163 73.3503 246.912 72.9798C246.661 72.6099 246.421 72.3067 246.378 72.3067C246.334 72.3067 246.298 72.2469 246.298 72.1741C246.298 72.1012 246.217 71.9686 246.117 71.8796C246.017 71.7912 245.678 71.3578 245.365 70.9163C245.051 70.4755 244.701 70.0066 244.586 69.874C244.472 69.7414 244.193 69.3703 243.967 69.0496C243.74 68.7296 243.518 68.4668 243.474 68.4668C243.429 68.4668 243.393 68.4039 243.393 68.3273C243.393 68.2508 243.307 68.11 243.202 68.0148C243.097 67.9195 242.805 67.5391 242.554 67.1686C242.303 66.7981 242.062 66.4955 242.019 66.4955C241.975 66.4955 241.94 66.4357 241.94 66.3629C241.94 66.29 241.858 66.1574 241.759 66.0684C241.658 65.9793 241.32 65.546 241.006 65.1051C240.692 64.6643 240.342 64.1992 240.228 64.0715C240.114 63.9439 239.837 63.5734 239.614 63.2478C239.39 62.9221 239.169 62.6556 239.121 62.6556C239.073 62.6556 239.035 62.6033 239.035 62.5398C239.035 62.4757 238.906 62.2739 238.749 62.0909C238.474 61.7696 237.847 60.9259 237.634 60.5884C237.576 60.4982 237.45 60.3313 237.352 60.2167C237.086 59.906 235.991 58.4496 235.382 57.5966C235.087 57.1825 234.807 56.8444 234.761 56.8444C234.714 56.8444 234.676 56.7921 234.676 56.728C234.676 56.6645 234.547 56.4628 234.39 56.2797C234.115 55.9584 233.488 55.1141 233.275 54.7772C233.218 54.687 233.091 54.5195 232.994 54.4055C232.896 54.2916 232.581 53.8825 232.293 53.4977C232.006 53.1123 231.535 52.4815 231.247 52.0967C230.96 51.7113 230.644 51.3029 230.547 51.1883C230.449 51.0743 230.323 50.9069 230.265 50.8166C230.052 50.4797 229.425 49.6354 229.15 49.3141C228.993 49.1317 228.864 48.948 228.864 48.9063C228.864 48.8652 228.772 48.7307 228.659 48.6087C228.545 48.4866 228.21 48.0595 227.913 47.6604C226.681 46.0029 226.357 45.5745 226.188 45.3771C226.09 45.2632 225.964 45.095 225.907 45.0035C225.291 44.0191 224.912 43.6686 224.712 43.8983ZM107.818 68.9425C107.593 69.0247 107.333 69.1617 107.239 69.2464C107.145 69.3317 107.022 69.4008 106.966 69.4008C106.834 69.4008 106.435 69.9375 106.078 70.5944C104.679 73.1666 107.719 76.24 110.362 74.9268C114.116 73.062 111.752 67.5017 107.818 68.9425ZM148.439 69.1256C148.239 69.204 147.944 69.3217 147.783 69.3865C146.064 70.0814 145.529 73.1454 146.897 74.4623C149.511 76.9797 153.559 74.5345 152.392 71.1423C151.855 69.5807 149.863 68.564 148.439 69.1256ZM26.3842 79.0861C24.2822 79.8738 24.3556 82.784 26.4976 83.5542C27.0941 83.7684 28.4851 83.7535 28.7092 83.5293C28.7746 83.464 28.8892 83.4104 28.9639 83.4104C29.0386 83.4104 29.2416 83.284 29.4147 83.1296C30.6145 82.0605 30.4981 80.2162 29.1731 79.2935C28.6924 78.9585 27.0498 78.8364 26.3842 79.0861ZM229.299 79.0512C228.242 79.3009 227.533 80.6807 227.828 81.9123C228.494 84.6875 233.119 84.1358 233.119 81.2803C233.119 80.761 232.932 80.0898 232.787 80.0898C232.742 80.0898 232.704 80.0276 232.704 79.9516C232.704 79.2611 230.677 78.725 229.299 79.0512ZM124.623 80.0363C122.114 80.4784 120.523 82.4478 120.523 85.114V85.7977H119.434H118.344V87.5099V89.2222H119.434H120.523V94.7221V100.222H122.703H124.882V94.7221V89.2222H126.701H128.519L128.491 87.5355L128.462 85.8493L126.559 85.8213L124.656 85.7927L124.729 85.2503C124.956 83.5561 126.401 82.8282 127.869 83.6676L128.314 83.9222L128.4 83.6925C128.447 83.5661 128.544 83.299 128.615 83.0991C128.687 82.8992 128.885 82.3625 129.055 81.9061C129.54 80.6097 129.544 80.6614 128.966 80.398C127.96 79.9404 126.065 79.7822 124.623 80.0363ZM184.76 83.4627C184.76 85.3176 184.722 86.835 184.674 86.835C184.628 86.835 184.479 86.7186 184.345 86.576C184.211 86.4334 184.039 86.3163 183.964 86.3163C183.888 86.3163 183.826 86.2771 183.826 86.2291C183.826 85.4851 179.619 85.1227 177.963 85.7242C177.12 86.0305 176.043 86.5996 176.043 86.7391C176.043 86.792 175.986 86.835 175.918 86.835C175.754 86.835 174.838 87.7945 174.43 88.3916C173.245 90.1307 172.805 93.1225 173.452 95.0421C173.564 95.3765 173.656 95.7127 173.656 95.7893C173.656 95.9674 174.226 97.0857 174.433 97.3148C174.519 97.4101 174.59 97.5346 174.59 97.5913C174.59 97.6479 174.701 97.7905 174.837 97.9088C174.973 98.0271 175.102 98.1647 175.123 98.2152C175.2 98.3988 176.214 99.1759 176.77 99.476C179.196 100.789 182.793 100.616 184.466 99.1049L184.864 98.745V99.4835V100.222H186.991H189.119V90.1562V80.0898H186.939H184.76V83.4627ZM0.144531 90.7265V100.222H2.21982H4.29574L4.29698 94.7999L4.29885 89.3779L4.54915 89.7926C4.68614 90.0211 4.99186 90.5348 5.22784 90.9345C5.4632 91.3336 5.79134 91.871 5.95572 92.1275C6.12072 92.3847 6.44761 92.9214 6.68235 93.3211C6.91709 93.7209 7.24398 94.2576 7.40898 94.5148C7.57336 94.7713 7.90025 95.3086 8.13499 95.7077C8.36973 96.1075 8.69787 96.6442 8.86412 96.9014C9.02974 97.1579 9.26199 97.5433 9.37905 97.7575L9.59199 98.1467H10.6785H11.7644L12.0135 97.7575C12.1505 97.5433 12.4655 97.0184 12.714 96.59C12.9624 96.1623 13.2133 95.7364 13.2706 95.6442C13.3285 95.5521 13.4873 95.2719 13.623 95.0216C13.7594 94.7713 13.9051 94.5428 13.9468 94.5148C13.9885 94.4861 14.1218 94.2676 14.2426 94.0285C14.3634 93.79 14.5097 93.5652 14.5676 93.5297C14.6255 93.4936 14.6728 93.3741 14.6728 93.2632C14.6728 93.1524 14.7114 93.0615 14.7581 93.0615C14.8054 93.0615 14.948 92.8635 15.0763 92.6207C15.2039 92.3778 15.4449 91.9694 15.6118 91.7128C15.7786 91.4557 15.9723 91.1288 16.0426 90.9862C16.113 90.8436 16.2774 90.5821 16.4075 90.4059C16.5383 90.229 16.6447 90.0522 16.6447 90.013C16.6447 89.9731 16.7263 89.8162 16.8266 89.6637C17.0009 89.3972 17.0102 89.5971 17.0601 94.7788L17.1117 100.17L19.2649 100.198L21.4186 100.226V90.729V81.2311H19.5357C17.4436 81.2311 17.5818 81.1863 17.1472 82.0095C17.0271 82.238 16.8957 82.4478 16.8564 82.4764C16.8166 82.5051 16.7132 82.6688 16.6261 82.8401C16.3322 83.4198 16.0744 83.8774 16.0115 83.9297C15.9499 83.9808 15.6578 84.4683 15.1404 85.3823C14.9947 85.6389 14.76 86.0361 14.618 86.2646C14.4767 86.4925 14.2656 86.8431 14.1498 87.043C14.034 87.2422 13.8273 87.5928 13.6903 87.8213C13.5533 88.0492 13.3453 88.3997 13.2276 88.5996C13.11 88.7988 12.897 89.1494 12.7544 89.3779C12.6118 89.6058 12.4387 89.9096 12.3696 90.0522C12.3005 90.1948 12.1486 90.4513 12.0315 90.6226C11.775 90.998 11.4998 91.465 11.3279 91.8162C11.2582 91.9594 11.1717 92.0989 11.1362 92.1275C11.1001 92.1562 11.0017 92.3131 10.9176 92.4762L10.7638 92.7732L10.539 92.3928C10.4158 92.1835 10.3143 91.9837 10.3143 91.9482C10.3143 91.9133 10.2489 91.8112 10.1692 91.7209C10.0409 91.5758 9.80058 91.178 9.44194 90.518C9.37967 90.4028 9.22338 90.1618 9.09512 89.9831C8.96685 89.8038 8.86163 89.6089 8.86163 89.551C8.86163 89.4925 8.79687 89.3798 8.71779 89.3007C8.63872 89.2216 8.46375 88.9551 8.32864 88.7085C8.19352 88.462 8.03599 88.1843 7.97809 88.0921C7.92018 88 7.73588 87.6911 7.56838 87.406C7.40027 87.1208 7.23215 86.8636 7.19417 86.835C7.15619 86.8063 7.02543 86.5965 6.90277 86.368C6.78011 86.1401 6.63441 85.883 6.57775 85.7977C6.30254 85.3786 5.62198 84.2466 5.42398 83.8774C5.30194 83.6495 5.17305 83.4391 5.13756 83.4104C5.07778 83.3618 4.85176 82.9752 4.57282 82.4453C4.50557 82.3183 4.35364 82.0748 4.23472 81.9042C4.11517 81.7342 3.98877 81.5126 3.95266 81.413C3.8935 81.2492 3.7036 81.2311 2.01559 81.2311H0.144531V90.7265ZM138.269 90.7265V100.222H140.5H142.731V97.8285V95.4344L143.95 94.1685C145.176 92.8959 145.533 92.7091 145.533 93.3392C145.533 93.4089 145.6 93.5036 145.681 93.5496C145.763 93.5951 146.125 94.0085 146.486 94.468C147.28 95.4805 147.388 95.61 147.686 95.9114C147.815 96.0409 147.92 96.1978 147.92 96.2594C147.92 96.3217 147.978 96.4095 148.05 96.4549C148.122 96.501 148.456 96.8883 148.793 97.3167C149.13 97.7444 149.493 98.1884 149.599 98.3023C149.706 98.4163 150.102 98.8951 150.478 99.3658L151.163 100.222H153.744C156.737 100.222 156.616 100.284 155.729 99.2008C155.401 98.7998 154.595 97.783 153.939 96.9406C153.283 96.0988 152.652 95.308 152.538 95.1835C152.424 95.0589 152.284 94.8871 152.227 94.8012C151.928 94.351 150.577 92.6873 150.452 92.6157C150.372 92.5696 150.307 92.4843 150.307 92.4251C150.307 92.3137 149.069 90.7527 148.932 90.6923C148.889 90.673 148.854 90.5939 148.854 90.5167C148.854 90.4389 148.772 90.3137 148.673 90.2384C148.248 89.9184 148.213 89.6712 148.545 89.3393C148.715 89.1693 148.854 89.0024 148.854 88.9682C148.854 88.9339 149.099 88.6612 149.399 88.3623C149.874 87.8879 151.163 86.5062 152.694 84.8269C153.242 84.2261 154.348 83.0474 155.262 82.0904C155.619 81.7168 155.911 81.3706 155.911 81.3214C155.911 81.2716 154.79 81.2311 153.42 81.2311H150.93L150.385 81.7872C149.28 82.9154 148.122 84.1302 146.465 85.901C145.531 86.9004 144.497 87.9975 144.168 88.3399C143.838 88.6824 143.409 89.1376 143.214 89.3517C143.019 89.5659 142.83 89.7409 142.795 89.7409C142.76 89.7409 142.731 87.8263 142.731 85.4863V81.2311H140.5H138.269V90.7265ZM40.7724 85.4533C39.8403 85.6638 38.7027 86.1924 38.0203 86.7329L37.6075 87.0604V86.325V85.5897H35.5316H33.4563V92.9058V100.222H35.6268H37.7968L37.8316 95.9412L37.8665 91.6605L38.1679 91.0379C39.1903 88.9252 42.2469 88.4601 43.4467 90.2347C43.9822 91.0273 44.0413 91.6095 44.0413 96.1037V100.222H46.2262H48.4111L48.3737 95.3186C48.327 89.1108 48.2249 88.5703 46.8258 87.1202C45.4535 85.6987 42.8558 84.9832 40.7724 85.4533ZM57.2726 85.4284C57.2154 85.4508 56.772 85.5916 56.287 85.7422C50.4085 87.566 49.1334 95.2719 54.1102 98.8932C56.6774 100.761 61.8778 100.83 64.3366 99.0283C65.6616 98.0576 65.6622 98.1367 64.3204 96.6585C63.1106 95.3261 63.1318 95.3391 62.7632 95.7077C62.6206 95.851 62.4786 95.9674 62.4468 95.9674C62.4157 95.9674 62.2756 96.0577 62.1355 96.1679C60.3236 97.5931 56.8075 96.8179 55.7714 94.7644L55.4626 94.1511L60.9593 94.1243L66.4567 94.0976V92.9251C66.4567 89.3567 64.6697 86.7677 61.4824 85.7186C60.752 85.4782 57.6879 85.2672 57.2726 85.4284ZM76.5748 85.434C76.5175 85.4533 76.1209 85.5729 75.6925 85.6999C75.2647 85.8263 74.7903 86.0168 74.639 86.1233C74.4876 86.2292 74.3314 86.3163 74.2921 86.3163C74.2529 86.3163 74.0269 86.4826 73.789 86.6862L73.3575 87.056L73.327 86.3232L73.2965 85.5897H71.1739H69.0513V92.9058V100.222H71.225H73.398L73.4329 96.2526C73.4702 91.9009 73.4983 91.6842 74.1464 90.7209C74.7299 89.8542 75.9422 89.3256 77.35 89.3256H78.1831V87.3543V85.3823L77.4309 85.3904C77.0169 85.3948 76.6321 85.4147 76.5748 85.434ZM83.5964 85.6432C80.8611 86.3817 79.6114 87.8032 79.6139 90.1724C79.617 92.4052 80.7378 93.6424 83.2216 94.1555C83.6742 94.2495 84.0802 94.3479 84.1238 94.3747C84.1674 94.4014 84.5982 94.4643 85.0808 94.5141C88.0844 94.8242 89.1834 95.851 87.4942 96.7694C86.9618 97.0589 84.2962 97.0234 83.3504 96.714C82.9675 96.5888 82.5939 96.4861 82.5198 96.4861C82.4464 96.4854 82.1562 96.369 81.8754 96.2264C81.5946 96.0838 81.3231 95.9674 81.2714 95.9674C81.2204 95.9674 81.1077 95.897 81.0224 95.8117C80.7745 95.5639 80.607 95.628 80.4128 96.0452C80.3138 96.2594 80.0934 96.7376 79.9234 97.1087C79.7534 97.4798 79.5018 98.0016 79.3642 98.2675L79.1139 98.7519L79.66 99.0564C82.4868 100.632 87.351 100.804 90.0912 99.425C90.6006 99.1684 91.674 98.2737 91.674 98.1049C91.674 98.0632 91.783 97.8802 91.9162 97.699C92.7637 96.5421 92.5134 94.1181 91.4331 93.0235C90.6081 92.1873 87.6262 91.1879 85.9724 91.1929C85.3037 91.1948 84.0372 90.6655 83.8411 90.3025C83.6319 89.9127 83.8187 89.3175 84.196 89.1743C84.285 89.1407 84.498 89.0323 84.6692 88.9339C85.5191 88.4452 88.7706 88.8237 89.9617 89.5504C90.377 89.8038 90.6068 89.7901 90.6952 89.5074C90.7662 89.2814 91.5252 87.6226 91.8459 86.9925C92.4131 85.8786 86.379 84.8917 83.5964 85.6432ZM107.603 85.4496C104.504 86.2435 102.904 87.5436 101.808 90.1562C101.311 91.3442 101.256 93.9232 101.702 95.2233C102.534 97.6535 103.988 99.0645 106.618 99.9947C107.761 100.399 110.938 100.414 112.066 100.02C112.834 99.7519 113.898 99.288 113.985 99.184C114.014 99.1504 114.201 99.0121 114.401 98.8777C118.843 95.884 118.254 88.711 113.36 86.2105C112.085 85.5592 108.847 85.1308 107.603 85.4496ZM161.462 85.4546C159.873 85.8213 159.389 85.9539 158.816 86.18C158.445 86.3257 158.025 86.5268 157.882 86.627C157.74 86.7266 157.518 86.8406 157.39 86.8804C157.047 86.9869 157.092 87.3512 157.548 88.1612C157.765 88.5448 158.073 89.1307 158.235 89.4632C158.558 90.1301 158.735 90.2596 159.002 90.0248C160.055 89.0983 162.802 88.5927 164.264 89.056C165.286 89.3804 166.081 90.4096 166.081 91.409C166.081 91.4638 165.312 91.5073 164.291 91.5105C159.512 91.5242 157.949 92.0802 156.91 94.1349C156.501 94.9419 156.504 96.8391 156.915 97.7121C157.184 98.2824 158.12 99.392 158.333 99.392C158.39 99.392 158.515 99.463 158.611 99.5495C159.746 100.577 164.174 100.599 165.309 99.5837C165.427 99.4785 165.561 99.392 165.606 99.392C165.652 99.392 165.848 99.2195 166.041 99.0084L166.392 98.6249V99.4237V100.222H168.416H170.439V95.7121C170.439 90.8517 170.376 89.9769 169.947 88.9109C169.582 88.005 168.757 86.835 168.483 86.835C168.432 86.835 168.333 86.7677 168.264 86.6849C167.493 85.7559 163.38 85.0119 161.462 85.4546ZM197.057 85.6837C196.105 85.977 195.112 86.4309 194.852 86.6905C194.773 86.7702 194.675 86.835 194.634 86.835C194.554 86.835 193.521 87.8331 193.27 88.1538C190.64 91.5024 191.421 96.76 194.878 98.9935C197.613 100.761 202.414 100.806 204.893 99.0887C206.254 98.146 206.261 98.0252 205.046 96.7538C204.505 96.1878 204.062 95.6903 204.062 95.6492C204.062 95.3871 203.664 95.4892 203.14 95.8846C200.727 97.7071 196.226 96.6037 196.177 94.1773C196.176 94.1343 198.632 94.0994 201.635 94.0994H207.095L207.045 92.6207C206.979 90.6923 206.679 89.7309 205.672 88.2322C204.093 85.8805 200.177 84.7217 197.057 85.6837ZM217.034 85.4483C216.949 85.4757 216.575 85.5953 216.204 85.7142C215.489 85.9434 214.71 86.3556 214.154 86.7995L213.817 87.0691V86.3294V85.5897H211.741H209.666V92.9058V100.222H211.838H214.01L214.055 96.0969C214.101 91.8012 214.166 91.1493 214.594 90.6767C214.68 90.5809 214.751 90.4669 214.751 90.4227C214.751 90.2757 215.337 89.7944 215.865 89.5068C216.696 89.0547 218.254 89.0809 218.965 89.5591C220.183 90.3772 220.246 90.7035 220.249 96.1492L220.251 100.222H222.439H224.627L224.587 95.0596C224.552 90.4065 224.53 89.8455 224.361 89.3779C223.351 86.5747 221.594 85.3718 218.538 85.3904C217.797 85.3948 217.12 85.421 217.034 85.4483ZM240.332 85.4515C238.332 85.8842 238.023 85.9838 236.752 86.6077C235.787 87.0809 235.793 86.9695 236.637 88.6594C237.41 90.2041 237.487 90.2845 237.905 89.9682C240.421 88.0616 244.846 88.7889 244.846 91.1089V91.4725L242.173 91.5385C239.503 91.6051 239.169 91.6481 238.02 92.0696C237.348 92.3162 236.129 93.1742 236.129 93.4002C236.129 93.4469 236.033 93.6138 235.918 93.7713C235.002 95.0085 235.326 97.6984 236.531 98.8801C238.405 100.717 242.782 100.899 244.612 99.2176L245.105 98.7637L245.136 99.4928L245.167 100.222H247.189H249.212L249.182 95.0596L249.153 89.8966L248.879 89.1618C247.904 86.5355 245.822 85.3674 242.162 85.3942C241.269 85.401 240.446 85.4266 240.332 85.4515ZM25.3618 92.9058V100.222H27.5411H29.7204V92.9058V85.5897H27.5411H25.3618V92.9058ZM228.242 92.9058V100.222H230.421H232.6V92.9058V85.5897H230.421H228.242V92.9058ZM60.4899 89.0666C61.3877 89.5715 62.0895 90.4171 62.2351 91.168L62.3005 91.5049H58.8672H55.4339L55.4943 91.2658C56.0211 89.1656 58.6275 88.018 60.4899 89.0666ZM201.064 89.0304C201.603 89.3144 202.194 89.7832 202.194 89.9258C202.194 89.9775 202.283 90.1008 202.392 90.1992C202.553 90.3449 202.921 91.2128 202.921 91.447C202.921 91.4787 201.38 91.5049 199.496 91.5049C197.613 91.5049 196.072 91.47 196.072 91.427C196.072 90.5086 197.205 89.3001 198.562 88.7689C198.969 88.6095 200.587 88.7789 201.064 89.0304ZM110.162 89.0772C110.99 89.2652 111.67 89.6761 112.092 90.2415C112.248 90.4513 112.4 90.6462 112.431 90.6749C112.461 90.7035 112.593 91.0391 112.726 91.4208C113.774 94.445 111.432 97.3659 108.536 96.6448C104.874 95.7333 104.844 89.9501 108.497 89.0859C109.355 88.8829 109.309 88.8829 110.162 89.0772ZM182.321 89.1444C185.528 90.0367 185.631 95.4556 182.462 96.5309C179.863 97.4132 177.633 95.6804 177.662 92.8025C177.691 90.0665 179.77 88.434 182.321 89.1444ZM166.081 94.7781C166.081 97.288 161.867 98.5028 160.952 96.2563C160.359 94.8012 161.449 94.1094 164.342 94.1032L166.081 94.0994V94.7781ZM244.846 94.9095C244.846 97.2413 240.786 98.4536 239.808 96.4138C239.071 94.8778 240.183 94.1119 243.16 94.1038L244.846 94.0994V94.9095Z" fill="white"/>
<path fill-rule="evenodd" clip-rule="evenodd" d="M134.533 3.71701C130.966 3.75437 125.239 3.79235 121.805 3.80044L115.561 3.81476L115.503 4.20392C115.292 5.61422 115.286 5.54822 115.636 5.72941C115.813 5.82094 115.958 5.94049 115.958 5.99466C115.958 6.04945 116.075 6.12293 116.218 6.15904C116.36 6.19453 116.477 6.26115 116.477 6.30723C116.477 6.35268 116.687 6.52267 116.944 6.68518C117.2 6.84707 117.411 7.01518 117.411 7.05752C117.411 7.10049 117.474 7.13535 117.551 7.13535C117.627 7.13535 117.768 7.2219 117.863 7.32651C117.959 7.43174 118.339 7.72376 118.709 7.97469C119.079 8.22561 119.383 8.46658 119.383 8.50954C119.383 8.55313 119.447 8.58862 119.526 8.58862C119.604 8.58862 119.731 8.66334 119.807 8.75487C119.883 8.8464 120.227 9.11289 120.572 9.34638C120.917 9.5805 121.246 9.8115 121.302 9.86069C121.39 9.93541 121.85 10.276 123.17 11.243C123.285 11.327 123.728 11.6489 124.156 11.959C124.584 12.2691 125.028 12.5947 125.142 12.6819C125.45 12.9167 126.692 13.8133 126.876 13.9328C126.965 13.9901 127.417 14.3282 127.882 14.685C128.347 15.0418 128.755 15.3338 128.788 15.3338C128.822 15.3338 128.949 15.4247 129.071 15.5355C129.439 15.8705 130.699 16.7864 130.791 16.7864C130.837 16.7864 130.934 16.8562 131.004 16.9415C131.075 17.0261 131.42 17.2901 131.77 17.5274C132.119 17.7652 132.444 18.0224 132.489 18.0996C132.535 18.1762 132.614 18.2397 132.666 18.2397C132.749 18.2397 133.765 18.9557 134.398 19.4595C134.523 19.5591 134.793 19.7571 134.999 19.8997C135.204 20.0429 135.529 20.2764 135.721 20.419C135.913 20.5615 136.179 20.7571 136.314 20.8529C136.448 20.9495 136.875 21.2645 137.263 21.5534C137.65 21.843 137.994 22.0789 138.026 22.0789C138.058 22.0789 138.185 22.1699 138.307 22.2813C138.664 22.6057 139.934 23.5322 140.021 23.5322C140.065 23.5322 140.211 23.6486 140.345 23.7912C140.64 24.1063 140.873 24.1206 141.127 23.8398C141.479 23.45 143.26 22.8056 143.984 22.8056C144.273 22.8056 144.5 22.2906 144.494 21.6443C144.493 21.5123 144.608 20.8909 144.749 20.2633C144.89 19.635 145.127 18.5143 145.274 17.7727C145.421 17.0305 145.634 16.0031 145.747 15.4894C145.86 14.9758 145.95 14.4621 145.949 14.3481C145.947 14.2336 146.061 13.6265 146.203 12.9988C146.528 11.5574 146.884 9.81399 146.882 9.67826C146.882 9.62097 146.777 9.52197 146.648 9.45784C145.879 9.07366 145.653 8.90804 144.98 8.23558C143.909 7.16337 143.33 5.90251 143.183 4.32036L143.117 3.60742L142.068 3.62735C141.492 3.63855 138.101 3.67903 134.533 3.71701ZM113.568 7.91055C113.015 8.46347 112.081 9.0307 111.523 9.15336C111.066 9.25361 111.075 9.15398 111.347 11.1309C111.481 12.101 111.592 13.0817 111.593 13.3102C111.594 13.5387 111.711 14.6595 111.851 15.8008C111.992 16.9421 112.205 18.81 112.326 19.952C112.446 21.0933 112.66 22.9612 112.801 24.1026C112.941 25.2445 113.054 26.3186 113.051 26.4898C113.05 26.661 113.164 27.7351 113.305 28.8764C113.447 30.0177 113.662 31.8857 113.782 33.0276C113.901 34.1689 114.113 36.0605 114.252 37.2305C114.391 38.4005 114.516 39.586 114.53 39.8649L114.557 40.373L115.106 40.5131C115.916 40.7192 117.088 41.3257 117.607 41.807L118.061 42.2291L118.437 42.0398C118.643 41.9352 118.882 41.7951 118.967 41.7279C119.053 41.6606 119.45 41.4315 119.85 41.2192C120.249 41.0062 120.646 40.7746 120.732 40.7036C120.817 40.6333 121.074 40.4757 121.302 40.3543C121.531 40.2329 121.787 40.0878 121.873 40.0312C121.958 39.9751 122.332 39.7597 122.703 39.553C123.074 39.3456 123.541 39.0823 123.741 38.9671C123.941 38.8513 124.338 38.6227 124.623 38.4584C125.76 37.8046 126.61 37.3127 126.906 37.1377C127.077 37.0362 127.451 36.8239 127.737 36.6658C128.022 36.5076 128.307 36.3364 128.37 36.2847C128.433 36.2336 128.806 36.0219 129.197 35.814C129.588 35.606 129.972 35.3731 130.049 35.2953C130.126 35.2181 130.24 35.1546 130.303 35.1546C130.364 35.1546 130.568 35.0381 130.755 34.8956C130.942 34.7524 131.166 34.6359 131.251 34.6359C131.338 34.6359 131.438 34.5886 131.474 34.5301C131.509 34.4722 131.758 34.3072 132.024 34.1633C132.291 34.0195 132.697 33.7885 132.925 33.6503C133.154 33.5114 133.481 33.3265 133.652 33.2387C133.823 33.1509 134.15 32.9635 134.378 32.8221C134.761 32.5849 134.993 32.4492 136.142 31.791C136.37 31.6603 136.744 31.4442 136.972 31.3116C137.201 31.179 137.528 30.9928 137.699 30.8988C137.87 30.8048 138.154 30.641 138.33 30.5364L138.651 30.3452L138.649 28.7805C138.647 27.3808 138.671 27.1616 138.879 26.7015L139.111 26.1872L138.871 25.996C138.74 25.8908 138.469 25.6965 138.268 25.5645C138.068 25.4325 137.84 25.2482 137.763 25.1548C137.685 25.0614 137.573 24.9848 137.513 24.9848C137.454 24.9848 137.331 24.9126 137.241 24.8242C137.071 24.658 135.929 23.8062 135.509 23.5322C135.377 23.4463 134.892 23.0964 134.431 22.7539C133.97 22.4114 133.256 21.8859 132.844 21.5864C132.432 21.2863 131.992 20.9594 131.868 20.8598C131.743 20.7602 131.473 20.5615 131.267 20.419C131.061 20.2764 130.736 20.0429 130.544 19.8997C130.353 19.7571 130.086 19.5616 129.952 19.4657C129.818 19.3692 129.391 19.0541 129.003 18.7652C128.615 18.4757 128.276 18.2397 128.25 18.2397C128.225 18.2397 128.121 18.1656 128.022 18.0747C127.84 17.9097 126.656 17.0336 126.351 16.8387C126.262 16.7814 126.135 16.688 126.07 16.6308C125.922 16.5025 124.598 15.5274 124.377 15.3855C124.289 15.3288 124.161 15.2354 124.093 15.1781C124.025 15.1208 123.612 14.8176 123.176 14.5038C122.739 14.1894 121.876 13.5592 121.257 13.1028C119.341 11.6882 119.064 11.4939 118.962 11.4939C118.908 11.4939 118.864 11.4534 118.864 11.4042C118.864 11.3544 118.544 11.0998 118.153 10.8376C117.763 10.5755 117.384 10.2891 117.311 10.2013C117.238 10.1135 117.114 10.0413 117.035 10.0413C116.956 10.0413 116.892 9.99892 116.892 9.94724C116.892 9.89494 116.682 9.71997 116.425 9.55808C116.168 9.39557 115.958 9.22808 115.958 9.18512C115.958 9.14215 115.894 9.10729 115.815 9.10729C115.736 9.10729 115.609 9.03194 115.533 8.93917C115.368 8.74179 113.931 7.758 113.806 7.758C113.759 7.758 113.652 7.8265 113.568 7.91055ZM106.408 9.53816C105.773 10.662 105.714 10.7629 105.605 10.8962C105.547 10.9684 105.4 11.2025 105.28 11.4161C105.053 11.8202 104.842 12.1888 104.435 12.8949C104.303 13.1234 104.141 13.3799 104.073 13.4658C104.006 13.5511 103.816 13.878 103.653 14.1925C103.489 14.5063 103.248 14.9073 103.118 15.0841C102.989 15.2609 102.882 15.4558 102.882 15.5175C102.882 15.5797 102.818 15.6949 102.738 15.774C102.659 15.8531 102.497 16.1102 102.377 16.345C102.257 16.5803 102.111 16.802 102.054 16.8375C101.996 16.8736 101.948 16.9931 101.948 17.104C101.948 17.2148 101.912 17.3057 101.868 17.3057C101.824 17.3057 101.697 17.4807 101.586 17.6949C101.475 17.9084 101.297 18.2005 101.19 18.343C101.083 18.4863 100.931 18.7428 100.851 18.914C100.701 19.2384 100.587 19.4302 100.233 19.952C100.117 20.1232 99.9627 20.3797 99.8905 20.5223C99.8183 20.6655 99.6564 20.9532 99.5306 21.1618C98.9242 22.1699 98.5724 22.7632 98.5238 22.8573C98.4783 22.9463 98.1433 23.5117 97.6633 24.3105C97.5948 24.4245 97.4335 24.6667 97.3046 24.8485C97.1764 25.0297 97.0711 25.2314 97.0711 25.2962C97.0711 25.3609 96.9659 25.5627 96.837 25.7439C96.55 26.1498 96.4205 26.3584 96.083 26.9568C95.9379 27.2133 95.6795 27.6573 95.5083 27.9424C95.3371 28.2276 95.1509 28.5545 95.0942 28.6691C95.0376 28.783 94.8526 29.0862 94.6839 29.3434C94.5145 29.6005 94.319 29.9274 94.2499 30.07C94.1802 30.2126 94.0276 30.4685 93.9106 30.6391C93.7045 30.9399 93.631 31.0656 93.2107 31.834C93.1018 32.0339 92.8988 32.3838 92.7605 32.6123C92.4224 33.1683 92.4262 33.1814 93.0382 33.598C94.5656 34.6384 95.6141 36.5275 95.6173 38.2423C95.6179 38.9235 95.6378 38.9945 95.8246 38.9945C95.9379 38.9945 96.3233 39.104 96.6807 39.2385C97.0381 39.3724 97.6807 39.5885 98.1085 39.718C98.5369 39.8481 99.1906 40.0579 99.5617 40.1843C99.9322 40.3114 100.656 40.5467 101.17 40.7074C101.684 40.8674 102.338 41.0779 102.623 41.1737C102.908 41.2696 103.562 41.4801 104.076 41.6401C104.59 41.8007 105.313 42.0361 105.684 42.1631C106.055 42.2895 106.709 42.4994 107.137 42.6295C107.565 42.759 108.091 42.9284 108.307 43.005C108.853 43.2011 108.937 43.1855 109.134 42.8505C109.543 42.1581 110.684 41.2329 111.573 40.8705C111.994 40.6999 112.024 41.4122 111.342 35.4142C111.205 34.2156 110.995 32.301 110.873 31.1597C110.753 30.0177 110.538 28.1498 110.398 27.0085C110.258 25.8671 110.144 24.7931 110.147 24.6218C110.149 24.4506 110.035 23.3765 109.895 22.2346C109.755 21.0933 109.541 19.2253 109.42 18.084C109.299 16.9421 109.086 15.0741 108.945 13.9328C108.805 12.7915 108.691 11.6994 108.692 11.5057C108.693 11.3127 108.639 10.7461 108.573 10.2474L108.452 9.33953L107.893 9.20566C107.586 9.13219 107.311 9.03319 107.282 8.98587C107.108 8.70381 106.755 8.92734 106.408 9.53816ZM151.889 9.33144C151.725 9.4952 150.114 10.0313 149.769 10.0369C149.515 10.0406 149.485 10.0855 149.427 10.5344C149.392 10.8053 149.277 11.4005 149.171 11.8575C149.064 12.3139 148.948 12.8974 148.911 13.1545C148.874 13.411 148.755 14.0418 148.646 14.5555C148.537 15.0692 148.326 16.0965 148.179 16.8387C148.031 17.5803 147.82 18.6077 147.709 19.1214C147.599 19.635 147.478 20.2658 147.442 20.5223C147.407 20.7795 147.289 21.3766 147.182 21.8498C146.934 22.9432 146.924 23.5322 147.154 23.5322C147.292 23.5322 148.084 24.1144 148.493 24.5172C149.481 25.4892 150.198 27.171 150.202 28.5265C150.204 29.1728 150.098 29.0763 151.242 29.476C151.498 29.5657 151.872 29.6964 152.072 29.7662C152.272 29.8365 152.668 29.9741 152.954 30.0731C153.479 30.2543 154.432 30.5943 155.756 31.0719C156.155 31.2157 156.715 31.4156 157.001 31.5152C157.286 31.6154 157.73 31.7711 157.987 31.8614C158.243 31.9523 158.617 32.0837 158.817 32.154C159.017 32.2238 159.461 32.3844 159.803 32.5102C160.897 32.9124 161.142 32.9959 161.632 33.1341C161.896 33.2082 162.254 33.3414 162.426 33.4305C162.598 33.5195 162.919 33.6347 163.139 33.687C163.359 33.7393 163.616 33.8134 163.71 33.8526C163.826 33.9006 163.993 33.8128 164.229 33.5787C164.504 33.3059 165.513 32.4629 165.642 32.3981C165.676 32.3813 165.13 31.3863 165.048 31.3153C165.015 31.2867 164.93 31.1466 164.86 31.004C164.791 30.8614 164.605 30.5264 164.447 30.2606C164.29 29.9941 163.937 29.387 163.663 28.9113C162.901 27.5894 162.64 27.1405 162.434 26.8011C162.331 26.6299 162.127 26.2793 161.982 26.0228C161.643 25.4257 161.304 24.8354 160.997 24.3105C160.863 24.082 160.665 23.7315 160.558 23.5322C160.451 23.3323 160.206 22.912 160.014 22.5982C159.823 22.2838 159.515 21.7471 159.331 21.4046C159.146 21.0622 158.909 20.6705 158.802 20.5348C158.697 20.3984 158.609 20.239 158.609 20.1811C158.609 20.1226 158.503 19.9308 158.372 19.754C158.242 19.5771 158.078 19.3162 158.009 19.1737C157.94 19.0311 157.743 18.6805 157.572 18.3953C157.402 18.1096 157.212 17.7602 157.151 17.6189C157.09 17.4776 157.006 17.3375 156.964 17.3076C156.923 17.2777 156.663 16.8568 156.388 16.3717C156.113 15.8861 155.768 15.279 155.623 15.0225C155.477 14.7653 155.273 14.4154 155.17 14.2441C155.067 14.0729 154.864 13.7224 154.718 13.4658C154.572 13.2087 154.369 12.8587 154.266 12.6875C154.163 12.5163 153.96 12.1657 153.814 11.9092C152.206 9.05872 152.187 9.03319 151.889 9.33144ZM148.539 32.5401C147.621 33.4772 147.549 33.5351 146.994 33.7754C146.488 33.9946 146.495 33.9286 146.774 35.9852C146.886 36.8127 147.075 38.3071 147.194 39.3058C147.566 42.4327 147.914 45.2122 148.143 46.8816C148.265 47.7657 148.397 48.8865 148.438 49.3722C148.48 49.8572 148.587 50.8142 148.678 51.4991C148.769 52.184 148.965 53.7251 149.113 54.9237C149.261 56.1223 149.495 57.9903 149.632 59.0749C149.769 60.1596 149.977 61.8407 150.093 62.8108C150.209 63.7809 150.352 64.9677 150.41 65.4477C150.468 65.9278 150.515 66.3593 150.515 66.4079C150.515 66.4558 150.626 66.495 150.763 66.495C150.9 66.495 151.215 66.5872 151.463 66.6999C152.045 66.9639 152.158 66.9608 152.283 66.6762C152.339 66.548 152.524 66.2092 152.696 65.9241C152.866 65.6389 153.1 65.2186 153.216 64.9901C153.332 64.7616 153.583 64.3182 153.776 64.0044C153.969 63.69 154.255 63.1763 154.413 62.8625C154.571 62.5487 154.79 62.1751 154.9 62.0325C155.01 61.8899 155.165 61.6328 155.244 61.4615C155.324 61.2903 155.527 60.9167 155.695 60.6315C155.864 60.3464 156.091 59.9491 156.199 59.7492C156.453 59.2791 156.826 58.6204 157.638 57.207C157.769 56.9785 157.964 56.6285 158.071 56.4286C158.321 55.9629 159.52 53.8316 159.647 53.6267C159.7 53.5408 159.982 53.0402 160.272 52.5141C160.563 51.9873 160.844 51.529 160.898 51.496C160.952 51.4624 160.996 51.3447 160.996 51.2339C160.996 51.1231 161.035 51.0321 161.081 51.0321C161.129 51.0321 161.269 50.8341 161.394 50.5913C161.518 50.3485 161.76 49.917 161.931 49.6312C162.101 49.346 162.335 48.9257 162.451 48.6972C162.566 48.4693 162.829 48.0023 163.032 47.6599C163.236 47.3174 163.548 46.757 163.725 46.4146C163.901 46.0721 164.076 45.7683 164.113 45.7396C164.149 45.711 164.401 45.2801 164.671 44.7814C164.941 44.2826 165.206 43.848 165.259 43.815C165.312 43.7826 165.355 43.6843 165.355 43.5965C165.355 43.5093 165.45 43.3169 165.566 43.1687L165.778 42.8997L165.489 42.6631C165.329 42.533 165.168 42.4246 165.129 42.4228C165.059 42.419 163.942 41.3169 163.743 41.0554C162.863 39.8948 162.393 37.8507 162.713 36.5748C162.766 36.3631 162.719 36.3171 162.326 36.1981C161.887 36.0649 161.628 35.9752 160.062 35.413C158.099 34.7088 157.8 34.5998 157.324 34.4161C157.045 34.309 156.765 34.2212 156.702 34.2212C156.638 34.2212 156.306 34.111 155.963 33.9759C155.621 33.8408 155.177 33.6733 154.978 33.6029C154.778 33.5332 153.96 33.2424 153.161 32.9573C152.362 32.6715 151.522 32.3769 151.293 32.3028C151.065 32.2281 150.631 32.0687 150.329 31.9486C149.504 31.6198 149.41 31.6509 148.539 32.5401ZM139.503 32.8987C139.31 33.0276 139.035 33.1907 138.892 33.2611C138.749 33.3315 138.415 33.5183 138.149 33.6752C137.883 33.8327 137.276 34.1857 136.8 34.4597C135.478 35.2218 135.029 35.4833 134.689 35.6882C134.518 35.7916 134.168 35.9952 133.911 36.1409C133.314 36.4796 132.724 36.8195 132.199 37.1265C131.971 37.2598 131.62 37.4571 131.42 37.5649C131.22 37.672 130.801 37.9173 130.486 38.1084C130.172 38.3002 129.636 38.6066 129.293 38.7896C128.951 38.9727 128.6 39.185 128.512 39.261C128.426 39.3363 128.262 39.4365 128.149 39.4826C128.036 39.5293 127.671 39.7298 127.336 39.9291C126.01 40.7198 125.755 40.8649 125.508 40.972C125.366 41.033 125.225 41.1202 125.196 41.1663C125.166 41.2123 124.955 41.3506 124.727 41.4732C124.499 41.5965 124.079 41.835 123.793 42.0037C123.508 42.1718 123.134 42.3817 122.963 42.4688C122.792 42.5566 122.465 42.7416 122.236 42.8798C121.659 43.2303 121.006 43.6071 120.194 44.0597C119.812 44.272 119.478 44.4688 119.45 44.4962C119.422 44.5242 119.466 44.8019 119.547 45.1139C119.749 45.8934 119.732 46.46 119.476 47.5733L119.257 48.5254L119.605 48.8417C119.797 49.016 120.001 49.1598 120.06 49.1611C120.119 49.163 120.239 49.2464 120.328 49.346C120.417 49.4456 120.852 49.7844 121.295 50.0982C121.738 50.412 122.174 50.7389 122.264 50.8242C122.354 50.9095 122.509 51.0259 122.609 51.0838C122.709 51.1411 123.17 51.4798 123.635 51.8366C124.1 52.1934 124.524 52.4854 124.578 52.4854C124.631 52.4854 124.675 52.5228 124.675 52.5688C124.675 52.6442 125.383 53.2058 125.812 53.4711C125.904 53.5284 126.048 53.6348 126.131 53.7083C126.216 53.7818 126.657 54.118 127.114 54.4555C127.57 54.7936 128.018 55.1423 128.108 55.23C128.199 55.3185 128.323 55.3907 128.385 55.3907C128.447 55.3907 128.513 55.4287 128.532 55.4748C128.551 55.5202 128.917 55.8191 129.345 56.1372C130.497 56.9953 131.763 57.9597 131.936 58.1111C132.019 58.1845 132.167 58.2916 132.264 58.3483C132.362 58.4056 132.821 58.7443 133.286 59.1011C133.751 59.4578 134.175 59.7492 134.229 59.7492C134.283 59.7492 134.326 59.7878 134.326 59.8339C134.326 59.8806 134.665 60.1608 135.078 60.456C135.932 61.0649 137.388 62.1595 137.699 62.4254C137.813 62.5231 137.98 62.6502 138.071 62.7068C138.408 62.9204 139.252 63.5468 139.573 63.8226C139.756 63.9795 139.958 64.1078 140.022 64.1078C140.085 64.1078 140.137 64.1464 140.137 64.1925C140.137 64.2392 140.476 64.5194 140.89 64.8145C141.304 65.1096 142.016 65.6352 142.472 65.9813C142.929 66.3282 143.411 66.6905 143.544 66.787C143.678 66.8829 144.074 67.1831 144.427 67.4539C145.01 67.9022 145.534 68.0909 145.534 67.8536C145.534 67.8013 145.744 67.6264 146.001 67.4645C146.257 67.302 146.468 67.1345 146.468 67.0915C146.468 67.0486 146.529 67.0137 146.604 67.0137C146.679 67.0137 146.934 66.9203 147.17 66.8064C147.406 66.6918 147.654 66.5984 147.721 66.5984C147.859 66.5984 147.835 66.2011 147.574 64.2635C147.481 63.5785 147.31 62.2012 147.191 61.2025C147.073 60.2038 146.864 58.499 146.729 57.4143C146.592 56.3303 146.359 54.4623 146.21 53.2637C146.061 52.0651 145.848 50.407 145.736 49.5795C145.623 48.752 145.533 47.9114 145.533 47.7116C145.533 47.5123 145.419 46.5316 145.279 45.5323C145.14 44.5336 144.903 42.7123 144.754 41.4851C144.605 40.2578 144.394 38.5536 144.285 37.6975C144.176 36.8413 144.058 35.7785 144.023 35.3352C143.952 34.4379 143.918 34.3968 143.147 34.2748C142.623 34.1926 141.277 33.5868 141.074 33.3427C141.002 33.2549 140.903 33.1833 140.856 33.1833C140.809 33.1833 140.653 33.0662 140.51 32.9236C140.19 32.603 139.956 32.5967 139.503 32.8987ZM94.7125 41.6669C94.616 41.9228 93.2064 43.3518 93.0494 43.3524C92.9019 43.353 92.872 43.726 93.0127 43.8131C93.0638 43.8449 93.2562 44.1631 93.4405 44.5199C93.6242 44.8773 93.834 45.239 93.9062 45.3249C93.9784 45.4102 94.1378 45.6674 94.2605 45.8953C94.3838 46.1238 94.5942 46.4974 94.7287 46.7259C95.0575 47.2844 95.3408 47.7925 95.5687 48.2302C95.6727 48.4301 95.7897 48.6169 95.8296 48.6455C95.8694 48.6742 96.0027 48.884 96.126 49.1125C96.3551 49.5359 96.6378 50.0328 97.0711 50.7731C97.3744 51.2918 97.7137 51.8808 98.0562 52.4854C98.672 53.5707 98.8706 53.8882 98.954 53.9206C99.0026 53.9399 99.0424 54.0389 99.0424 54.1417C99.0424 54.2438 99.1109 54.3845 99.1944 54.4536C99.2778 54.5227 99.3774 54.6803 99.4154 54.8035C99.4534 54.9268 99.5817 55.1653 99.7006 55.3334C99.8189 55.5015 99.9914 55.7817 100.084 55.9561C100.175 56.1304 100.359 56.4598 100.492 56.6883C100.885 57.3639 101.194 57.9068 101.437 58.3483C101.562 58.5768 101.697 58.7866 101.737 58.8153C101.777 58.8439 101.893 59.0307 101.996 59.2306C102.25 59.7243 102.537 60.2386 102.834 60.7355C102.971 60.9634 103.202 61.3607 103.348 61.6172C103.494 61.8743 103.699 62.2243 103.802 62.3955C104.044 62.7965 104.413 63.4328 105.005 64.4714C105.265 64.9278 105.625 65.5579 105.805 65.8724C105.984 66.1862 106.171 66.4583 106.219 66.4776C106.267 66.4963 106.307 66.5741 106.307 66.6501C106.307 66.8474 106.842 67.6363 106.974 67.6351C107.908 67.622 108.425 67.1918 108.593 66.2871C108.661 65.916 108.829 65.1096 108.965 64.4951C109.101 63.8805 109.212 63.2734 109.211 63.1464C109.21 63.0188 109.301 62.4945 109.414 61.9808C109.857 59.9622 110.082 58.8452 110.147 58.3483C110.185 58.0631 110.316 57.3626 110.438 56.7917C110.56 56.2213 110.757 55.2406 110.876 54.6124C110.995 53.9848 111.188 53.0365 111.305 52.5047C111.422 51.9736 111.501 51.5303 111.481 51.5191C111.461 51.5085 111.35 51.4406 111.236 51.3696C111.122 51.298 110.934 51.1984 110.82 51.148C110.342 50.9381 108.694 49.2053 108.694 48.9126C108.694 48.8834 108.576 48.6013 108.431 48.2863C108.237 47.8604 108.153 47.4606 108.105 46.7321L108.04 45.7515L107.511 45.5528C107.22 45.4439 106.561 45.2234 106.047 45.0641C105.534 44.904 104.88 44.6923 104.595 44.5933C104.309 44.4943 103.656 44.2857 103.142 44.1288C102.628 43.9719 101.904 43.7372 101.533 43.6077C101.162 43.4782 100.158 43.1525 99.3021 42.8848C98.446 42.6164 97.4186 42.2895 97.0188 42.1581C94.7188 41.4004 94.8059 41.4191 94.7125 41.6669ZM117.415 50.7675C117.092 51.1573 115.927 51.6797 114.764 51.9568L114.038 52.1299L113.965 52.7158C113.924 53.0383 113.82 53.5807 113.731 53.9206C113.643 54.2606 113.57 54.6722 113.569 54.8353C113.568 54.9978 113.452 55.575 113.312 56.1173C113.172 56.6597 113.056 57.22 113.055 57.3626C113.055 57.5052 112.941 58.136 112.803 58.7636C112.568 59.8308 112.504 60.1521 112.214 61.695C112.003 62.817 111.587 64.8855 111.332 66.0797C111.006 67.6096 111.005 67.5934 111.484 67.8381C112.656 68.4358 113.755 70.1325 113.907 71.5796L113.934 71.8392L128.748 71.8654L143.562 71.8915V71.5142C143.562 71.3069 143.616 70.9563 143.682 70.7359C143.803 70.333 143.623 69.9196 143.327 69.9196C143.273 69.9196 143.128 69.8268 143.006 69.7135C142.884 69.6002 142.48 69.282 142.109 69.0068C141.738 68.731 141.108 68.2602 140.708 67.9607C140.309 67.6606 139.871 67.3368 139.736 67.2403C139.601 67.1444 139.316 66.9253 139.103 66.754C138.69 66.4222 137.823 65.7846 137.551 65.6127C137.461 65.5554 137.294 65.429 137.18 65.3313C137.066 65.2335 136.657 64.9185 136.272 64.6308C135.887 64.3431 135.256 63.8724 134.871 63.5854C134.486 63.2977 134.077 62.9827 133.963 62.8849C133.849 62.7872 133.676 62.6601 133.58 62.6035C133.332 62.4571 131.61 61.1421 131.412 60.9478C131.321 60.8594 131.197 60.7872 131.135 60.7872C131.073 60.7872 131.007 60.7511 130.988 60.7069C130.936 60.5855 129.243 59.3346 129.131 59.3346C129.077 59.3346 129.034 59.2966 129.034 59.2505C129.034 59.1752 128.326 58.6135 127.897 58.3483C127.805 58.2916 127.661 58.1845 127.577 58.1111C127.493 58.0382 127.052 57.7013 126.595 57.3626C126.138 57.0239 125.696 56.687 125.613 56.6142C125.529 56.5407 125.381 56.4336 125.284 56.377C125.187 56.3197 124.727 55.981 124.262 55.6242C123.797 55.2674 123.373 54.976 123.32 54.976C123.266 54.976 123.222 54.9393 123.222 54.8951C123.222 54.8502 122.961 54.6286 122.641 54.4019C122.321 54.1753 121.96 53.9075 121.837 53.8067C121.714 53.7058 121.24 53.3459 120.784 53.0059C120.327 52.6666 119.885 52.3285 119.802 52.2557C119.718 52.1822 119.574 52.0751 119.482 52.0184C119.164 51.8217 118.307 51.1878 117.975 50.9026C117.589 50.5714 117.58 50.5689 117.415 50.7675Z" fill="white"/>
</g>
<defs>
<clipPath id="clip0_2458_6616">
<rect width="249.06" height="100" fill="white" transform="translate(0.144531 0.390625)"/>
</clipPath>
</defs>
</svg>
