<svg width="23" height="24" viewBox="0 0 23 24" fill="none" xmlns="http://www.w3.org/2000/svg">
<g clip-path="url(#clip0_2910_10861)">
<path d="M12.0193 8.82617L12.6406 9.63271C12.6406 9.63271 16.379 15.1237 18.2515 17.8649C19.543 19.7668 20.8346 21.6687 22.1283 23.5695C22.2275 23.7058 22.319 23.8475 22.4019 23.9935C20.1 24.0033 17.798 23.9979 15.4972 23.9957C13.2062 20.5951 8.658 13.7711 8.658 13.7711L8.26562 13.0562" fill="#01FF85"/>
<path d="M6.6386 15.8604C6.55359 15.928 6.56013 16.0402 6.56013 16.1383L6.46749 16.4479L6.01953 9.24677L6.56776 8.66039C6.70836 8.56448 12.1525 2.8097 14.7726 0.0696415C14.8348 -0.0175521 14.947 0.008606 15.0386 0.000976562C17.3187 0.008606 21.8778 0.00642616 21.8778 0.00642616C21.8778 0.00642616 7.30236 15.1563 6.6386 15.8604Z" fill="#01FF85"/>
<path d="M0.601562 0.0078125H6.56777V23.9871H0.601562V0.0078125Z" fill="#01FF85"/>
</g>
<defs>
<clipPath id="clip0_2910_10861">
<rect width="21.7984" height="24" fill="white" transform="translate(0.601562)"/>
</clipPath>
</defs>
</svg>
